<?xml version="1.0" encoding="utf-8"?>
<!-- Generator: Adobe Illustrator 27.1.1, SVG Export Plug-In . SVG Version: 6.00 Build 0)  -->
<svg version="1.1" id="Layer_1" xmlns="http://www.w3.org/2000/svg" xmlns:xlink="http://www.w3.org/1999/xlink" x="0px" y="0px"
	 viewBox="0 0 1920 1080" style="enable-background:new 0 0 1920 1080;" xml:space="preserve">
<style type="text/css">
	.st0{stroke:#000000;stroke-miterlimit:10;}
	.st1{fill:#3FA9F5;stroke:#000000;stroke-miterlimit:10;}
	.st2{fill:#E63946;stroke:#000000;stroke-miterlimit:10;}
	.st3{fill:#66999B;}
	.st4{fill:none;}
	.st5{fill:#FFFFFF;}
	.st6{fill:#4D7374;}
	.st7{fill:#334D4E;}
	.st8{fill:#85ADAF;}
</style>
<path class="st0" d="M-363.5,55.5"/>
<path class="st1" d="M105.2,297.9L-358-147.7c-42.8-41.2-44.1-109.4-2.9-152.2L-66.4-606c41.2-42.8,109.4-44.2,152.2-2.9L549-163.3
	c42.8,41.2,44.2,109.4,2.9,152.2L257.4,295C216.2,337.8,148.1,339.1,105.2,297.9z"/>
<path class="st2" d="M1651.5,1771.9l-463.2-445.6c-42.8-41.2-44.2-109.4-2.9-152.2L1479.9,868c41.2-42.8,109.4-44.2,152.2-2.9
	l463.2,445.6c42.8,41.2,44.1,109.4,2.9,152.2l-294.5,306.1C1762.5,1811.8,1694.4,1813.1,1651.5,1771.9z"/>
<polyline class="st3" points="953.9,544.1 911,497.8 911,583.8 953.9,544.1 "/>
<line class="st4" x1="674" y1="540.7" x2="674" y2="540.7"/>
<polyline class="st3" points="662.1,583.8 911,583.8 911,497.8 664.3,497.8 "/>
<polyline class="st5" points="704.9,544.1 662,497.8 662,583.8 704.9,544.1 "/>
<polyline class="st6" points="1246,543.1 1203.1,496.8 1203.1,582.8 1246,543.1 "/>
<line class="st4" x1="966.1" y1="539.7" x2="966.1" y2="539.7"/>
<polyline class="st6" points="954.2,582.8 1203.1,582.8 1203.1,496.8 956.4,496.8 "/>
<polyline class="st5" points="997,543.1 954.1,496.8 954.1,582.8 997,543.1 "/>
<polyline class="st7" points="1540.6,544.1 1497.8,497.8 1497.8,583.8 1540.6,544.1 "/>
<line class="st4" x1="1260.8" y1="540.7" x2="1260.8" y2="540.7"/>
<polyline class="st7" points="1248.8,583.8 1497.8,583.8 1497.8,497.8 1251,497.8 "/>
<polyline class="st5" points="1291.6,544.1 1248.8,497.8 1248.8,583.8 1291.6,544.1 "/>
<circle class="st5" cx="740.7" cy="542" r="27.5"/>
<circle class="st3" cx="740.8" cy="542.1" r="23.4"/>
<g>
	<rect x="729.1" y="529.5" class="st4" width="30.1" height="34"/>
	<path class="st5" d="M731.4,554.8v-25.3h10.3c1.8,0,3.3,0.2,4.5,0.6s2.1,0.9,2.7,1.5c0.7,0.6,1.1,1.3,1.4,2.1
		c0.3,0.8,0.4,1.6,0.4,2.4c0,1-0.2,1.8-0.6,2.5c-0.4,0.7-0.9,1.3-1.5,1.8c-0.6,0.5-1.1,0.8-1.6,1c0.6,0.2,1.3,0.5,2.1,1
		c0.8,0.5,1.5,1.2,2,2c0.6,0.8,0.9,1.9,0.9,3.2c0,2.5-0.9,4.3-2.6,5.5c-1.8,1.2-4.3,1.8-7.7,1.8L731.4,554.8L731.4,554.8z
		 M738,539.7h2.9c0.8,0,1.5-0.2,2.1-0.6s0.9-1.1,0.9-2c0-1.1-0.3-1.8-1-2.2c-0.7-0.4-1.3-0.6-2.1-0.6H738V539.7z M738,550h3.4
		c0.5,0,1.1-0.1,1.7-0.2s1.1-0.4,1.5-0.8s0.6-1.1,0.6-2c0-0.9-0.2-1.5-0.6-1.9s-0.9-0.7-1.5-0.8c-0.6-0.1-1.2-0.2-1.7-0.2H738V550z"
		/>
</g>
<circle class="st5" cx="1034.7" cy="540" r="27.5"/>
<circle class="st6" cx="1034.8" cy="540.1" r="23.4"/>
<g>
	<rect x="1020.1" y="527.5" class="st4" width="30.1" height="34"/>
	<path class="st5" d="M1041.3,543.9l4.5,4.3c-2.8,3.6-6.6,5.4-11.3,5.4c-2.6,0-4.9-0.6-6.9-1.7s-3.5-2.7-4.7-4.7
		c-1.1-2-1.7-4.3-1.7-6.9s0.6-4.9,1.7-6.9c1.1-2,2.7-3.6,4.6-4.8c2-1.2,4.3-1.8,6.9-1.8c2.2,0,4.2,0.4,6.1,1.1
		c1.9,0.7,3.5,2,4.8,3.8l-4.4,4.5c-0.7-1-1.6-1.7-2.6-2.3c-1-0.6-2.1-0.9-3.4-0.9c-1.4,0-2.6,0.3-3.6,0.9s-1.8,1.5-2.3,2.5
		s-0.8,2.2-0.8,3.5c0,1.3,0.3,2.5,0.8,3.6c0.5,1.1,1.3,1.9,2.3,2.5c1,0.6,2.2,0.9,3.5,0.9c1.5,0,2.7-0.3,3.6-0.8
		C1039.6,545.8,1040.5,545,1041.3,543.9z"/>
</g>
<circle class="st5" cx="1328.9" cy="542" r="27.5"/>
<circle class="st7" cx="1329" cy="542.1" r="23.4"/>
<g>
	<rect x="1316.3" y="529.5" class="st4" width="30.1" height="34"/>
	<path class="st5" d="M1318.6,554.8v-25.3h9.7c2.6,0,4.9,0.5,7,1.3c2,0.9,3.7,2.3,4.8,4.2c1.2,1.9,1.8,4.3,1.8,7.3
		c0,2.8-0.6,5.1-1.8,7c-1.2,1.9-2.8,3.2-4.9,4.2s-4.4,1.4-7,1.4H1318.6z M1325.3,548.9h2.7c2.2,0,3.9-0.6,5.1-1.9s1.8-2.9,1.8-4.9
		c0-2-0.6-3.7-1.7-4.9c-1.1-1.2-2.9-1.9-5.2-1.9h-2.7L1325.3,548.9L1325.3,548.9z"/>
</g>
<g>
	<rect x="781.9" y="530.4" class="st4" width="130.2" height="49"/>
	<path class="st5" d="M782.1,552.6l4.1-4.9c0.7,0.7,1.6,1.4,2.8,1.9c1.2,0.6,2.4,0.9,3.7,0.9c0.7,0,1.3-0.1,2-0.4
		c0.6-0.3,1-0.8,1-1.6c0-0.7-0.3-1.2-1-1.7c-0.7-0.4-1.7-0.9-2.9-1.3l-1.4-0.5c-1-0.3-2.1-0.8-3.1-1.4c-1-0.6-1.9-1.4-2.5-2.3
		s-1-2.1-1-3.5c0-1.6,0.4-3,1.1-4.2s1.9-2.2,3.3-2.9c1.5-0.7,3.3-1.1,5.4-1.1c1.7,0,3.1,0.2,4.3,0.6s2.2,0.8,3.1,1.3s1.4,1,1.8,1.4
		l-3.4,4.3c-0.9-0.7-1.8-1.2-2.8-1.6c-1-0.4-2-0.6-3-0.6c-0.7,0-1.3,0.2-1.9,0.4c-0.6,0.3-0.9,0.8-0.9,1.5c0,0.8,0.3,1.4,1.1,1.7
		c0.7,0.3,1.6,0.7,2.7,1.1l1.2,0.4c0.9,0.2,1.7,0.6,2.6,1s1.7,0.9,2.4,1.5s1.3,1.4,1.8,2.3c0.4,0.9,0.7,2.1,0.7,3.4
		c0,1.5-0.5,2.9-1.4,4.1s-2.2,2.2-3.7,2.8c-1.6,0.7-3.3,1-5.2,1c-2.5,0-4.7-0.3-6.4-1S783.3,553.7,782.1,552.6z"/>
	<path class="st5" d="M821,550.2l2,4.2c-0.6,0.3-1.5,0.7-2.8,1.2c-1.3,0.5-2.8,0.7-4.6,0.7c-3.3,0-5.8-0.8-7.5-2.5
		c-1.8-1.7-2.6-4-2.6-7c0-1.2,0.2-2.4,0.6-3.5s1-2.2,1.7-3.1c0.8-0.9,1.8-1.7,2.9-2.2c1.2-0.5,2.5-0.8,4.1-0.8
		c1.7,0,3.1,0.4,4.5,1.1s2.4,1.9,3.2,3.4c0.8,1.5,1.2,3.4,1.2,5.7v1.2h-12.1c0,0.4,0.2,0.8,0.4,1.3s0.7,0.8,1.4,1.1s1.5,0.5,2.6,0.5
		c1.1,0,2.1-0.1,3-0.4C819.9,550.8,820.6,550.5,821,550.2z M811.5,544.9h6.3c0-0.4-0.1-0.8-0.3-1.2c-0.2-0.4-0.6-0.8-1-1.1
		c-0.5-0.3-1.1-0.5-1.8-0.5c-0.7,0-1.3,0.2-1.8,0.5c-0.5,0.3-0.8,0.7-1,1.1C811.7,544.1,811.5,544.5,811.5,544.9z"/>
	<path class="st5" d="M826.4,555.7v-17.9h6.2l0.2,1.9c0.5-0.6,1-1,1.7-1.4c0.6-0.3,1.3-0.6,1.9-0.7c0.6-0.1,1.2-0.2,1.6-0.2
		c1.2,0,2.4,0.2,3.3,0.7c1,0.5,1.8,1.2,2.3,2.3c0.6,1,0.8,2.4,0.8,4.1v11.2h-6.4V546c0-0.9-0.2-1.6-0.5-2.1s-1-0.8-1.8-0.8
		c-1.1,0-1.9,0.3-2.3,1c-0.4,0.7-0.6,1.4-0.6,2.1v9.5H826.4z"/>
	<path class="st5" d="M860.5,555.7l-0.3-1.8c-0.6,0.8-1.4,1.4-2.3,1.8c-0.9,0.4-1.8,0.6-2.6,0.6c-0.9,0-1.8-0.2-2.6-0.4
		s-1.5-0.7-2.2-1.2c-0.9-0.8-1.7-1.9-2.2-3.2c-0.5-1.3-0.8-2.8-0.8-4.4c0-1.8,0.4-3.4,1.2-4.8c0.8-1.4,1.9-2.5,3.4-3.4
		c1.4-0.8,3.1-1.2,5-1.2c0.6,0,1.1,0,1.6,0.1c0.5,0.1,0.9,0.2,1.2,0.3v-7.5h6.4v25.3L860.5,555.7L860.5,555.7z M859.9,547.5v-4.3
		c-0.6-0.2-1.3-0.3-2.1-0.3c-1.1,0-2.1,0.4-2.8,1.1s-1.1,1.8-1.1,3.2c0,1.1,0.3,1.9,0.8,2.6c0.5,0.7,1.3,1,2.4,1
		c0.9,0,1.6-0.3,2.1-0.8C859.7,549.3,859.9,548.5,859.9,547.5z"/>
</g>
<g>
	<rect x="1081.7" y="531.6" class="st4" width="130.2" height="49"/>
	<path class="st5" d="M1081.9,553.8l4.1-4.9c0.7,0.7,1.6,1.4,2.8,1.9s2.4,0.9,3.7,0.9c0.7,0,1.3-0.1,2-0.4c0.6-0.3,0.9-0.8,0.9-1.6
		c0-0.7-0.3-1.2-1-1.7c-0.7-0.4-1.7-0.9-2.9-1.3l-1.4-0.5c-1-0.3-2.1-0.8-3.1-1.4c-1-0.6-1.9-1.4-2.6-2.3s-1-2.1-1-3.5
		c0-1.6,0.4-3,1.1-4.2s1.9-2.2,3.3-2.9c1.5-0.7,3.2-1.1,5.4-1.1c1.7,0,3.1,0.2,4.3,0.6s2.2,0.8,3.1,1.3s1.4,1,1.8,1.4l-3.4,4.3
		c-0.9-0.7-1.8-1.2-2.8-1.6c-1-0.4-1.9-0.6-3-0.6c-0.7,0-1.3,0.2-1.9,0.4s-0.9,0.8-0.9,1.5c0,0.8,0.3,1.4,1.1,1.7
		c0.7,0.3,1.6,0.7,2.7,1.1l1.2,0.4c0.9,0.2,1.7,0.6,2.6,1c0.9,0.4,1.7,0.9,2.4,1.5s1.3,1.4,1.8,2.3c0.4,0.9,0.7,2.1,0.7,3.4
		c0,1.5-0.5,2.9-1.4,4.1c-0.9,1.2-2.2,2.2-3.7,2.8c-1.6,0.7-3.3,1-5.2,1c-2.5,0-4.7-0.3-6.4-1S1083.1,554.9,1081.9,553.8z"/>
	<path class="st5" d="M1106.7,549.4V544h-2.6V539h2.6v-5.9h6.4v5.9h4.4v4.9h-4.4v6.3c0,1.5,0.7,2.2,2.1,2.2c0.4,0,0.8-0.1,1.2-0.3
		c0.4-0.2,0.8-0.4,1.1-0.6l2.5,4c-0.8,0.6-1.7,1.1-2.7,1.5s-2,0.5-3,0.5c-1.9,0-3.4-0.3-4.5-1.1c-1.1-0.7-1.9-1.7-2.3-2.9
		S1106.7,551,1106.7,549.4z"/>
	<path class="st5" d="M1122.1,556.9V539h6.2l0.2,2.2c0.5-0.7,1.1-1.3,1.9-1.8c0.8-0.5,1.7-0.7,2.7-0.7c0.5,0,0.9,0,1.3,0.1
		s0.7,0.1,1,0.2l-0.8,5.5c-0.6-0.2-1.2-0.2-1.9-0.2c-2.8,0-4.2,1.5-4.2,4.6v8H1122.1z"/>
	<path class="st5" d="M1137.3,536.6v-5h6.9v5H1137.3z M1137.6,556.9V539h6.4v17.9H1137.6z"/>
	<path class="st5" d="M1147.8,556.9V539h6.2l0.2,1.9c0.5-0.6,1-1,1.7-1.4c0.6-0.3,1.3-0.6,1.9-0.7c0.6-0.1,1.2-0.2,1.6-0.2
		c1.2,0,2.4,0.2,3.3,0.7c1,0.5,1.8,1.2,2.3,2.3c0.6,1,0.8,2.4,0.8,4.1v11.2h-6.4v-9.7c0-0.9-0.2-1.6-0.6-2.1s-1-0.8-1.8-0.8
		c-1.1,0-1.9,0.3-2.3,1s-0.6,1.4-0.6,2.1v9.5H1147.8z"/>
	<path class="st5" d="M1170.1,563l2.4-4.5c0.7,0.4,1.4,0.7,2.2,1c0.8,0.2,1.6,0.4,2.4,0.4c1.3,0,2.3-0.3,2.9-0.9c0.7-0.6,1-1.6,1-3
		v-0.6c-0.6,0.5-1.2,0.9-2,1c-0.8,0.2-1.5,0.2-2.3,0.2c-2.5,0-4.5-0.8-5.9-2.3s-2.1-3.6-2.1-6c0-2.1,0.4-3.8,1.3-5.3
		s2.1-2.5,3.7-3.3c1.6-0.8,3.4-1.1,5.4-1.1c1.4,0,2.8,0.1,4.2,0.4s2.7,0.6,4,1.1v15.3c0,3.4-0.8,5.8-2.5,7.3
		c-1.7,1.5-4.1,2.2-7.2,2.2c-1.3,0-2.6-0.1-3.9-0.4C1172.5,564.3,1171.3,563.8,1170.1,563z M1181.1,548.6v-4.4
		c-0.7-0.2-1.4-0.3-2.1-0.3c-1.3,0-2.3,0.4-2.9,1.2c-0.6,0.8-0.9,1.8-0.9,3c0,1.2,0.3,2,0.8,2.6c0.6,0.6,1.3,0.9,2.2,0.9
		c0.8,0,1.5-0.2,2-0.7C1180.8,550.4,1181.1,549.7,1181.1,548.6z"/>
</g>
<g>
	<rect x="1366" y="532.6" class="st4" width="132.5" height="49"/>
	<path class="st5" d="M1368.3,557.9v-25.3h10.5c2.7,0,4.9,0.7,6.5,2.1s2.5,3.5,2.5,6.2c0,1.7-0.4,3.1-1.1,4.3s-1.7,2.2-2.9,3
		l5.4,9.7h-7.2l-4.3-8.6h-2.8v8.6L1368.3,557.9L1368.3,557.9z M1374.8,544h3.3c0.9,0,1.6-0.3,2.2-0.8c0.6-0.5,0.8-1.3,0.8-2.2
		c0-1-0.3-1.7-0.8-2.3c-0.5-0.6-1.3-0.8-2.2-0.8h-3.2L1374.8,544L1374.8,544z"/>
	<path class="st5" d="M1405.6,552.4l2,4.2c-0.6,0.3-1.5,0.7-2.8,1.2c-1.3,0.5-2.8,0.7-4.6,0.7c-3.3,0-5.8-0.8-7.5-2.5s-2.6-4-2.6-7
		c0-1.2,0.2-2.4,0.6-3.5s1-2.2,1.7-3.1c0.8-0.9,1.8-1.7,2.9-2.2c1.2-0.5,2.6-0.8,4.1-0.8c1.7,0,3.1,0.4,4.5,1.1s2.4,1.9,3.2,3.4
		c0.8,1.5,1.2,3.4,1.2,5.7v1.2h-12.1c0,0.4,0.2,0.8,0.4,1.3s0.7,0.8,1.4,1.1s1.5,0.5,2.6,0.5c1.1,0,2.1-0.1,3-0.4
		C1404.5,553,1405.2,552.7,1405.6,552.4z M1396.1,547.1h6.3c0-0.4-0.1-0.8-0.3-1.2s-0.6-0.8-1-1.1c-0.5-0.3-1.1-0.5-1.8-0.5
		c-0.7,0-1.3,0.2-1.8,0.5s-0.8,0.7-1,1.1C1396.2,546.3,1396.1,546.7,1396.1,547.1z"/>
	<path class="st5" d="M1423.6,551.3l3.8,4.3c-0.7,0.7-1.6,1.4-2.9,2c-1.2,0.6-2.8,0.9-4.5,0.9c-1.8,0-3.4-0.4-4.9-1.2
		c-1.5-0.8-2.6-1.9-3.5-3.4s-1.3-3.1-1.3-5c0-1.8,0.4-3.4,1.3-4.8c0.9-1.4,2-2.6,3.5-3.4s3.1-1.2,4.9-1.2c1.8,0,3.3,0.3,4.5,0.8
		s2.2,1.3,2.9,2.1l-3.8,4.3c-0.3-0.3-0.7-0.7-1.2-1.1s-1.3-0.6-2.3-0.6c-0.9,0-1.7,0.3-2.4,1c-0.7,0.7-1,1.6-1,2.8
		c0,1.2,0.3,2.1,1,2.8c0.7,0.7,1.5,1.1,2.4,1.1c1,0,1.8-0.2,2.3-0.6S1423.3,551.5,1423.6,551.3z"/>
	<path class="st5" d="M1443.7,552.4l2,4.2c-0.6,0.3-1.5,0.7-2.8,1.2c-1.3,0.5-2.8,0.7-4.6,0.7c-3.3,0-5.8-0.8-7.5-2.5s-2.6-4-2.6-7
		c0-1.2,0.2-2.4,0.6-3.5s1-2.2,1.7-3.1c0.8-0.9,1.8-1.7,2.9-2.2c1.2-0.5,2.6-0.8,4.1-0.8c1.7,0,3.1,0.4,4.5,1.1s2.4,1.9,3.2,3.4
		c0.8,1.5,1.2,3.4,1.2,5.7v1.2h-12.1c0,0.4,0.2,0.8,0.4,1.3s0.7,0.8,1.4,1.1s1.5,0.5,2.6,0.5c1.1,0,2.1-0.1,3-0.4
		C1442.5,553,1443.2,552.7,1443.7,552.4z M1434.2,547.1h6.3c0-0.4-0.1-0.8-0.3-1.2s-0.6-0.8-1-1.1c-0.5-0.3-1.1-0.5-1.8-0.5
		c-0.7,0-1.3,0.2-1.8,0.5s-0.8,0.7-1,1.1C1434.3,546.3,1434.2,546.7,1434.2,547.1z"/>
	<path class="st5" d="M1448.9,537.6v-5h6.9v5H1448.9z M1449.2,557.9V540h6.4v17.9H1449.2z"/>
	<path class="st5" d="M1465.3,557.9l-7.5-17.9h7l3.7,10.7l3.4-10.7h7l-7.8,17.9H1465.3z"/>
	<path class="st5" d="M1494.6,552.4l2,4.2c-0.6,0.3-1.5,0.7-2.8,1.2c-1.3,0.5-2.8,0.7-4.6,0.7c-3.3,0-5.8-0.8-7.5-2.5s-2.6-4-2.6-7
		c0-1.2,0.2-2.4,0.6-3.5s1-2.2,1.7-3.1c0.8-0.9,1.8-1.7,2.9-2.2c1.2-0.5,2.6-0.8,4.1-0.8c1.7,0,3.1,0.4,4.5,1.1s2.4,1.9,3.2,3.4
		c0.8,1.5,1.2,3.4,1.2,5.7v1.2H1485c0,0.4,0.2,0.8,0.4,1.3s0.7,0.8,1.4,1.1s1.5,0.5,2.6,0.5c1.1,0,2.1-0.1,3-0.4
		C1493.4,553,1494.1,552.7,1494.6,552.4z M1485.1,547.1h6.3c0-0.4-0.1-0.8-0.3-1.2s-0.6-0.8-1-1.1c-0.5-0.3-1.1-0.5-1.8-0.5
		c-0.7,0-1.3,0.2-1.8,0.5s-0.8,0.7-1,1.1C1485.2,546.3,1485.1,546.7,1485.1,547.1z"/>
</g>
<image style="overflow:visible;enable-background:new    ;" width="382" height="478" xlink:href="CA3905E8.png"  transform="matrix(0.5838 0 0 0.5838 675 202.2919)">
</image>
<image style="overflow:visible;enable-background:new    ;" width="640" height="490" xlink:href="CA3905E9.png"  transform="matrix(0.3508 0 0 0.3508 983 310)">
</image>
<image style="overflow:visible;enable-background:new    ;" width="820" height="743" xlink:href="CA3905E8.jpg"  transform="matrix(0.2805 0 0 0.2805 1278 274)">
</image>
<g>
	<polyline class="st8" points="662.4,543.3 619.5,497 619.5,583 662.4,543.3 	"/>
	<path class="st8" d="M412.1,583H620v-86H413.9c-24.2,0-43.9,19.7-43.9,43.9l0,0C370,564.2,388.8,583,412.1,583z"/>
	<circle class="st5" cx="416.5" cy="539.5" r="27.5"/>
	<circle class="st8" cx="416.6" cy="539.6" r="23.4"/>
	<g>
		<rect x="402.9" y="525" class="st4" width="30.1" height="34"/>
		<path class="st5" d="M403,550.3l9.3-25.3h7.7l9,25.3h-7.3l-1.6-5.2h-8.5l-1.7,5.2H403z M413,540.2h5.7l-2.8-9.3L413,540.2z"/>
	</g>
	<g>
		<rect x="477.8" y="529.2" class="st4" width="130.2" height="49"/>
		<path class="st5" d="M480.1,554.5v-25.3h10.3c2.7,0,4.9,0.7,6.5,2.2c1.6,1.4,2.5,3.5,2.5,6.2c0,1.7-0.4,3.2-1.1,4.5
			s-1.8,2.3-3.1,3c-1.3,0.7-2.8,1-4.6,1h-4v8.4L480.1,554.5L480.1,554.5z M486.7,540.8h3.2c0.9,0,1.6-0.3,2.2-0.9
			c0.5-0.6,0.8-1.3,0.8-2.2c0-1-0.2-1.7-0.8-2.3c-0.5-0.6-1.2-0.9-2.2-0.9h-3.1L486.7,540.8L486.7,540.8z"/>
		<path class="st5" d="M501.6,534.2v-5h7v5H501.6z M501.9,554.5v-17.9h6.4v17.9H501.9z"/>
		<path class="st5" d="M524.7,547.9l3.8,4.3c-0.7,0.7-1.6,1.4-2.9,2c-1.2,0.6-2.8,0.9-4.5,0.9c-1.8,0-3.4-0.4-4.9-1.2
			c-1.5-0.8-2.6-1.9-3.5-3.4s-1.3-3.1-1.3-5c0-1.8,0.4-3.4,1.3-4.8c0.9-1.4,2-2.6,3.5-3.4c1.5-0.8,3.1-1.2,4.9-1.2
			c1.8,0,3.3,0.3,4.5,0.8c1.2,0.6,2.2,1.3,2.9,2.1l-3.8,4.3c-0.3-0.3-0.7-0.7-1.2-1.1s-1.3-0.6-2.3-0.6c-0.9,0-1.7,0.3-2.4,1
			s-1,1.6-1,2.8c0,1.2,0.3,2.1,1,2.8c0.7,0.7,1.5,1.1,2.4,1.1c1,0,1.8-0.2,2.3-0.6C524,548.5,524.5,548.1,524.7,547.9z"/>
		<path class="st5" d="M530.5,554.5v-25.3h6.4v12.5l4.5-5h7.1l-6.1,6.6l7.1,11.3h-7.4l-4-6.8l-1.2,1.3v5.5L530.5,554.5L530.5,554.5z
			"/>
		<path class="st5" d="M550.7,547.9v-11.3h6.4v9.8c0,0.9,0.2,1.6,0.5,2.1s1,0.8,2,0.8c1,0,1.7-0.3,2.1-1s0.6-1.4,0.6-2.1v-9.6h6.4
			v17.9h-6.2l-0.2-1.8c-0.5,0.6-1,1-1.7,1.4c-0.7,0.3-1.3,0.6-1.9,0.7c-0.6,0.1-1.2,0.2-1.6,0.2c-1.8,0-3.4-0.5-4.6-1.7
			C551.3,552.2,550.7,550.5,550.7,547.9z"/>
		<path class="st5" d="M572.5,562.1v-25.5h6.2l0.3,1.9c0.5-0.7,1-1.1,1.5-1.4s1.1-0.5,1.7-0.6s1-0.2,1.3-0.2c1.7,0,3.1,0.4,4.2,1.2
			c1.2,0.8,2,1.9,2.6,3.3c0.6,1.4,0.9,2.8,0.9,4.3c0,2.1-0.4,3.8-1.2,5.3c-0.8,1.5-2,2.6-3.4,3.4c-1.4,0.8-3,1.2-4.8,1.2
			c-0.6,0-1.1,0-1.6-0.2c-0.5-0.1-0.9-0.2-1.2-0.3v7.5L572.5,562.1L572.5,562.1z M578.9,545.2v4.2c0.3,0.1,0.6,0.2,1,0.3
			s0.8,0.1,1.3,0.1c1,0,1.9-0.3,2.5-1s1-1.8,1-3.3c0-0.6-0.1-1.1-0.3-1.7s-0.5-1-0.9-1.4c-0.4-0.4-0.9-0.6-1.6-0.6
			c-1.1,0-1.8,0.3-2.3,1C579.2,543.4,578.9,544.3,578.9,545.2z"/>
	</g>
	
		<image style="overflow:visible;enable-background:new    ;" width="455" height="461" xlink:href="CA3905EA.png"  transform="matrix(0.4252 0 0 0.4252 411.9952 289.5984)">
	</image>
	<g>
		<rect x="393.3" y="609.8" class="st4" width="244.3" height="157"/>
		<path d="M400.2,628.5v-8.3l-6.4-10.3h3l4.9,8l4.9-8h2.9l-6.5,10.3v8.3H400.2z"/>
		<path d="M414.6,628.9c-1.3,0-2.5-0.3-3.6-0.9c-1-0.6-1.9-1.5-2.5-2.5c-0.6-1-0.9-2.2-0.9-3.5c0-1.3,0.3-2.4,0.9-3.5
			s1.4-1.9,2.5-2.5c1-0.6,2.2-0.9,3.6-0.9s2.5,0.3,3.5,0.9c1,0.6,1.9,1.5,2.5,2.5s0.9,2.2,0.9,3.5c0,1.2-0.3,2.4-0.9,3.5
			s-1.4,1.9-2.5,2.5C417.1,628.6,416,628.9,414.6,628.9z M414.6,626.7c0.9,0,1.7-0.2,2.3-0.7c0.6-0.5,1.1-1,1.5-1.8
			c0.4-0.7,0.5-1.5,0.5-2.3c0-0.8-0.2-1.5-0.5-2.3c-0.4-0.7-0.8-1.3-1.5-1.8c-0.6-0.5-1.4-0.7-2.3-0.7s-1.7,0.2-2.3,0.7
			s-1.1,1-1.5,1.8c-0.4,0.7-0.5,1.5-0.5,2.3c0,0.8,0.2,1.5,0.5,2.2c0.4,0.7,0.9,1.3,1.5,1.8C413,626.5,413.8,626.7,414.6,626.7z"/>
		<path d="M424.3,623.3v-7.8h2.5v7.6c0,1.2,0.2,2.1,0.8,2.7c0.5,0.6,1.2,0.8,2.2,0.8c1,0,1.7-0.2,2.3-0.8s0.9-1.1,1.2-1.9
			s0.4-1.6,0.4-2.4v-6h2.5v11.7c0,0.1,0,0.2,0,0.5s0,0.5,0,0.8h-2.4l-0.1-1.9c-0.2,0.3-0.5,0.6-0.9,1s-0.8,0.6-1.4,0.9
			s-1.3,0.4-2.1,0.4c-1.7,0-3-0.5-3.8-1.5C424.7,626.3,424.3,625,424.3,623.3z"/>
		<path d="M442.1,628.5h-2.5v-11.8c0-0.1,0-0.3,0-0.5s0-0.4,0-0.8h2.4l0.1,2.1c0.2-0.3,0.5-0.6,0.9-1c0.4-0.3,0.8-0.7,1.4-0.9
			c0.6-0.3,1.2-0.4,2-0.4c0.3,0,0.5,0,0.8,0.1c0.2,0,0.5,0.1,0.7,0.2l-0.6,2.3c-0.3-0.1-0.8-0.2-1.3-0.2c-0.7,0-1.4,0.2-1.9,0.5
			c-0.6,0.4-1,0.8-1.4,1.4s-0.5,1.3-0.5,2V628.5z"/>
		<path d="M457.4,628.5h-2.5v-11.8c0-0.1,0-0.3,0-0.5s0-0.4,0-0.8h2.4l0.1,2.1c0.2-0.3,0.5-0.6,0.9-1c0.4-0.3,0.8-0.7,1.4-0.9
			c0.6-0.3,1.2-0.4,2-0.4c0.3,0,0.5,0,0.8,0.1c0.2,0,0.5,0.1,0.7,0.2l-0.6,2.3c-0.3-0.1-0.8-0.2-1.3-0.2c-0.7,0-1.4,0.2-1.9,0.5
			c-0.6,0.4-1,0.8-1.4,1.4s-0.5,1.3-0.5,2V628.5z"/>
		<path d="M472.8,628.5l-0.1-1.6c-0.5,0.6-1.1,1.1-1.9,1.4s-1.6,0.5-2.5,0.5c-0.7,0-1.4-0.1-2.1-0.4c-0.7-0.3-1.3-0.7-1.7-1.3
			s-0.7-1.4-0.7-2.4c0-1.4,0.5-2.5,1.5-3.4c1-0.8,2.4-1.3,4.2-1.3c0.4,0,0.8,0,1.3,0c0.4,0,0.8,0.1,1.2,0.1c0.4,0,0.6,0,0.7,0.1
			v-0.5c0-1-0.3-1.7-0.9-2.1s-1.4-0.6-2.4-0.6c-1,0-1.8,0.1-2.3,0.4c-0.6,0.3-1.1,0.5-1.5,0.8l-1.2-1.7c0.5-0.4,1.1-0.7,1.9-1.1
			s1.9-0.5,3.3-0.5c1.7,0,3,0.4,4,1.2s1.5,2,1.5,3.5v7.6c0,0.1,0,0.3,0,0.5s0,0.4,0,0.7L472.8,628.5L472.8,628.5z M472.7,623.8v-1.5
			c-0.1,0-0.3-0.1-0.6-0.1c-0.3,0-0.7-0.1-1.1-0.1c-0.4,0-0.8,0-1.2,0c-0.9,0-1.6,0.1-2.1,0.4s-0.8,0.6-1,1
			c-0.2,0.4-0.3,0.8-0.3,1.2c0,0.7,0.2,1.2,0.7,1.6c0.5,0.4,1.2,0.6,2,0.6c0.6,0,1.3-0.1,1.8-0.4s1-0.7,1.3-1.1
			C472.5,624.9,472.7,624.4,472.7,623.8z"/>
		<path d="M488.3,625.1l1.5,1.6c-0.6,0.7-1.3,1.2-2.2,1.6c-0.9,0.4-1.8,0.6-2.9,0.6c-1.4,0-2.6-0.3-3.6-0.9c-1-0.6-1.8-1.4-2.4-2.5
			s-0.8-2.2-0.8-3.6c0-1.3,0.3-2.4,0.9-3.5s1.4-1.9,2.4-2.5c1-0.6,2.2-0.9,3.5-0.9c1.1,0,2.1,0.2,2.9,0.6s1.6,0.9,2.2,1.6l-1.6,1.6
			c-0.4-0.5-0.9-0.9-1.4-1.2s-1.2-0.4-2-0.4c-0.9,0-1.7,0.2-2.3,0.7c-0.6,0.4-1.1,1-1.5,1.7c-0.3,0.7-0.5,1.5-0.5,2.3
			c0,0.8,0.2,1.6,0.5,2.3c0.4,0.7,0.8,1.3,1.5,1.8s1.4,0.7,2.3,0.7c0.8,0,1.5-0.1,2.1-0.4S488,625.6,488.3,625.1z"/>
		<path d="M500.9,634.1v-6.9c-0.1,0.1-0.3,0.3-0.6,0.6s-0.7,0.5-1.3,0.8c-0.5,0.2-1.2,0.3-2,0.3c-1.3,0-2.5-0.3-3.4-0.9
			c-0.9-0.6-1.6-1.4-2.1-2.5s-0.7-2.2-0.7-3.4c0-1.3,0.3-2.5,0.9-3.6c0.6-1,1.5-1.9,2.6-2.5s2.4-0.9,3.8-0.9c1,0,2,0.1,2.9,0.3
			c0.9,0.2,1.6,0.4,2.2,0.6v18L500.9,634.1L500.9,634.1z M500.9,623.3v-5.5c-0.2-0.1-0.5-0.1-0.9-0.2s-1-0.2-1.8-0.2
			c-1.5,0-2.6,0.4-3.5,1.3c-0.9,0.9-1.3,2-1.3,3.4c0,0.8,0.1,1.5,0.4,2.2s0.7,1.3,1.2,1.7s1.3,0.7,2.2,0.7c1.3,0,2.2-0.3,2.8-1
			S500.9,624.2,500.9,623.3z"/>
		<path d="M506.9,623.3v-7.8h2.5v7.6c0,1.2,0.2,2.1,0.8,2.7c0.5,0.6,1.2,0.8,2.2,0.8c1,0,1.7-0.2,2.3-0.8s0.9-1.1,1.2-1.9
			s0.3-1.6,0.3-2.4v-6h2.5v11.7c0,0.1,0,0.2,0,0.5s0,0.5,0,0.8h-2.4l-0.1-1.9c-0.2,0.3-0.5,0.6-0.9,1s-0.8,0.6-1.4,0.9
			c-0.6,0.2-1.3,0.4-2.1,0.4c-1.7,0-3-0.5-3.8-1.5C507.2,626.3,506.9,625,506.9,623.3z"/>
		<path d="M532.5,625.1l1.4,1.5c-0.2,0.2-0.5,0.5-1,0.9s-1.1,0.7-1.9,1s-1.7,0.4-2.8,0.4c-1.3,0-2.5-0.3-3.6-0.9
			c-1-0.6-1.8-1.4-2.4-2.5s-0.8-2.3-0.8-3.7c0-1.3,0.3-2.4,0.8-3.4c0.5-1,1.3-1.8,2.3-2.5s2.1-0.9,3.4-0.9c1.5,0,2.7,0.4,3.7,1.1
			c0.9,0.7,1.6,1.7,2,2.8c0.4,1.2,0.6,2.4,0.6,3.7H524c0,0.8,0.2,1.5,0.6,2.1c0.4,0.6,0.9,1.1,1.5,1.4s1.3,0.5,2.1,0.5
			c1.1,0,2-0.2,2.7-0.6C531.8,625.8,532.3,625.5,532.5,625.1z M524,620.9h7.7c-0.1-1-0.4-1.9-1.1-2.6s-1.5-1.1-2.7-1.1
			c-0.8,0-1.5,0.2-2.1,0.5c-0.6,0.3-1,0.8-1.3,1.4S524.1,620.3,524,620.9z"/>
		<path d="M538.2,624.3v-6.7h-2.3v-2.1h2.3v-4.3h2.5v4.3h3.8v2.1h-3.8v6.4c0,1,0.2,1.8,0.5,2.2c0.3,0.4,0.8,0.6,1.4,0.6
			c0.5,0,0.9-0.1,1.2-0.2c0.3-0.2,0.6-0.4,0.9-0.7l1.2,1.5c-0.5,0.5-1.1,0.9-1.7,1.1s-1.2,0.3-2,0.3c-1.4,0-2.4-0.4-3-1.1
			C538.6,627,538.2,625.8,538.2,624.3z"/>
		<path d="M553.2,631.1h-2.5c-0.3-0.6-0.7-1.4-1.2-2.4s-0.8-2.3-1.2-3.8s-0.5-3.1-0.5-4.9c0-1.8,0.2-3.5,0.5-5s0.7-2.8,1.2-3.8
			s0.8-1.9,1.2-2.4h2.5c-0.4,0.7-0.8,1.6-1.2,2.7s-0.7,2.4-1,3.8s-0.4,3-0.4,4.6c0,1.6,0.1,3.2,0.4,4.6s0.6,2.7,1,3.8
			C552.4,629.5,552.8,630.4,553.2,631.1z"/>
		<path d="M555.3,626.9l1.5-1.7c0.5,0.5,1,0.8,1.7,1.1c0.7,0.3,1.4,0.4,2.3,0.4c0.8,0,1.5-0.1,2.1-0.4s0.8-0.7,0.8-1.3
			c0-0.4-0.1-0.7-0.3-1c-0.2-0.2-0.6-0.5-1.2-0.7c-0.5-0.2-1.3-0.4-2.2-0.6c-0.7-0.2-1.3-0.4-2-0.7s-1.2-0.7-1.6-1.2
			c-0.4-0.5-0.6-1.2-0.6-2c0-0.8,0.2-1.5,0.7-2.1s1.1-1,1.9-1.3c0.8-0.3,1.6-0.4,2.5-0.4c1.1,0,2,0.2,2.9,0.4
			c0.8,0.3,1.5,0.7,2.1,1.2l-1.4,1.7c-0.4-0.3-0.9-0.7-1.5-0.9c-0.6-0.2-1.3-0.4-2.1-0.4c-0.8,0-1.5,0.1-1.9,0.4s-0.7,0.7-0.7,1.3
			c0,0.6,0.3,1,1,1.2s1.5,0.5,2.5,0.8c0.8,0.2,1.6,0.4,2.2,0.7s1.2,0.7,1.6,1.2c0.4,0.5,0.6,1.2,0.6,2c0,0.9-0.3,1.6-0.8,2.2
			c-0.5,0.6-1.2,1-2,1.3c-0.8,0.3-1.7,0.5-2.7,0.5C558.4,628.9,556.5,628.3,555.3,626.9z"/>
		<path d="M568.5,608.8h2.5c0.3,0.5,0.7,1.3,1.2,2.4c0.5,1.1,0.8,2.3,1.2,3.8s0.5,3.1,0.5,5s-0.2,3.5-0.5,5s-0.7,2.8-1.2,3.8
			c-0.5,1-0.8,1.9-1.2,2.4h-2.5c0.4-0.7,0.8-1.7,1.2-2.8s0.7-2.4,1-3.8s0.4-3,0.4-4.6s-0.1-3.2-0.4-4.6s-0.6-2.7-1-3.8
			C569.3,610.4,568.9,609.5,568.5,608.8z"/>
		<path d="M585.4,628.5l-4.4-13h2.8l2.9,9.9l3.1-9.9h2.2l3.1,10l2.9-10h2.6l-4.3,13h-2.5l-3-9.1l-3,9.1H585.4z"/>
		<path d="M602.5,613.2v-2.8h2.8v2.8H602.5z M602.7,628.5v-13h2.5v13H602.7z"/>
		<path d="M608.8,628.5v-18.7h2.5v18.7H608.8z"/>
		<path d="M614.7,628.5v-18.7h2.5v18.7H614.7z"/>
		<path d="M395.1,661.7v-18.2h2.5v7.1c0.3-0.3,0.7-0.7,1.4-1.1c0.7-0.4,1.5-0.6,2.6-0.6c1.3,0,2.4,0.3,3.3,0.9s1.5,1.4,2,2.4
			c0.5,1,0.7,2.2,0.7,3.4c0,1.4-0.3,2.6-0.9,3.6c-0.6,1.1-1.5,1.9-2.6,2.5s-2.4,0.9-3.8,0.9c-1.1,0-2-0.1-3-0.2
			C396.4,662.1,395.6,661.9,395.1,661.7z M397.6,654.8v5.2c0.3,0.1,0.6,0.2,1,0.2c0.4,0.1,1,0.1,1.7,0.1c1.4,0,2.6-0.5,3.5-1.3
			c0.9-0.9,1.3-2,1.3-3.4c0-0.8-0.1-1.5-0.4-2.2s-0.6-1.2-1.2-1.7c-0.5-0.4-1.3-0.6-2.2-0.6c-0.8,0-1.5,0.2-2,0.5
			c-0.5,0.3-1,0.8-1.2,1.4C397.7,653.5,397.6,654.1,397.6,654.8z"/>
		<path d="M420.9,658.7l1.4,1.5c-0.2,0.2-0.5,0.5-1,0.9c-0.5,0.4-1.1,0.7-1.9,1c-0.8,0.3-1.7,0.4-2.8,0.4c-1.3,0-2.5-0.3-3.6-0.9
			s-1.8-1.4-2.4-2.5s-0.9-2.3-0.9-3.7c0-1.3,0.3-2.4,0.8-3.4c0.5-1,1.3-1.8,2.3-2.5s2.1-0.9,3.4-0.9c1.5,0,2.7,0.4,3.7,1.1
			c0.9,0.7,1.6,1.7,2,2.8c0.4,1.2,0.6,2.4,0.6,3.7h-10.3c0,0.8,0.2,1.5,0.6,2.1c0.4,0.6,0.9,1.1,1.5,1.4c0.6,0.3,1.3,0.5,2.1,0.5
			c1.1,0,2-0.2,2.7-0.6C420.1,659.4,420.6,659.1,420.9,658.7z M412.4,654.5h7.7c-0.1-1-0.4-1.9-1.1-2.6s-1.5-1.1-2.7-1.1
			c-0.8,0-1.5,0.2-2.1,0.5c-0.6,0.3-1,0.8-1.3,1.4S412.4,653.9,412.4,654.5z"/>
		<path d="M433,667.7h-2.5v-17.3c0-0.2,0-0.3,0-0.5s0-0.5,0-0.8h2.4l0.1,1.8c0.2-0.2,0.5-0.5,0.8-0.8c0.4-0.3,0.8-0.6,1.4-0.9
			s1.3-0.4,2.2-0.4c1.3,0,2.5,0.3,3.3,1s1.5,1.5,1.9,2.5c0.4,1,0.6,2.2,0.6,3.4c0,1.2-0.2,2.2-0.6,3.1s-0.9,1.6-1.6,2.1
			s-1.4,1-2.2,1.2s-1.6,0.4-2.3,0.4c-0.9,0-1.6-0.1-2.1-0.3c-0.5-0.2-1-0.4-1.5-0.6L433,667.7L433,667.7z M433,656v3.3
			c0.3,0.2,0.7,0.5,1.3,0.7s1.3,0.3,2.1,0.3c0.9,0,1.6-0.2,2.2-0.6s1.1-1,1.5-1.7c0.4-0.7,0.5-1.5,0.5-2.4c0-0.8-0.1-1.6-0.4-2.3
			s-0.7-1.3-1.2-1.7s-1.3-0.6-2.3-0.6c-0.9,0-1.6,0.2-2.3,0.8c-0.6,0.5-1.1,1.2-1.4,2.2c-0.1,0.3-0.1,0.6-0.1,1
			C433,655.2,433,655.6,433,656z"/>
		<path d="M446.1,646.8V644h2.8v2.8H446.1z M446.2,662.1v-13h2.5v13H446.2z"/>
		<path d="M462.1,658.7l1.5,1.6c-0.6,0.7-1.3,1.2-2.2,1.6c-0.9,0.4-1.8,0.6-2.9,0.6c-1.4,0-2.6-0.3-3.6-0.9c-1-0.6-1.8-1.4-2.4-2.5
			s-0.8-2.2-0.8-3.6c0-1.3,0.3-2.4,0.9-3.5s1.4-1.9,2.4-2.5c1-0.6,2.2-0.9,3.5-0.9c1.1,0,2.1,0.2,2.9,0.6s1.6,0.9,2.2,1.6l-1.6,1.6
			c-0.4-0.5-0.9-0.9-1.4-1.2s-1.2-0.4-2-0.4c-0.9,0-1.7,0.2-2.3,0.7c-0.6,0.4-1.1,1-1.5,1.7c-0.3,0.7-0.5,1.5-0.5,2.3
			c0,0.8,0.2,1.6,0.5,2.3c0.4,0.7,0.8,1.3,1.5,1.8s1.4,0.7,2.3,0.7c0.8,0,1.5-0.1,2.1-0.4S461.7,659.2,462.1,658.7z"/>
		<path d="M466.1,662.1v-18.7h2.5v11l5.5-5.3h3l-4.9,4.8l5.7,8.2h-3l-4.4-6.5l-1.8,1.7v4.8H466.1z"/>
		<path d="M489.2,658.7l1.4,1.5c-0.2,0.2-0.5,0.5-1,0.9c-0.5,0.4-1.1,0.7-1.9,1c-0.8,0.3-1.7,0.4-2.8,0.4c-1.3,0-2.5-0.3-3.6-0.9
			s-1.8-1.4-2.4-2.5s-0.9-2.3-0.9-3.7c0-1.3,0.3-2.4,0.8-3.4c0.5-1,1.3-1.8,2.3-2.5s2.1-0.9,3.4-0.9c1.5,0,2.7,0.4,3.7,1.1
			c0.9,0.7,1.6,1.7,2,2.8c0.4,1.2,0.6,2.4,0.6,3.7h-10.3c0,0.8,0.2,1.5,0.6,2.1c0.4,0.6,0.9,1.1,1.5,1.4c0.6,0.3,1.3,0.5,2.1,0.5
			c1.1,0,2-0.2,2.7-0.6C488.4,659.4,488.9,659.1,489.2,658.7z M480.6,654.5h7.7c-0.1-1-0.4-1.9-1.1-2.6s-1.5-1.1-2.7-1.1
			c-0.8,0-1.5,0.2-2.1,0.5c-0.6,0.3-1,0.8-1.3,1.4S480.7,653.9,480.6,654.5z"/>
		<path d="M503.2,662.1l-0.1-1.7c-0.1,0.2-0.4,0.4-0.7,0.7c-0.4,0.3-0.8,0.6-1.4,0.9c-0.6,0.3-1.3,0.4-2.1,0.4c-1.1,0-2.1-0.3-3-0.8
			s-1.6-1.3-2.1-2.3s-0.8-2.2-0.8-3.6c0-1.2,0.2-2.3,0.6-3.2s1-1.6,1.6-2.2s1.4-1,2.2-1.2s1.5-0.4,2.2-0.4c0.7,0,1.3,0.1,1.8,0.2
			c0.5,0.2,1,0.3,1.5,0.6v-6.2h2.5v17.4c0,0.1,0,0.2,0,0.5s0,0.5,0,0.8L503.2,662.1L503.2,662.1z M503.1,656.6V652
			c-0.3-0.3-0.8-0.5-1.3-0.7c-0.5-0.2-1.2-0.3-1.9-0.3c-1.2,0-2.2,0.4-3,1.3s-1.2,2-1.2,3.5c0,0.8,0.1,1.6,0.4,2.3s0.7,1.2,1.2,1.6
			s1.3,0.6,2.1,0.6c0.9,0,1.6-0.2,2.1-0.6s0.9-0.9,1.2-1.5C503,657.7,503.1,657.1,503.1,656.6z"/>
		<path d="M514.1,656.9v-7.8h2.5v7.6c0,1.2,0.2,2.1,0.8,2.7c0.5,0.6,1.2,0.8,2.2,0.8c1,0,1.7-0.2,2.3-0.8s0.9-1.1,1.2-1.9
			s0.3-1.6,0.3-2.4v-6h2.5v11.7c0,0.1,0,0.2,0,0.5s0,0.5,0,0.8h-2.4l-0.1-1.9c-0.2,0.3-0.5,0.6-0.9,1s-0.8,0.6-1.4,0.9
			c-0.6,0.2-1.3,0.4-2.1,0.4c-1.7,0-3-0.5-3.8-1.5C514.5,659.9,514.1,658.6,514.1,656.9z"/>
		<path d="M531.8,667.7h-2.5v-17.3c0-0.2,0-0.3,0-0.5s0-0.5,0-0.8h2.4l0.1,1.8c0.2-0.2,0.5-0.5,0.8-0.8c0.4-0.3,0.8-0.6,1.4-0.9
			s1.3-0.4,2.2-0.4c1.3,0,2.5,0.3,3.3,1s1.5,1.5,1.9,2.5c0.4,1,0.6,2.2,0.6,3.4c0,1.2-0.2,2.2-0.6,3.1s-0.9,1.6-1.6,2.1
			s-1.4,1-2.2,1.2s-1.6,0.4-2.3,0.4c-0.9,0-1.6-0.1-2.1-0.3c-0.5-0.2-1-0.4-1.5-0.6L531.8,667.7L531.8,667.7z M531.8,656v3.3
			c0.3,0.2,0.7,0.5,1.3,0.7s1.3,0.3,2.1,0.3c0.9,0,1.6-0.2,2.2-0.6s1.2-1,1.5-1.7c0.4-0.7,0.5-1.5,0.5-2.4c0-0.8-0.1-1.6-0.4-2.3
			s-0.7-1.3-1.2-1.7s-1.3-0.6-2.3-0.6c-0.9,0-1.6,0.2-2.3,0.8c-0.6,0.5-1.1,1.2-1.4,2.2c-0.1,0.3-0.1,0.6-0.2,1
			C531.9,655.2,531.8,655.6,531.8,656z"/>
		<path d="M550,661.7v-18.2h2.5v7.1c0.3-0.3,0.7-0.7,1.4-1.1c0.7-0.4,1.5-0.6,2.6-0.6c1.3,0,2.4,0.3,3.3,0.9s1.5,1.4,2,2.4
			c0.5,1,0.7,2.2,0.7,3.4c0,1.4-0.3,2.6-0.9,3.6c-0.6,1.1-1.5,1.9-2.6,2.5s-2.4,0.9-3.8,0.9c-1.1,0-2-0.1-3-0.2
			C551.3,662.1,550.6,661.9,550,661.7z M552.5,654.8v5.2c0.3,0.1,0.6,0.2,1,0.2c0.4,0.1,1,0.1,1.7,0.1c1.4,0,2.6-0.5,3.5-1.3
			c0.9-0.9,1.3-2,1.3-3.4c0-0.8-0.1-1.5-0.4-2.2s-0.7-1.2-1.2-1.7s-1.3-0.6-2.2-0.6c-0.8,0-1.5,0.2-2,0.5c-0.5,0.3-1,0.8-1.2,1.4
			C552.7,653.5,552.5,654.1,552.5,654.8z"/>
		<path d="M563.6,667.1l1.2-1.8c0.2,0.2,0.4,0.3,0.6,0.5s0.5,0.2,0.9,0.2c0.6,0,1-0.3,1.3-0.8s0.7-1.3,1.1-2.3l0.3-0.8l-5.8-12.9
			h2.9l4.2,9.8l3.7-9.8h2.7l-5.2,12.7c-0.2,0.6-0.5,1.2-0.8,2c-0.3,0.7-0.6,1.4-0.9,2.1c-0.3,0.7-0.8,1.2-1.4,1.6s-1.2,0.6-2.1,0.6
			c-0.7,0-1.2-0.1-1.7-0.3C564.3,667.6,563.9,667.4,563.6,667.1z"/>
		<path d="M584.9,657.9v-6.7h-2.3v-2.1h2.3v-4.3h2.5v4.3h3.8v2.1h-3.8v6.4c0,1,0.2,1.8,0.5,2.2c0.3,0.4,0.8,0.6,1.4,0.6
			c0.5,0,0.9-0.1,1.2-0.2c0.3-0.2,0.6-0.4,0.9-0.7l1.2,1.5c-0.5,0.5-1.1,0.9-1.7,1.1s-1.2,0.3-2,0.3c-1.4,0-2.4-0.4-3-1.1
			C585.3,660.6,584.9,659.4,584.9,657.9z"/>
		<path d="M594.5,662.1v-18.7h2.5v7.6c0.2-0.3,0.5-0.7,0.9-1c0.4-0.3,0.8-0.6,1.4-0.9s1.3-0.4,2.1-0.4c1.7,0,3,0.5,3.8,1.5
			s1.2,2.3,1.2,4v7.8h-2.5v-7.6c0-1.2-0.3-2.1-0.8-2.7c-0.5-0.6-1.3-0.8-2.2-0.8c-1,0-1.7,0.2-2.3,0.7c-0.6,0.5-1,1.1-1.2,1.9
			c-0.2,0.8-0.3,1.6-0.3,2.4v6L594.5,662.1L594.5,662.1z"/>
		<path d="M620.2,658.7l1.4,1.5c-0.2,0.2-0.5,0.5-1,0.9s-1.1,0.7-1.9,1s-1.7,0.4-2.8,0.4c-1.3,0-2.5-0.3-3.6-0.9
			c-1-0.6-1.8-1.4-2.4-2.5s-0.8-2.3-0.8-3.7c0-1.3,0.3-2.4,0.8-3.4c0.5-1,1.3-1.8,2.3-2.5s2.1-0.9,3.4-0.9c1.5,0,2.7,0.4,3.7,1.1
			c0.9,0.7,1.6,1.7,2,2.8c0.4,1.2,0.6,2.4,0.6,3.7h-10.3c0,0.8,0.2,1.5,0.6,2.1c0.4,0.6,0.9,1.1,1.5,1.4s1.3,0.5,2.1,0.5
			c1.1,0,2-0.2,2.7-0.6C619.4,659.4,619.9,659.1,620.2,658.7z M611.7,654.5h7.7c-0.1-1-0.4-1.9-1.1-2.6s-1.5-1.1-2.7-1.1
			c-0.8,0-1.5,0.2-2.1,0.5c-0.6,0.3-1,0.8-1.3,1.4S611.8,653.9,611.7,654.5z"/>
		<path d="M395,695.7V677h2.5v18.7H395z"/>
		<path d="M407.3,696.1c-1.3,0-2.5-0.3-3.6-0.9c-1-0.6-1.9-1.5-2.5-2.5c-0.6-1-0.9-2.2-0.9-3.5c0-1.3,0.3-2.4,0.9-3.5
			s1.4-1.9,2.5-2.5c1-0.6,2.2-0.9,3.6-0.9s2.5,0.3,3.5,0.9c1,0.6,1.9,1.5,2.5,2.5s0.9,2.2,0.9,3.5c0,1.2-0.3,2.4-0.9,3.5
			s-1.4,1.9-2.5,2.5C409.8,695.8,408.6,696.1,407.3,696.1z M407.3,693.9c0.9,0,1.7-0.2,2.3-0.7c0.6-0.5,1.1-1,1.5-1.8
			c0.4-0.7,0.5-1.5,0.5-2.3c0-0.8-0.2-1.5-0.5-2.3c-0.4-0.7-0.8-1.3-1.5-1.8c-0.6-0.5-1.4-0.7-2.3-0.7s-1.7,0.2-2.3,0.7
			s-1.1,1-1.5,1.8c-0.4,0.7-0.5,1.5-0.5,2.3c0,0.8,0.2,1.5,0.5,2.2c0.4,0.7,0.9,1.3,1.5,1.8C405.6,693.7,406.4,693.9,407.3,693.9z"
			/>
		<path d="M426.8,692.3l1.5,1.6c-0.6,0.7-1.3,1.2-2.2,1.6c-0.9,0.4-1.8,0.6-2.9,0.6c-1.4,0-2.6-0.3-3.6-0.9c-1-0.6-1.8-1.4-2.4-2.5
			s-0.8-2.2-0.8-3.6c0-1.3,0.3-2.4,0.9-3.5s1.4-1.9,2.4-2.5c1-0.6,2.2-0.9,3.5-0.9c1.1,0,2.1,0.2,2.9,0.6s1.6,0.9,2.2,1.6l-1.6,1.6
			c-0.4-0.5-0.9-0.9-1.4-1.2s-1.2-0.4-2-0.4c-0.9,0-1.7,0.2-2.3,0.7c-0.6,0.4-1.1,1-1.5,1.7c-0.3,0.7-0.5,1.5-0.5,2.3
			c0,0.8,0.2,1.6,0.5,2.3c0.4,0.7,0.8,1.3,1.5,1.8s1.4,0.7,2.3,0.7c0.8,0,1.5-0.1,2.1-0.4S426.4,692.8,426.8,692.3z"/>
		<path d="M439,695.7l-0.1-1.6c-0.5,0.6-1.1,1.1-1.9,1.4s-1.6,0.5-2.5,0.5c-0.7,0-1.4-0.1-2.1-0.4c-0.7-0.3-1.3-0.7-1.7-1.3
			s-0.7-1.4-0.7-2.4c0-1.4,0.5-2.5,1.5-3.4c1-0.8,2.4-1.3,4.2-1.3c0.4,0,0.8,0,1.3,0c0.4,0,0.8,0.1,1.2,0.1c0.4,0,0.6,0,0.7,0.1
			v-0.5c0-1-0.3-1.7-0.9-2.1s-1.4-0.6-2.4-0.6c-1,0-1.8,0.1-2.3,0.4c-0.6,0.3-1.1,0.5-1.5,0.8l-1.2-1.7c0.5-0.4,1.1-0.7,1.9-1.1
			s1.9-0.5,3.3-0.5c1.7,0,3,0.4,4,1.2s1.5,2,1.5,3.5v7.6c0,0.1,0,0.3,0,0.5s0,0.4,0,0.7L439,695.7L439,695.7z M439,691v-1.5
			c-0.1,0-0.3-0.1-0.6-0.1c-0.3,0-0.7-0.1-1.1-0.1c-0.4,0-0.8,0-1.2,0c-0.9,0-1.6,0.1-2.1,0.4s-0.8,0.6-1,1
			c-0.2,0.4-0.3,0.8-0.3,1.2c0,0.7,0.2,1.2,0.7,1.6c0.5,0.4,1.2,0.6,2,0.6c0.6,0,1.3-0.1,1.8-0.4s1-0.7,1.3-1.1
			C438.8,692.1,439,691.6,439,691z"/>
		<path d="M444.8,695.7V677h2.5v18.7H444.8z"/>
		<path d="M465.3,695.7l-0.1-1.7c-0.1,0.2-0.4,0.4-0.7,0.7c-0.4,0.3-0.8,0.6-1.4,0.9c-0.6,0.3-1.3,0.4-2.1,0.4c-1.1,0-2.1-0.3-3-0.8
			s-1.6-1.3-2.1-2.3s-0.8-2.2-0.8-3.6c0-1.2,0.2-2.3,0.6-3.2s1-1.6,1.6-2.2s1.4-1,2.2-1.2s1.5-0.4,2.2-0.4c0.7,0,1.3,0.1,1.8,0.2
			c0.5,0.2,1,0.3,1.5,0.6V677h2.5v17.4c0,0.1,0,0.2,0,0.5s0,0.5,0,0.8L465.3,695.7L465.3,695.7z M465.2,690.2v-4.7
			c-0.3-0.3-0.8-0.5-1.3-0.7c-0.5-0.2-1.2-0.3-1.9-0.3c-1.2,0-2.2,0.4-3,1.3s-1.2,2-1.2,3.5c0,0.8,0.1,1.6,0.4,2.3s0.7,1.2,1.2,1.6
			s1.3,0.6,2.1,0.6c0.9,0,1.6-0.2,2.1-0.6s0.9-0.9,1.2-1.5C465.1,691.3,465.2,690.7,465.2,690.2z"/>
		<path d="M481.6,692.3l1.4,1.5c-0.2,0.2-0.5,0.5-1,0.9c-0.5,0.4-1.1,0.7-1.9,1c-0.8,0.3-1.7,0.4-2.8,0.4c-1.3,0-2.5-0.3-3.6-0.9
			s-1.8-1.4-2.4-2.5s-0.9-2.3-0.9-3.7c0-1.3,0.3-2.4,0.8-3.4c0.5-1,1.3-1.8,2.3-2.5s2.1-0.9,3.4-0.9c1.5,0,2.7,0.4,3.7,1.1
			c0.9,0.7,1.6,1.7,2,2.8c0.4,1.2,0.6,2.4,0.6,3.7h-10.3c0,0.8,0.2,1.5,0.6,2.1c0.4,0.6,0.9,1.1,1.5,1.4c0.6,0.3,1.3,0.5,2.1,0.5
			c1.1,0,2-0.2,2.7-0.6C480.8,693,481.4,692.7,481.6,692.3z M473.1,688.1h7.7c-0.1-1-0.4-1.9-1.1-2.6s-1.5-1.1-2.7-1.1
			c-0.8,0-1.5,0.2-2.1,0.5c-0.6,0.3-1,0.8-1.3,1.4S473.2,687.5,473.1,688.1z"/>
		<path d="M486.2,695.7V677h2.5v18.7H486.2z"/>
		<path d="M492.1,680.4v-2.8h2.8v2.8H492.1z M492.3,695.7v-13h2.5v13H492.3z"/>
		<path d="M502.4,695.7l-5.6-13h2.9l4.1,10.2l4-10.2h2.7l-5.6,13H502.4z"/>
		<path d="M522.2,692.3l1.4,1.5c-0.2,0.2-0.5,0.5-1,0.9s-1.1,0.7-1.9,1s-1.7,0.4-2.8,0.4c-1.3,0-2.5-0.3-3.6-0.9
			c-1-0.6-1.8-1.4-2.4-2.5s-0.9-2.3-0.9-3.7c0-1.3,0.3-2.4,0.8-3.4c0.5-1,1.3-1.8,2.3-2.5s2.1-0.9,3.4-0.9c1.5,0,2.7,0.4,3.7,1.1
			c0.9,0.7,1.6,1.7,2,2.8c0.4,1.2,0.6,2.4,0.6,3.7h-10.3c0,0.8,0.2,1.5,0.6,2.1c0.4,0.6,0.9,1.1,1.5,1.4s1.3,0.5,2.1,0.5
			c1.1,0,2-0.2,2.7-0.6C521.4,693,521.9,692.7,522.2,692.3z M513.7,688.1h7.7c-0.1-1-0.4-1.9-1.1-2.6s-1.5-1.1-2.7-1.1
			c-0.8,0-1.5,0.2-2.1,0.5c-0.6,0.3-1,0.8-1.3,1.4S513.7,687.5,513.7,688.1z"/>
		<path d="M529.2,695.7h-2.5V684c0-0.1,0-0.3,0-0.5s0-0.4,0-0.8h2.4l0.1,2.1c0.2-0.3,0.5-0.6,0.8-1c0.4-0.3,0.8-0.7,1.4-0.9
			s1.2-0.4,2-0.4c0.3,0,0.5,0,0.8,0.1c0.2,0,0.5,0.1,0.7,0.2l-0.6,2.3c-0.3-0.1-0.8-0.2-1.3-0.2c-0.7,0-1.3,0.2-1.9,0.5
			c-0.6,0.4-1,0.8-1.4,1.4c-0.3,0.6-0.5,1.3-0.5,2V695.7z"/>
		<path d="M535.8,700.7l1.2-1.8c0.2,0.2,0.4,0.3,0.6,0.5s0.5,0.2,0.9,0.2c0.6,0,1-0.3,1.3-0.8s0.7-1.3,1.1-2.3l0.3-0.8l-5.8-12.9
			h2.9l4.2,9.8l3.7-9.8h2.7l-5.2,12.7c-0.2,0.6-0.5,1.2-0.8,2c-0.3,0.7-0.6,1.4-0.9,2.1c-0.3,0.7-0.8,1.2-1.4,1.6s-1.2,0.6-2.1,0.6
			c-0.7,0-1.2-0.1-1.7-0.3C536.6,701.2,536.2,701,535.8,700.7z"/>
		<path d="M394.4,727.7l1.5-1.7c0.5,0.5,1,0.8,1.7,1.1c0.6,0.3,1.4,0.4,2.3,0.4c0.8,0,1.5-0.1,2.1-0.4s0.8-0.7,0.8-1.3
			c0-0.4-0.1-0.7-0.3-1c-0.2-0.2-0.6-0.5-1.1-0.7c-0.5-0.2-1.3-0.4-2.2-0.6c-0.7-0.2-1.3-0.4-2-0.7s-1.2-0.7-1.6-1.2s-0.6-1.2-0.6-2
			c0-0.8,0.2-1.5,0.7-2.1s1.1-1,1.9-1.3c0.8-0.3,1.6-0.4,2.5-0.4c1.1,0,2,0.2,2.9,0.4c0.8,0.3,1.5,0.7,2.1,1.2l-1.4,1.7
			c-0.4-0.3-0.9-0.7-1.5-0.9c-0.6-0.2-1.3-0.4-2.1-0.4c-0.8,0-1.5,0.1-1.9,0.4s-0.7,0.7-0.7,1.3c0,0.6,0.3,1,1,1.2s1.5,0.5,2.5,0.8
			c0.8,0.2,1.6,0.4,2.2,0.7s1.2,0.7,1.6,1.2c0.4,0.5,0.6,1.2,0.6,2c0,0.9-0.3,1.6-0.8,2.2c-0.5,0.6-1.2,1-2,1.3
			c-0.8,0.3-1.7,0.5-2.7,0.5C397.5,729.7,395.6,729.1,394.4,727.7z"/>
		<path d="M418.7,725.9l1.4,1.5c-0.2,0.2-0.5,0.5-1,0.9c-0.5,0.4-1.1,0.7-1.9,1c-0.8,0.3-1.7,0.4-2.8,0.4c-1.3,0-2.5-0.3-3.6-0.9
			s-1.8-1.4-2.4-2.5s-0.9-2.3-0.9-3.7c0-1.3,0.3-2.4,0.8-3.4c0.5-1,1.3-1.8,2.3-2.5s2.1-0.9,3.4-0.9c1.5,0,2.7,0.4,3.7,1.1
			c0.9,0.7,1.6,1.7,2,2.8c0.4,1.2,0.6,2.4,0.6,3.7h-10.3c0,0.8,0.2,1.5,0.6,2.1c0.4,0.6,0.9,1.1,1.5,1.4c0.6,0.3,1.3,0.5,2.1,0.5
			c1.1,0,2-0.2,2.7-0.6C417.9,726.6,418.4,726.3,418.7,725.9z M410.2,721.7h7.7c-0.1-1-0.4-1.9-1.1-2.6s-1.5-1.1-2.7-1.1
			c-0.8,0-1.5,0.2-2.1,0.5c-0.6,0.3-1,0.8-1.3,1.4S410.3,721.1,410.2,721.7z"/>
		<path d="M425.8,729.3h-2.5v-11.8c0-0.1,0-0.3,0-0.5s0-0.4,0-0.8h2.4l0.1,2.1c0.2-0.3,0.5-0.6,0.9-1c0.4-0.3,0.8-0.7,1.4-0.9
			c0.6-0.3,1.2-0.4,2-0.4c0.3,0,0.5,0,0.8,0.1c0.2,0,0.5,0.1,0.7,0.2l-0.6,2.3c-0.3-0.1-0.8-0.2-1.3-0.2c-0.7,0-1.4,0.2-1.9,0.5
			c-0.6,0.4-1,0.8-1.4,1.4s-0.5,1.3-0.5,2V729.3z"/>
		<path d="M437.5,729.3l-5.6-13h2.9l4.1,10.2l4-10.2h2.7l-5.6,13H437.5z"/>
		<path d="M447.5,714v-2.8h2.8v2.8H447.5z M447.7,729.3v-13h2.5v13H447.7z"/>
		<path d="M463.5,725.9l1.5,1.6c-0.6,0.7-1.3,1.2-2.2,1.6c-0.9,0.4-1.8,0.6-2.9,0.6c-1.4,0-2.6-0.3-3.6-0.9c-1-0.6-1.8-1.4-2.4-2.5
			s-0.8-2.2-0.8-3.6c0-1.3,0.3-2.4,0.9-3.5s1.4-1.9,2.4-2.5c1-0.6,2.2-0.9,3.5-0.9c1.1,0,2.1,0.2,2.9,0.6s1.6,0.9,2.2,1.6l-1.6,1.6
			c-0.4-0.5-0.9-0.9-1.4-1.2s-1.2-0.4-2-0.4c-0.9,0-1.7,0.2-2.3,0.7c-0.6,0.4-1.1,1-1.5,1.7c-0.3,0.7-0.5,1.5-0.5,2.3
			c0,0.8,0.2,1.6,0.5,2.3c0.4,0.7,0.8,1.3,1.5,1.8s1.4,0.7,2.3,0.7c0.8,0,1.5-0.1,2.1-0.4S463.1,726.4,463.5,725.9z"/>
		<path d="M477.2,725.9l1.4,1.5c-0.2,0.2-0.5,0.5-1,0.9c-0.5,0.4-1.1,0.7-1.9,1c-0.8,0.3-1.7,0.4-2.8,0.4c-1.3,0-2.5-0.3-3.6-0.9
			s-1.8-1.4-2.4-2.5s-0.9-2.3-0.9-3.7c0-1.3,0.3-2.4,0.8-3.4c0.5-1,1.3-1.8,2.3-2.5s2.1-0.9,3.4-0.9c1.5,0,2.7,0.4,3.7,1.1
			c0.9,0.7,1.6,1.7,2,2.8c0.4,1.2,0.6,2.4,0.6,3.7h-10.3c0,0.8,0.2,1.5,0.6,2.1c0.4,0.6,0.9,1.1,1.5,1.4c0.6,0.3,1.3,0.5,2.1,0.5
			c1.1,0,2-0.2,2.7-0.6C476.4,726.6,476.9,726.3,477.2,725.9z M468.7,721.7h7.7c-0.1-1-0.4-1.9-1.1-2.6s-1.5-1.1-2.7-1.1
			c-0.8,0-1.5,0.2-2.1,0.5c-0.6,0.3-1,0.8-1.3,1.4S468.8,721.1,468.7,721.7z"/>
		<path d="M482,729.3v-3.1h3.2v3.1H482z"/>
	</g>
</g>
<g>
	<rect x="676.4" y="610" class="st4" width="244.3" height="157"/>
	<path d="M677.5,625.8l1.9-1.7c0.3,0.4,0.8,0.8,1.2,1.2c0.5,0.4,1,0.7,1.6,1s1.3,0.4,2.1,0.4c1.2,0,2.2-0.3,2.9-0.8
		c0.7-0.6,1-1.3,1-2.2c0-1-0.4-1.8-1.2-2.3c-0.8-0.5-1.9-0.9-3.4-1.2c-1.6-0.3-2.9-1-3.9-1.8c-1-0.9-1.5-2.1-1.5-3.5
		c0-0.9,0.2-1.8,0.7-2.5c0.5-0.8,1.2-1.4,2.1-1.9s2.1-0.7,3.4-0.7c1.2,0,2.2,0.2,3,0.5c0.8,0.3,1.4,0.7,1.9,1.1s0.8,0.8,1,1
		l-1.8,1.7c-0.2-0.2-0.4-0.4-0.8-0.7s-0.8-0.6-1.4-0.8s-1.2-0.3-2-0.3c-0.8,0-1.4,0.1-1.9,0.4c-0.5,0.3-0.9,0.6-1.1,1
		s-0.4,0.8-0.4,1.2c0,0.9,0.4,1.6,1.2,2.1c0.8,0.5,1.9,0.8,3.3,1.2c0.9,0.2,1.8,0.5,2.7,1s1.5,1,2.1,1.8c0.5,0.8,0.8,1.8,0.8,3.1
		c0,1.1-0.3,2-0.9,2.9s-1.4,1.5-2.3,2c-1,0.5-2.1,0.7-3.4,0.7c-1.2,0-2.2-0.2-3.1-0.5c-0.9-0.3-1.7-0.8-2.3-1.3
		C678.4,626.8,677.9,626.3,677.5,625.8z"/>
	<path d="M704.6,625.2l1.4,1.5c-0.2,0.2-0.5,0.5-1,0.9s-1.1,0.7-1.9,1c-0.8,0.3-1.7,0.4-2.8,0.4c-1.3,0-2.5-0.3-3.6-0.9
		c-1-0.6-1.8-1.4-2.4-2.5s-0.8-2.3-0.8-3.7c0-1.3,0.3-2.4,0.8-3.4c0.5-1,1.3-1.8,2.3-2.5s2.1-0.9,3.4-0.9c1.5,0,2.7,0.4,3.7,1.1
		c0.9,0.7,1.6,1.7,2,2.8c0.4,1.2,0.6,2.4,0.6,3.7h-10.3c0,0.8,0.2,1.5,0.6,2.1c0.4,0.6,0.9,1.1,1.5,1.4s1.3,0.5,2.1,0.5
		c1.1,0,2-0.2,2.7-0.6C703.8,626,704.3,625.6,704.6,625.2z M696.1,621h7.7c-0.1-1-0.4-1.9-1.1-2.6s-1.5-1.1-2.7-1.1
		c-0.8,0-1.5,0.2-2.1,0.5c-0.6,0.3-1,0.8-1.3,1.4C696.3,619.8,696.2,620.4,696.1,621z"/>
	<path d="M711.7,628.7h-2.5V617c0-0.2,0-0.3,0-0.5s0-0.5,0-0.8h2.4l0.1,2c0.2-0.3,0.5-0.7,0.9-1c0.4-0.3,0.8-0.6,1.4-0.9
		s1.2-0.4,2.1-0.4c1.7,0,3,0.5,3.8,1.5s1.2,2.3,1.2,4v7.8h-2.5V621c0-1.2-0.3-2.1-0.8-2.7s-1.3-0.8-2.2-0.8c-1,0-1.7,0.2-2.3,0.7
		c-0.6,0.5-1,1.1-1.2,1.9c-0.2,0.8-0.3,1.6-0.3,2.4L711.7,628.7L711.7,628.7z"/>
	<path d="M725.5,624.4v-6.7h-2.3v-2.1h2.3v-4.3h2.5v4.3h3.8v2.1h-3.8v6.4c0,1,0.2,1.8,0.5,2.2c0.3,0.4,0.8,0.6,1.4,0.6
		c0.5,0,0.9-0.1,1.2-0.2c0.3-0.2,0.6-0.4,0.9-0.7l1.2,1.5c-0.5,0.5-1.1,0.9-1.7,1.1s-1.2,0.3-2,0.3c-1.4,0-2.4-0.4-3-1.1
		C725.9,627.1,725.5,626,725.5,624.4z"/>
	<path d="M741.4,624.4v-6.7H739v-2.1h2.3v-4.3h2.5v4.3h3.8v2.1h-3.8v6.4c0,1,0.2,1.8,0.5,2.2c0.3,0.4,0.8,0.6,1.4,0.6
		c0.5,0,0.9-0.1,1.2-0.2c0.3-0.2,0.6-0.4,0.9-0.7l1.2,1.5c-0.5,0.5-1.1,0.9-1.7,1.1s-1.2,0.3-2,0.3c-1.4,0-2.4-0.4-3-1.1
		C741.7,627.1,741.4,626,741.4,624.4z"/>
	<path d="M756.4,629c-1.3,0-2.5-0.3-3.6-0.9c-1-0.6-1.9-1.5-2.5-2.5c-0.6-1-0.9-2.2-0.9-3.5c0-1.3,0.3-2.4,0.9-3.5s1.4-1.9,2.5-2.5
		c1-0.6,2.2-0.9,3.6-0.9s2.5,0.3,3.5,0.9c1,0.6,1.8,1.5,2.5,2.5c0.6,1,0.9,2.2,0.9,3.5c0,1.2-0.3,2.4-0.9,3.5
		c-0.6,1.1-1.4,1.9-2.5,2.5S757.8,629,756.4,629z M756.4,626.9c0.9,0,1.7-0.2,2.3-0.7c0.6-0.5,1.1-1,1.5-1.8
		c0.3-0.7,0.5-1.5,0.5-2.3c0-0.8-0.2-1.5-0.5-2.3c-0.3-0.7-0.8-1.3-1.5-1.8c-0.7-0.5-1.4-0.7-2.3-0.7c-0.9,0-1.7,0.2-2.3,0.7
		s-1.2,1-1.5,1.8s-0.5,1.5-0.5,2.3c0,0.8,0.2,1.5,0.5,2.2c0.3,0.7,0.8,1.3,1.5,1.8C754.8,626.6,755.5,626.9,756.4,626.9z"/>
	<path d="M771.2,623.4v-7.8h2.5v7.6c0,1.2,0.2,2.1,0.8,2.7c0.5,0.6,1.2,0.8,2.2,0.8c1,0,1.7-0.2,2.3-0.8c0.5-0.5,0.9-1.1,1.2-1.9
		s0.3-1.6,0.3-2.4v-6h2.5v11.7c0,0.1,0,0.2,0,0.5s0,0.5,0,0.8h-2.4l-0.1-1.9c-0.2,0.3-0.5,0.6-0.9,1s-0.8,0.6-1.4,0.9
		s-1.3,0.4-2.1,0.4c-1.7,0-3-0.5-3.8-1.5C771.6,626.5,771.2,625.1,771.2,623.4z"/>
	<path d="M785.7,627.1l1.5-1.7c0.5,0.5,1,0.8,1.7,1.1c0.7,0.3,1.4,0.4,2.3,0.4c0.8,0,1.5-0.1,2.1-0.4c0.6-0.3,0.8-0.7,0.8-1.3
		c0-0.4-0.1-0.7-0.3-1c-0.2-0.2-0.6-0.5-1.2-0.7c-0.5-0.2-1.3-0.4-2.2-0.6c-0.7-0.2-1.3-0.4-2-0.7s-1.2-0.7-1.6-1.2
		c-0.4-0.5-0.6-1.2-0.6-2c0-0.8,0.2-1.5,0.7-2.1c0.5-0.6,1.1-1,1.9-1.3c0.8-0.3,1.6-0.4,2.5-0.4c1.1,0,2,0.2,2.9,0.4
		s1.5,0.7,2.1,1.2l-1.4,1.7c-0.4-0.3-0.9-0.7-1.5-0.9c-0.6-0.2-1.3-0.4-2.1-0.4c-0.8,0-1.5,0.1-1.9,0.4s-0.7,0.7-0.7,1.3
		c0,0.6,0.3,1,1,1.2s1.5,0.5,2.5,0.8c0.8,0.2,1.6,0.4,2.2,0.7c0.7,0.3,1.2,0.7,1.6,1.2s0.6,1.2,0.6,2c0,0.9-0.3,1.6-0.8,2.2
		s-1.2,1-2,1.3c-0.8,0.3-1.7,0.5-2.7,0.5C788.8,629,787,628.4,785.7,627.1z"/>
	<path d="M811,629c-1.3,0-2.5-0.3-3.6-0.9c-1-0.6-1.9-1.5-2.5-2.5c-0.6-1-0.9-2.2-0.9-3.5c0-1.3,0.3-2.4,0.9-3.5s1.4-1.9,2.5-2.5
		c1-0.6,2.2-0.9,3.6-0.9s2.5,0.3,3.5,0.9c1,0.6,1.8,1.5,2.5,2.5c0.6,1,0.9,2.2,0.9,3.5c0,1.2-0.3,2.4-0.9,3.5
		c-0.6,1.1-1.4,1.9-2.5,2.5C813.5,628.7,812.3,629,811,629z M811,626.9c0.9,0,1.7-0.2,2.3-0.7c0.6-0.5,1.1-1,1.5-1.8
		c0.3-0.7,0.5-1.5,0.5-2.3c0-0.8-0.2-1.5-0.5-2.3s-0.8-1.3-1.5-1.8c-0.7-0.5-1.4-0.7-2.3-0.7c-0.9,0-1.7,0.2-2.3,0.7s-1.2,1-1.5,1.8
		c-0.3,0.7-0.5,1.5-0.5,2.3c0,0.8,0.2,1.5,0.5,2.2s0.8,1.3,1.5,1.8C809.3,626.6,810.1,626.9,811,626.9z"/>
	<path d="M823.2,628.7h-2.5V617c0-0.2,0-0.3,0-0.5s0-0.5,0-0.8h2.4l0.1,2c0.2-0.3,0.5-0.7,0.9-1c0.4-0.3,0.8-0.6,1.4-0.9
		s1.3-0.4,2.1-0.4c1.7,0,3,0.5,3.8,1.5s1.2,2.3,1.2,4v7.8H830V621c0-1.2-0.3-2.1-0.8-2.7c-0.5-0.6-1.3-0.8-2.2-0.8
		c-1,0-1.7,0.2-2.3,0.7c-0.6,0.5-1,1.1-1.2,1.9c-0.2,0.8-0.3,1.6-0.3,2.4L823.2,628.7L823.2,628.7z"/>
	<path d="M842.1,624.4v-6.7h-2.3v-2.1h2.3v-4.3h2.5v4.3h3.8v2.1h-3.8v6.4c0,1,0.2,1.8,0.5,2.2c0.3,0.4,0.8,0.6,1.4,0.6
		c0.5,0,0.9-0.1,1.2-0.2c0.3-0.2,0.6-0.4,0.9-0.7l1.2,1.5c-0.5,0.5-1.1,0.9-1.7,1.1s-1.2,0.3-2,0.3c-1.4,0-2.4-0.4-3-1.1
		C842.5,627.1,842.1,626,842.1,624.4z"/>
	<path d="M851.7,628.7V610h2.5v7.6c0.2-0.3,0.5-0.7,0.9-1c0.4-0.3,0.8-0.6,1.4-0.9s1.3-0.4,2.1-0.4c1.7,0,3,0.5,3.8,1.5
		s1.2,2.3,1.2,4v7.8h-2.5V621c0-1.2-0.3-2.1-0.8-2.7c-0.5-0.6-1.3-0.8-2.2-0.8c-1,0-1.7,0.2-2.3,0.7c-0.6,0.5-1,1.1-1.2,1.9
		c-0.2,0.8-0.3,1.6-0.3,2.4v6L851.7,628.7L851.7,628.7z"/>
	<path d="M877.4,625.2l1.4,1.5c-0.2,0.2-0.5,0.5-1,0.9s-1.1,0.7-1.9,1c-0.8,0.3-1.7,0.4-2.8,0.4c-1.3,0-2.5-0.3-3.6-0.9
		c-1-0.6-1.8-1.4-2.4-2.5s-0.8-2.3-0.8-3.7c0-1.3,0.3-2.4,0.8-3.4c0.5-1,1.3-1.8,2.3-2.5s2.1-0.9,3.4-0.9c1.5,0,2.7,0.4,3.7,1.1
		c0.9,0.7,1.6,1.7,2,2.8c0.4,1.2,0.6,2.4,0.6,3.7h-10.3c0,0.8,0.2,1.5,0.6,2.1c0.4,0.6,0.9,1.1,1.5,1.4s1.3,0.5,2.1,0.5
		c1.1,0,2-0.2,2.7-0.6C876.6,626,877.1,625.6,877.4,625.2z M868.9,621h7.7c-0.1-1-0.4-1.9-1.1-2.6s-1.5-1.1-2.7-1.1
		c-0.8,0-1.5,0.2-2.1,0.5c-0.6,0.3-1,0.8-1.3,1.4C869.1,619.8,868.9,620.4,868.9,621z"/>
	<path d="M677.5,660.7l1.5-1.7c0.5,0.5,1,0.8,1.7,1.1c0.7,0.3,1.4,0.4,2.3,0.4c0.8,0,1.5-0.1,2.1-0.4c0.6-0.3,0.8-0.7,0.8-1.3
		c0-0.4-0.1-0.7-0.3-1c-0.2-0.2-0.6-0.5-1.2-0.7c-0.5-0.2-1.3-0.4-2.2-0.6c-0.7-0.2-1.3-0.4-2-0.7s-1.2-0.7-1.6-1.2
		c-0.4-0.5-0.6-1.2-0.6-2c0-0.8,0.2-1.5,0.7-2.1s1.1-1,1.9-1.3s1.6-0.4,2.5-0.4c1.1,0,2,0.2,2.9,0.4c0.8,0.3,1.5,0.7,2.1,1.2
		l-1.4,1.7c-0.4-0.3-0.9-0.7-1.5-0.9c-0.6-0.2-1.3-0.4-2.1-0.4c-0.8,0-1.5,0.1-1.9,0.4s-0.7,0.7-0.7,1.3c0,0.6,0.3,1,1,1.2
		s1.5,0.5,2.5,0.8c0.8,0.2,1.6,0.4,2.2,0.7c0.7,0.3,1.2,0.7,1.6,1.2c0.4,0.5,0.6,1.2,0.6,2c0,0.9-0.3,1.6-0.8,2.2
		c-0.5,0.6-1.2,1-2,1.3c-0.8,0.3-1.7,0.5-2.7,0.5C680.5,662.6,678.7,662,677.5,660.7z"/>
	<path d="M699.6,662.2l-0.1-1.6c-0.5,0.6-1.1,1.1-1.9,1.4c-0.8,0.3-1.6,0.5-2.5,0.5c-0.7,0-1.4-0.1-2.1-0.4s-1.3-0.7-1.7-1.3
		c-0.5-0.6-0.7-1.4-0.7-2.4c0-1.4,0.5-2.5,1.5-3.4c1-0.8,2.4-1.3,4.2-1.3c0.4,0,0.8,0,1.3,0c0.4,0,0.8,0.1,1.2,0.1
		c0.3,0,0.6,0,0.7,0.1v-0.5c0-1-0.3-1.7-0.9-2.1s-1.4-0.6-2.4-0.6c-1,0-1.8,0.1-2.3,0.4c-0.6,0.3-1.1,0.5-1.5,0.8l-1.2-1.7
		c0.5-0.4,1.1-0.7,1.9-1.1s1.9-0.5,3.3-0.5c1.7,0,3,0.4,4,1.2c1,0.8,1.5,2,1.5,3.5v7.6c0,0.1,0,0.3,0,0.5s0,0.4,0,0.7L699.6,662.2
		L699.6,662.2z M699.5,657.6v-1.5c-0.1,0-0.3-0.1-0.6-0.1c-0.3,0-0.7-0.1-1.1-0.1c-0.4,0-0.8,0-1.2,0c-0.9,0-1.7,0.1-2.1,0.4
		c-0.5,0.3-0.8,0.6-1,1s-0.3,0.8-0.3,1.2c0,0.7,0.2,1.2,0.7,1.6c0.5,0.4,1.2,0.6,2,0.6c0.7,0,1.2-0.1,1.8-0.4c0.5-0.3,1-0.7,1.3-1.1
		C699.3,658.6,699.5,658.1,699.5,657.6z"/>
	<path d="M707.9,662.2h-2.5v-11.7c0-0.2,0-0.3,0-0.5s0-0.5,0-0.8h2.4l0.1,2c0.2-0.3,0.5-0.7,0.8-1s0.8-0.6,1.4-0.9
		c0.6-0.2,1.2-0.4,2-0.4c1,0,1.8,0.2,2.5,0.6c0.7,0.4,1.2,1,1.5,1.8c0.5-0.6,1.2-1.2,1.9-1.6c0.8-0.5,1.7-0.7,2.8-0.7
		c1.7,0,2.9,0.5,3.7,1.5s1.2,2.3,1.2,4v7.8h-2.5v-7.6c0-2.3-0.9-3.5-2.8-3.5c-0.7,0-1.3,0.2-1.8,0.5c-0.5,0.4-1,0.8-1.3,1.4
		s-0.5,1.2-0.5,2v7.2h-2.5v-7.6c0-1.2-0.2-2.1-0.7-2.7s-1.2-0.8-2-0.8c-0.9,0-1.6,0.2-2.2,0.8c-0.5,0.5-0.9,1.1-1.2,1.9
		c-0.2,0.8-0.3,1.6-0.3,2.4L707.9,662.2L707.9,662.2z"/>
	<path d="M739.6,658.8l1.4,1.5c-0.2,0.2-0.5,0.5-1,0.9s-1.1,0.7-1.9,1s-1.7,0.4-2.8,0.4c-1.3,0-2.5-0.3-3.6-0.9s-1.8-1.4-2.4-2.5
		s-0.8-2.3-0.8-3.7c0-1.3,0.3-2.4,0.8-3.4s1.3-1.8,2.3-2.5s2.1-0.9,3.4-0.9c1.5,0,2.7,0.4,3.7,1.1c0.9,0.7,1.6,1.7,2,2.8
		c0.4,1.2,0.6,2.4,0.6,3.7h-10.3c0,0.8,0.2,1.5,0.6,2.1s0.9,1.1,1.5,1.4s1.3,0.5,2.1,0.5c1.1,0,2-0.2,2.7-0.6
		C738.8,659.5,739.3,659.2,739.6,658.8z M731.1,654.6h7.7c-0.1-1-0.4-1.9-1.1-2.6s-1.5-1.1-2.7-1.1c-0.8,0-1.5,0.2-2.1,0.5
		c-0.6,0.3-1,0.8-1.3,1.4S731.1,654,731.1,654.6z"/>
	<path d="M758.7,662.2l-0.1-1.7c-0.1,0.2-0.4,0.4-0.7,0.7s-0.8,0.6-1.4,0.9c-0.6,0.3-1.3,0.4-2.1,0.4c-1.1,0-2.1-0.3-3-0.8
		c-0.9-0.5-1.6-1.3-2.1-2.3s-0.8-2.2-0.8-3.6c0-1.2,0.2-2.3,0.6-3.2s1-1.6,1.6-2.2c0.7-0.6,1.4-1,2.2-1.2s1.5-0.4,2.2-0.4
		c0.7,0,1.3,0.1,1.8,0.2s1,0.3,1.5,0.6v-6.2h2.5v17.4c0,0.1,0,0.2,0,0.5s0,0.5,0,0.8L758.7,662.2L758.7,662.2z M758.6,656.8v-4.7
		c-0.3-0.3-0.8-0.5-1.3-0.7c-0.5-0.2-1.2-0.3-1.9-0.3c-1.2,0-2.2,0.4-3,1.3s-1.2,2-1.2,3.5c0,0.8,0.1,1.6,0.4,2.3
		c0.3,0.7,0.7,1.2,1.2,1.6s1.3,0.6,2.1,0.6c0.9,0,1.6-0.2,2.1-0.6s0.9-0.9,1.2-1.5C758.5,657.8,758.6,657.3,758.6,656.8z"/>
	<path d="M772.8,662.2l-0.1-1.6c-0.5,0.6-1.1,1.1-1.9,1.4c-0.8,0.3-1.6,0.5-2.5,0.5c-0.7,0-1.4-0.1-2.1-0.4s-1.3-0.7-1.7-1.3
		c-0.5-0.6-0.7-1.4-0.7-2.4c0-1.4,0.5-2.5,1.5-3.4c1-0.8,2.4-1.3,4.2-1.3c0.4,0,0.8,0,1.3,0c0.4,0,0.8,0.1,1.2,0.1
		c0.3,0,0.6,0,0.7,0.1v-0.5c0-1-0.3-1.7-0.9-2.1s-1.4-0.6-2.4-0.6c-1,0-1.8,0.1-2.3,0.4c-0.6,0.3-1.1,0.5-1.5,0.8l-1.2-1.7
		c0.5-0.4,1.1-0.7,1.9-1.1s1.9-0.5,3.3-0.5c1.7,0,3,0.4,4,1.2c1,0.8,1.5,2,1.5,3.5v7.6c0,0.1,0,0.3,0,0.5s0,0.4,0,0.7L772.8,662.2
		L772.8,662.2z M772.8,657.6v-1.5c-0.1,0-0.3-0.1-0.6-0.1c-0.3,0-0.7-0.1-1.1-0.1c-0.4,0-0.8,0-1.2,0c-0.9,0-1.7,0.1-2.1,0.4
		c-0.5,0.3-0.8,0.6-1,1s-0.3,0.8-0.3,1.2c0,0.7,0.2,1.2,0.7,1.6c0.5,0.4,1.2,0.6,2,0.6c0.7,0,1.2-0.1,1.8-0.4c0.5-0.3,1-0.7,1.3-1.1
		C772.6,658.6,772.8,658.1,772.8,657.6z"/>
	<path d="M777,667.2l1.2-1.8c0.2,0.2,0.4,0.3,0.6,0.5s0.5,0.2,0.9,0.2c0.6,0,1-0.3,1.3-0.8s0.7-1.3,1.1-2.3l0.3-0.8l-5.8-12.9h2.9
		l4.2,9.8l3.7-9.8h2.7l-5.2,12.7c-0.2,0.6-0.5,1.2-0.8,2c-0.3,0.7-0.6,1.4-0.9,2.1c-0.4,0.7-0.8,1.2-1.4,1.6s-1.2,0.6-2.1,0.6
		c-0.7,0-1.2-0.1-1.7-0.3S777.3,667.5,777,667.2z"/>
	<path d="M790,662.2v-3.1h3.2v3.1H790z"/>
</g>
<g>
	<rect x="966.5" y="610.5" class="st4" width="244.3" height="157"/>
	<path d="M971.9,629.1l-5-18.7h3l3.6,15.1l4.1-14.5h2.6l4,14.5l3.6-15h2.8l-5,18.7h-2.9l-3.9-13.8l-4,13.8H971.9z"/>
	<path d="M1002.1,625.7l1.4,1.5c-0.2,0.2-0.5,0.5-1,0.9s-1.1,0.7-1.9,1c-0.8,0.3-1.7,0.4-2.8,0.4c-1.3,0-2.5-0.3-3.6-0.9
		c-1-0.6-1.8-1.4-2.4-2.5s-0.8-2.3-0.8-3.7c0-1.3,0.3-2.4,0.8-3.4c0.5-1,1.3-1.8,2.3-2.5s2.1-0.9,3.4-0.9c1.5,0,2.7,0.4,3.7,1.1
		c0.9,0.7,1.6,1.7,2,2.8c0.4,1.2,0.6,2.4,0.6,3.7h-10.3c0,0.8,0.2,1.5,0.6,2.1c0.4,0.6,0.9,1.1,1.5,1.4s1.3,0.5,2.1,0.5
		c1.1,0,2-0.2,2.7-0.6C1001.3,626.5,1001.8,626.1,1002.1,625.7z M993.6,621.5h7.7c-0.1-1-0.4-1.9-1.1-2.6s-1.5-1.1-2.7-1.1
		c-0.8,0-1.5,0.2-2.1,0.5c-0.6,0.3-1,0.8-1.3,1.4S993.6,620.9,993.6,621.5z"/>
	<path d="M1014.7,629.1l-4.4-13h2.8l2.9,9.9l3.1-9.9h2.2l3.1,10l2.9-10h2.6l-4.3,13h-2.5l-3-9.1l-3,9.1H1014.7z"/>
	<path d="M1031.9,613.8V611h2.8v2.8H1031.9z M1032.1,629.1v-13h2.5v13H1032.1z"/>
	<path d="M1038.1,629.1v-18.7h2.5v18.7H1038.1z"/>
	<path d="M1044.1,629.1v-18.7h2.5v18.7H1044.1z"/>
	<path d="M1054.4,627.5l1.5-1.7c0.5,0.5,1,0.8,1.7,1.1c0.7,0.3,1.4,0.4,2.3,0.4c0.8,0,1.5-0.1,2.1-0.4c0.6-0.3,0.8-0.7,0.8-1.3
		c0-0.4-0.1-0.7-0.3-1c-0.2-0.2-0.6-0.5-1.2-0.7c-0.5-0.2-1.3-0.4-2.2-0.6c-0.7-0.2-1.3-0.4-2-0.7s-1.2-0.7-1.6-1.2
		c-0.4-0.5-0.6-1.2-0.6-2c0-0.8,0.2-1.5,0.7-2.1c0.5-0.6,1.1-1,1.9-1.3c0.8-0.3,1.6-0.4,2.5-0.4c1.1,0,2.1,0.2,2.9,0.4
		s1.5,0.7,2.1,1.2l-1.4,1.7c-0.4-0.3-0.9-0.7-1.5-0.9c-0.6-0.2-1.3-0.4-2.1-0.4c-0.8,0-1.4,0.1-1.9,0.4s-0.7,0.7-0.7,1.3
		c0,0.6,0.3,1,1,1.2s1.5,0.5,2.5,0.8c0.8,0.2,1.6,0.4,2.2,0.7c0.7,0.3,1.2,0.7,1.6,1.2s0.6,1.2,0.6,2c0,0.9-0.3,1.6-0.8,2.2
		s-1.2,1-2,1.3c-0.8,0.3-1.7,0.5-2.7,0.5C1057.5,629.5,1055.6,628.9,1054.4,627.5z"/>
	<path d="M1069.4,624.9v-6.7h-2.3v-2.1h2.3v-4.3h2.5v4.3h3.8v2.1h-3.8v6.4c0,1,0.2,1.8,0.5,2.2c0.3,0.4,0.8,0.6,1.4,0.6
		c0.5,0,0.9-0.1,1.2-0.2c0.3-0.2,0.6-0.4,0.9-0.7l1.2,1.5c-0.5,0.5-1.1,0.9-1.7,1.1c-0.6,0.2-1.2,0.3-2,0.3c-1.4,0-2.4-0.4-3-1.1
		C1069.8,627.6,1069.4,626.5,1069.4,624.9z"/>
	<path d="M1081.6,629.1h-2.5v-11.8c0-0.1,0-0.3,0-0.5s0-0.4,0-0.8h2.4l0.1,2.1c0.2-0.3,0.5-0.6,0.8-1c0.4-0.3,0.8-0.7,1.4-0.9
		s1.2-0.4,2-0.4c0.3,0,0.5,0,0.8,0.1s0.4,0.1,0.7,0.2l-0.6,2.3c-0.3-0.1-0.8-0.2-1.3-0.2c-0.7,0-1.3,0.2-1.9,0.5s-1,0.8-1.4,1.4
		s-0.5,1.3-0.5,2L1081.6,629.1L1081.6,629.1z"/>
	<path d="M1089.2,613.8V611h2.8v2.8H1089.2z M1089.4,629.1v-13h2.5v13H1089.4z"/>
	<path d="M1098,629.1h-2.5v-11.7c0-0.2,0-0.3,0-0.5s0-0.5,0-0.8h2.4l0.1,2c0.2-0.3,0.5-0.7,0.9-1c0.4-0.3,0.8-0.6,1.4-0.9
		s1.2-0.4,2.1-0.4c1.7,0,3,0.5,3.8,1.5c0.8,1,1.2,2.3,1.2,4v7.8h-2.5v-7.6c0-1.2-0.3-2.1-0.8-2.7s-1.3-0.8-2.2-0.8
		c-0.9,0-1.7,0.2-2.3,0.7c-0.6,0.5-1,1.1-1.2,1.9c-0.2,0.8-0.3,1.6-0.3,2.4L1098,629.1L1098,629.1z"/>
	<path d="M1111.3,633.7l1.2-1.8c0.4,0.3,1,0.5,1.6,0.8c0.6,0.2,1.4,0.3,2.3,0.3c1.2,0,2.2-0.3,2.8-1s0.9-1.6,0.9-2.7v-1.6
		c-0.2,0.2-0.4,0.4-0.8,0.6s-0.8,0.5-1.3,0.7s-1.2,0.3-2,0.3c-1.3,0-2.3-0.3-3.2-0.8c-0.9-0.6-1.6-1.3-2-2.3s-0.7-2.1-0.7-3.3
		c0-1.3,0.3-2.5,0.9-3.6c0.6-1,1.5-1.9,2.6-2.5s2.4-0.9,3.8-0.9c1,0,2,0.1,2.9,0.3c0.9,0.2,1.7,0.4,2.2,0.6v12.4
		c0,1.9-0.6,3.3-1.7,4.4c-1.1,1-2.6,1.6-4.6,1.6c-1.3,0-2.4-0.2-3.2-0.5C1112.4,634.3,1111.8,634,1111.3,633.7z M1120.1,623.8v-5.4
		c-0.2-0.1-0.4-0.1-0.8-0.2s-1-0.2-1.8-0.2c-0.9,0-1.8,0.2-2.5,0.6c-0.7,0.4-1.3,1-1.7,1.7c-0.4,0.7-0.6,1.5-0.6,2.5
		c0,0.8,0.1,1.5,0.4,2.2s0.7,1.2,1.2,1.6c0.6,0.4,1.3,0.6,2.2,0.6c0.8,0,1.5-0.2,2.1-0.5c0.5-0.3,0.9-0.7,1.2-1.2
		C1119.9,624.9,1120.1,624.4,1120.1,623.8z"/>
	<path d="M1126,632.4l1.4-3.3h-1.1V626h3.2v3.1l-1.9,3.3L1126,632.4L1126,632.4z"/>
	<path d="M1138.8,633.7l1.2-1.8c0.4,0.3,1,0.5,1.6,0.8c0.6,0.2,1.4,0.3,2.3,0.3c1.2,0,2.2-0.3,2.8-1s0.9-1.6,0.9-2.7v-1.6
		c-0.2,0.2-0.4,0.4-0.8,0.6s-0.8,0.5-1.3,0.7s-1.2,0.3-2,0.3c-1.3,0-2.3-0.3-3.2-0.8c-0.9-0.6-1.6-1.3-2-2.3s-0.7-2.1-0.7-3.3
		c0-1.3,0.3-2.5,0.9-3.6c0.6-1,1.5-1.9,2.6-2.5s2.4-0.9,3.8-0.9c1,0,2,0.1,2.9,0.3c0.9,0.2,1.7,0.4,2.2,0.6v12.4
		c0,1.9-0.6,3.3-1.7,4.4c-1.1,1-2.6,1.6-4.6,1.6c-1.3,0-2.4-0.2-3.2-0.5C1139.9,634.3,1139.3,634,1138.8,633.7z M1147.6,623.8v-5.4
		c-0.2-0.1-0.4-0.1-0.8-0.2s-1-0.2-1.8-0.2c-0.9,0-1.8,0.2-2.5,0.6c-0.7,0.4-1.3,1-1.7,1.7c-0.4,0.7-0.6,1.5-0.6,2.5
		c0,0.8,0.1,1.5,0.4,2.2s0.7,1.2,1.2,1.6c0.6,0.4,1.3,0.6,2.2,0.6c0.8,0,1.5-0.2,2.1-0.5c0.5-0.3,0.9-0.7,1.2-1.2
		C1147.4,624.9,1147.6,624.4,1147.6,623.8z"/>
	<path d="M1156.1,629.1h-2.5v-11.8c0-0.1,0-0.3,0-0.5s0-0.4,0-0.8h2.4l0.1,2.1c0.2-0.3,0.5-0.6,0.8-1c0.4-0.3,0.8-0.7,1.4-0.9
		s1.2-0.4,2-0.4c0.3,0,0.5,0,0.8,0.1s0.4,0.1,0.7,0.2l-0.6,2.3c-0.3-0.1-0.8-0.2-1.3-0.2c-0.7,0-1.3,0.2-1.9,0.5
		c-0.6,0.4-1,0.8-1.4,1.4s-0.5,1.3-0.5,2L1156.1,629.1L1156.1,629.1z"/>
	<path d="M1163.7,613.8V611h2.8v2.8H1163.7z M1163.8,629.1v-13h2.5v13H1163.8z"/>
	<path d="M1172.4,634.7h-2.5v-17.3c0-0.2,0-0.3,0-0.5s0-0.5,0-0.8h2.4l0.1,1.8c0.2-0.2,0.5-0.5,0.8-0.8c0.4-0.3,0.8-0.6,1.4-0.9
		s1.3-0.4,2.2-0.4c1.3,0,2.4,0.3,3.3,1s1.5,1.5,1.9,2.5c0.4,1,0.6,2.2,0.6,3.4c0,1.2-0.2,2.2-0.6,3.1s-0.9,1.6-1.6,2.1
		c-0.7,0.5-1.4,1-2.2,1.2s-1.6,0.4-2.3,0.4c-0.9,0-1.6-0.1-2.1-0.3s-1-0.4-1.5-0.6L1172.4,634.7L1172.4,634.7z M1172.4,623v3.3
		c0.3,0.2,0.7,0.5,1.3,0.7c0.6,0.2,1.3,0.3,2.1,0.3c0.9,0,1.6-0.2,2.2-0.6c0.6-0.4,1.2-1,1.5-1.7c0.4-0.7,0.6-1.5,0.6-2.4
		c0-0.8-0.1-1.6-0.4-2.3s-0.7-1.3-1.2-1.7c-0.6-0.4-1.3-0.6-2.3-0.6c-0.9,0-1.6,0.2-2.3,0.8c-0.6,0.5-1.1,1.2-1.4,2.2
		c-0.1,0.3-0.1,0.6-0.2,1C1172.4,622.2,1172.4,622.6,1172.4,623z"/>
	<path d="M976.4,662.7l-0.1-1.6c-0.5,0.6-1.1,1.1-1.9,1.4c-0.8,0.3-1.6,0.5-2.5,0.5c-0.7,0-1.4-0.1-2.1-0.4s-1.3-0.7-1.7-1.3
		c-0.5-0.6-0.7-1.4-0.7-2.4c0-1.4,0.5-2.5,1.5-3.4c1-0.8,2.4-1.3,4.2-1.3c0.4,0,0.8,0,1.3,0c0.4,0,0.8,0.1,1.2,0.1
		c0.3,0,0.6,0,0.7,0.1v-0.5c0-1-0.3-1.7-0.9-2.1s-1.4-0.6-2.4-0.6c-1,0-1.8,0.1-2.3,0.4c-0.6,0.3-1.1,0.5-1.5,0.8l-1.2-1.7
		c0.5-0.4,1.1-0.7,1.9-1.1s1.9-0.5,3.3-0.5c1.7,0,3,0.4,4,1.2c1,0.8,1.5,2,1.5,3.5v7.6c0,0.1,0,0.3,0,0.5s0,0.4,0,0.7L976.4,662.7
		L976.4,662.7z M976.3,658.1v-1.5c-0.1,0-0.3-0.1-0.6-0.1c-0.3,0-0.7-0.1-1.1-0.1c-0.4,0-0.8,0-1.2,0c-0.9,0-1.7,0.1-2.1,0.4
		c-0.5,0.3-0.8,0.6-1,1s-0.3,0.8-0.3,1.2c0,0.7,0.2,1.2,0.7,1.6c0.5,0.4,1.2,0.6,2,0.6c0.7,0,1.3-0.1,1.8-0.4s1-0.7,1.3-1.1
		C976.1,659.1,976.3,658.6,976.3,658.1z"/>
	<path d="M984.7,662.7h-2.5v-11.7c0-0.2,0-0.3,0-0.5s0-0.5,0-0.8h2.4l0.1,2c0.2-0.3,0.5-0.7,0.9-1c0.4-0.3,0.8-0.6,1.4-0.9
		s1.2-0.4,2.1-0.4c1.7,0,3,0.5,3.8,1.5s1.2,2.3,1.2,4v7.8h-2.5v-7.6c0-1.2-0.3-2.1-0.8-2.7s-1.3-0.8-2.2-0.8c-1,0-1.7,0.2-2.3,0.7
		c-0.6,0.5-1,1.1-1.2,1.9c-0.2,0.8-0.3,1.6-0.3,2.4L984.7,662.7L984.7,662.7z"/>
	<path d="M1006.8,662.7l-0.1-1.7c-0.1,0.2-0.4,0.4-0.7,0.7c-0.3,0.3-0.8,0.6-1.4,0.9c-0.6,0.3-1.3,0.4-2.1,0.4c-1.1,0-2.1-0.3-3-0.8
		c-0.9-0.5-1.6-1.3-2.1-2.3s-0.8-2.2-0.8-3.6c0-1.2,0.2-2.3,0.6-3.2s1-1.6,1.6-2.2c0.7-0.6,1.4-1,2.2-1.2s1.5-0.4,2.2-0.4
		c0.7,0,1.3,0.1,1.8,0.2c0.5,0.2,1,0.3,1.5,0.6V644h2.5v17.4c0,0.1,0,0.2,0,0.5s0,0.5,0,0.8L1006.8,662.7L1006.8,662.7z
		 M1006.8,657.3v-4.7c-0.3-0.3-0.8-0.5-1.3-0.7s-1.2-0.3-1.9-0.3c-1.2,0-2.2,0.4-3,1.3s-1.2,2-1.2,3.5c0,0.8,0.1,1.6,0.4,2.3
		c0.3,0.7,0.7,1.2,1.2,1.6s1.3,0.6,2.1,0.6c0.9,0,1.6-0.2,2.1-0.6s0.9-0.9,1.2-1.5C1006.6,658.3,1006.8,657.8,1006.8,657.3z"/>
	<path d="M1018.8,662.7v-10.9h-2.3v-2.1h2.3v-0.6c0-1.3,0.3-2.4,0.8-3.2s1.2-1.4,2.2-1.8c0.9-0.4,1.9-0.5,3-0.5
		c0.8,0,1.6,0.1,2.4,0.4c0.8,0.2,1.6,0.6,2.2,1.1l-1.2,1.9c-0.4-0.3-1-0.6-1.6-0.8c-0.6-0.2-1.2-0.3-1.9-0.3c-1.1,0-1.9,0.2-2.5,0.7
		s-0.9,1.3-0.9,2.4v0.9h8.2v13h-2.5v-10.9h-5.6v10.9L1018.8,662.7L1018.8,662.7z"/>
	<path d="M1031.4,662.7l5-6.7l-4.7-6.3h3.1l3.1,4.3l3.1-4.3h2.8l-4.5,6.1l5.2,6.9h-3.2l-3.6-4.9l-3.6,4.9H1031.4z"/>
	<path d="M1050.6,667.7l1.2-1.8c0.2,0.2,0.4,0.3,0.6,0.5s0.5,0.2,0.9,0.2c0.6,0,1-0.3,1.3-0.8s0.7-1.3,1.1-2.3l0.3-0.8l-5.8-12.9
		h2.9l4.2,9.8l3.7-9.8h2.7l-5.2,12.7c-0.2,0.6-0.5,1.2-0.8,2c-0.3,0.7-0.6,1.4-0.9,2.1c-0.3,0.7-0.8,1.2-1.4,1.6s-1.2,0.6-2.1,0.6
		c-0.7,0-1.2-0.1-1.7-0.3C1051.3,668.2,1050.9,668,1050.6,667.7z"/>
	<path d="M1071.3,663.1c-1.3,0-2.5-0.3-3.6-0.9c-1.1-0.6-1.9-1.5-2.4-2.5c-0.6-1-0.9-2.2-0.9-3.5c0-1.3,0.3-2.4,0.9-3.5
		s1.4-1.9,2.4-2.5c1-0.6,2.2-0.9,3.6-0.9s2.5,0.3,3.5,0.9c1,0.6,1.8,1.5,2.4,2.5s0.9,2.2,0.9,3.5c0,1.2-0.3,2.4-0.9,3.5
		s-1.4,1.9-2.4,2.5S1072.6,663.1,1071.3,663.1z M1071.3,661c0.9,0,1.7-0.2,2.3-0.7c0.6-0.5,1.1-1,1.5-1.8c0.3-0.7,0.5-1.5,0.5-2.3
		c0-0.8-0.2-1.5-0.5-2.3c-0.3-0.7-0.8-1.3-1.5-1.8c-0.7-0.5-1.4-0.7-2.3-0.7c-0.9,0-1.7,0.2-2.3,0.7c-0.7,0.5-1.2,1-1.5,1.8
		s-0.5,1.5-0.5,2.3c0,0.8,0.2,1.5,0.5,2.2c0.3,0.7,0.8,1.3,1.5,1.8C1069.6,660.7,1070.4,661,1071.3,661z"/>
	<path d="M1080.9,657.5v-7.8h2.5v7.6c0,1.2,0.2,2.1,0.8,2.7c0.5,0.6,1.2,0.8,2.2,0.8c1,0,1.7-0.2,2.3-0.8c0.5-0.5,0.9-1.1,1.2-1.9
		s0.3-1.6,0.3-2.4v-6h2.5v11.7c0,0.1,0,0.2,0,0.5s0,0.5,0,0.8h-2.4l-0.1-1.9c-0.2,0.3-0.5,0.6-0.9,1s-0.8,0.6-1.4,0.9
		c-0.6,0.2-1.3,0.4-2.1,0.4c-1.7,0-2.9-0.5-3.8-1.5S1080.9,659.2,1080.9,657.5z"/>
	<path d="M1098.7,662.7h-2.5V651c0-0.1,0-0.3,0-0.5s0-0.4,0-0.8h2.4l0.1,2.1c0.2-0.3,0.5-0.6,0.8-1c0.4-0.3,0.8-0.7,1.4-0.9
		s1.2-0.4,2-0.4c0.3,0,0.5,0,0.8,0.1s0.4,0.1,0.7,0.2l-0.6,2.3c-0.3-0.1-0.8-0.2-1.3-0.2c-0.7,0-1.3,0.2-1.9,0.5
		c-0.6,0.4-1,0.8-1.4,1.4s-0.5,1.3-0.5,2L1098.7,662.7L1098.7,662.7z"/>
	<path d="M970.7,696.3h-2.5v-11.8c0-0.1,0-0.3,0-0.5s0-0.4,0-0.8h2.4l0.1,2.1c0.2-0.3,0.5-0.6,0.8-1c0.4-0.3,0.8-0.7,1.4-0.9
		s1.2-0.4,2-0.4c0.3,0,0.5,0,0.8,0.1c0.2,0,0.5,0.1,0.7,0.2l-0.6,2.3c-0.3-0.1-0.8-0.2-1.3-0.2c-0.7,0-1.3,0.2-1.9,0.5
		c-0.6,0.4-1,0.8-1.4,1.4s-0.5,1.3-0.5,2V696.3z"/>
	<path d="M986.2,696.3l-0.1-1.6c-0.5,0.6-1.1,1.1-1.9,1.4c-0.8,0.3-1.6,0.5-2.5,0.5c-0.7,0-1.4-0.1-2.1-0.4s-1.3-0.7-1.7-1.3
		c-0.5-0.6-0.7-1.4-0.7-2.4c0-1.4,0.5-2.5,1.5-3.4c1-0.8,2.4-1.3,4.2-1.3c0.4,0,0.8,0,1.3,0c0.4,0,0.8,0.1,1.2,0.1
		c0.3,0,0.6,0,0.7,0.1v-0.5c0-1-0.3-1.7-0.9-2.1s-1.4-0.6-2.4-0.6c-1,0-1.8,0.1-2.3,0.4c-0.6,0.3-1.1,0.5-1.5,0.8l-1.2-1.7
		c0.5-0.4,1.1-0.7,1.9-1.1s1.9-0.5,3.3-0.5c1.7,0,3,0.4,4,1.2c1,0.8,1.5,2,1.5,3.5v7.6c0,0.1,0,0.3,0,0.5s0,0.4,0,0.7L986.2,696.3
		L986.2,696.3z M986.1,691.7v-1.5c-0.1,0-0.3-0.1-0.6-0.1c-0.3,0-0.7-0.1-1.1-0.1c-0.4,0-0.8,0-1.2,0c-0.9,0-1.7,0.1-2.1,0.4
		c-0.5,0.3-0.8,0.6-1,1s-0.3,0.8-0.3,1.2c0,0.7,0.2,1.2,0.7,1.6c0.5,0.4,1.2,0.6,2,0.6c0.7,0,1.2-0.1,1.8-0.4c0.5-0.3,1-0.7,1.3-1.1
		C985.9,692.7,986.1,692.2,986.1,691.7z"/>
	<path d="M1001.7,692.9l1.5,1.6c-0.6,0.7-1.3,1.2-2.2,1.6s-1.8,0.6-2.9,0.6c-1.4,0-2.6-0.3-3.6-0.9c-1-0.6-1.8-1.4-2.4-2.5
		c-0.6-1-0.8-2.2-0.8-3.6c0-1.3,0.3-2.4,0.9-3.5s1.4-1.9,2.4-2.5c1-0.6,2.2-0.9,3.5-0.9c1.1,0,2.1,0.2,2.9,0.6
		c0.8,0.4,1.6,0.9,2.2,1.6l-1.7,1.6c-0.4-0.5-0.9-0.9-1.4-1.2s-1.2-0.4-2-0.4c-0.9,0-1.7,0.2-2.3,0.7s-1.1,1-1.5,1.7
		c-0.3,0.7-0.5,1.5-0.5,2.3c0,0.8,0.2,1.6,0.5,2.3c0.3,0.7,0.8,1.3,1.5,1.8s1.4,0.7,2.3,0.7c0.8,0,1.5-0.1,2.1-0.4
		S1001.3,693.4,1001.7,692.9z"/>
	<path d="M1014.3,701.9V695c-0.1,0.1-0.3,0.3-0.6,0.6s-0.7,0.5-1.3,0.8c-0.5,0.2-1.2,0.3-2,0.3c-1.3,0-2.5-0.3-3.4-0.9
		c-0.9-0.6-1.6-1.4-2.1-2.5s-0.7-2.2-0.7-3.4c0-1.3,0.3-2.5,0.9-3.6c0.6-1,1.5-1.9,2.6-2.5s2.4-0.9,3.8-0.9c1,0,2,0.1,2.9,0.3
		c0.9,0.2,1.7,0.4,2.2,0.6v18L1014.3,701.9L1014.3,701.9z M1014.3,691.1v-5.5c-0.2-0.1-0.5-0.1-0.8-0.2s-1-0.2-1.8-0.2
		c-1.5,0-2.6,0.4-3.5,1.3s-1.3,2-1.3,3.4c0,0.8,0.1,1.5,0.4,2.2s0.7,1.3,1.2,1.7s1.3,0.7,2.2,0.7c1.3,0,2.2-0.3,2.8-1
		S1014.3,692,1014.3,691.1z"/>
	<path d="M1020.2,691.1v-7.8h2.5v7.6c0,1.2,0.2,2.1,0.8,2.7c0.5,0.6,1.2,0.8,2.2,0.8c1,0,1.7-0.2,2.3-0.8c0.5-0.5,0.9-1.1,1.2-1.9
		s0.3-1.6,0.3-2.4v-6h2.5V695c0,0.1,0,0.2,0,0.5s0,0.5,0,0.8h-2.4l-0.1-1.9c-0.2,0.3-0.5,0.6-0.9,1s-0.8,0.6-1.4,0.9
		s-1.3,0.4-2.1,0.4c-1.7,0-3-0.5-3.8-1.5C1020.6,694.2,1020.2,692.8,1020.2,691.1z"/>
	<path d="M1045.9,692.9l1.4,1.5c-0.2,0.2-0.5,0.5-1,0.9s-1.1,0.7-1.9,1s-1.7,0.4-2.8,0.4c-1.3,0-2.5-0.3-3.6-0.9s-1.8-1.4-2.4-2.5
		s-0.8-2.3-0.8-3.7c0-1.3,0.3-2.4,0.8-3.4s1.3-1.8,2.3-2.5c1-0.6,2.1-0.9,3.4-0.9c1.5,0,2.7,0.4,3.7,1.1c0.9,0.7,1.6,1.7,2,2.8
		c0.4,1.2,0.6,2.4,0.6,3.7h-10.3c0,0.8,0.2,1.5,0.6,2.1s0.9,1.1,1.6,1.4s1.3,0.5,2.1,0.5c1.1,0,2-0.2,2.7-0.6
		C1045.1,693.7,1045.6,693.3,1045.9,692.9z M1037.4,688.7h7.7c-0.1-1-0.4-1.9-1.1-2.6s-1.5-1.1-2.7-1.1c-0.8,0-1.5,0.2-2.1,0.5
		c-0.6,0.3-1,0.8-1.3,1.4C1037.6,687.5,1037.4,688.1,1037.4,688.7z"/>
	<path d="M1051.6,692.1v-6.7h-2.3v-2.1h2.3v-4.3h2.5v4.3h3.8v2.1h-3.8v6.4c0,1,0.2,1.8,0.5,2.2c0.3,0.4,0.8,0.6,1.4,0.6
		c0.5,0,0.9-0.1,1.2-0.2c0.3-0.2,0.6-0.4,0.9-0.7l1.2,1.5c-0.5,0.5-1.1,0.9-1.7,1.1c-0.6,0.2-1.2,0.3-2,0.3c-1.4,0-2.4-0.4-3-1.1
		C1051.9,694.8,1051.6,693.7,1051.6,692.1z"/>
	<path d="M1061.5,696.3v-3.1h3.2v3.1H1061.5z"/>
	<path d="M1072,696.3l7.3-18.7h2.7l7.3,18.7h-3l-1.9-5.2h-7.7l-1.9,5.2H1072z M1077.6,688.9h6.1l-3-8.2L1077.6,688.9z"/>
	<path d="M1091.4,696.3v-18.7h2.5v18.7H1091.4z"/>
	<path d="M1097.4,696.3v-18.7h2.5v18.7H1097.4z"/>
	<path d="M1108.4,695.9v-18.2h2.5v7.1c0.3-0.3,0.7-0.7,1.4-1.1s1.6-0.6,2.6-0.6c1.3,0,2.4,0.3,3.3,0.9s1.6,1.4,2,2.4
		c0.4,1,0.7,2.2,0.7,3.4c0,1.4-0.3,2.6-0.9,3.6c-0.6,1.1-1.5,1.9-2.6,2.5c-1.1,0.6-2.4,0.9-3.8,0.9c-1.1,0-2.1-0.1-3-0.2
		C1109.7,696.3,1109,696.1,1108.4,695.9z M1110.9,689v5.2c0.3,0.1,0.6,0.2,1,0.2c0.4,0.1,0.9,0.1,1.7,0.1c1.4,0,2.6-0.5,3.5-1.3
		c0.9-0.9,1.3-2,1.3-3.4c0-0.8-0.1-1.5-0.4-2.2s-0.7-1.2-1.2-1.7c-0.6-0.4-1.3-0.6-2.2-0.6c-0.8,0-1.5,0.2-2,0.5s-1,0.8-1.2,1.4
		C1111,687.7,1110.9,688.4,1110.9,689z"/>
	<path d="M1134.2,692.9l1.4,1.5c-0.2,0.2-0.5,0.5-1,0.9s-1.1,0.7-1.9,1s-1.7,0.4-2.8,0.4c-1.3,0-2.5-0.3-3.6-0.9s-1.8-1.4-2.4-2.5
		s-0.8-2.3-0.8-3.7c0-1.3,0.3-2.4,0.8-3.4s1.3-1.8,2.3-2.5c1-0.6,2.1-0.9,3.4-0.9c1.5,0,2.7,0.4,3.7,1.1c0.9,0.7,1.6,1.7,2,2.8
		c0.4,1.2,0.6,2.4,0.6,3.7h-10.3c0,0.8,0.2,1.5,0.6,2.1s0.9,1.1,1.6,1.4s1.3,0.5,2.1,0.5c1.1,0,2-0.2,2.7-0.6
		C1133.4,693.7,1133.9,693.3,1134.2,692.9z M1125.7,688.7h7.7c-0.1-1-0.4-1.9-1.1-2.6s-1.5-1.1-2.7-1.1c-0.8,0-1.5,0.2-2.1,0.5
		c-0.6,0.3-1,0.8-1.3,1.4C1125.9,687.5,1125.7,688.1,1125.7,688.7z"/>
	<path d="M1138.7,681v-2.8h2.8v2.8H1138.7z M1138.9,696.3v-13h2.5v13H1138.9z"/>
	<path d="M1147.5,696.3h-2.5v-11.7c0-0.2,0-0.3,0-0.5s0-0.5,0-0.8h2.4l0.1,2c0.2-0.3,0.5-0.7,0.9-1c0.4-0.3,0.8-0.6,1.4-0.9
		s1.3-0.4,2.1-0.4c1.7,0,3,0.5,3.8,1.5c0.8,1,1.2,2.3,1.2,4v7.8h-2.5v-7.6c0-1.2-0.3-2.1-0.8-2.7s-1.3-0.8-2.2-0.8
		c-0.9,0-1.7,0.2-2.3,0.7c-0.6,0.5-1,1.1-1.2,1.9c-0.2,0.8-0.3,1.6-0.3,2.4L1147.5,696.3L1147.5,696.3z"/>
	<path d="M1160.8,700.8l1.2-1.8c0.4,0.3,1,0.5,1.6,0.8c0.6,0.2,1.4,0.3,2.3,0.3c1.2,0,2.2-0.3,2.8-1s0.9-1.6,0.9-2.7v-1.6
		c-0.2,0.2-0.4,0.4-0.8,0.6s-0.8,0.5-1.3,0.7s-1.2,0.3-2,0.3c-1.3,0-2.3-0.3-3.2-0.8c-0.9-0.6-1.6-1.3-2-2.3s-0.7-2.1-0.7-3.3
		c0-1.3,0.3-2.5,0.9-3.6s1.5-1.9,2.6-2.5s2.4-0.9,3.8-0.9c1,0,2,0.1,2.9,0.3s1.7,0.4,2.2,0.6v12.4c0,1.9-0.6,3.3-1.7,4.4
		c-1.1,1-2.6,1.6-4.6,1.6c-1.3,0-2.4-0.2-3.2-0.5C1161.9,701.5,1161.2,701.2,1160.8,700.8z M1169.6,691v-5.4
		c-0.2-0.1-0.4-0.1-0.8-0.2s-1-0.2-1.8-0.2c-0.9,0-1.8,0.2-2.5,0.6s-1.3,1-1.7,1.7c-0.4,0.7-0.6,1.5-0.6,2.5c0,0.8,0.1,1.5,0.4,2.2
		s0.7,1.2,1.2,1.6c0.6,0.4,1.3,0.6,2.2,0.6c0.8,0,1.5-0.2,2.1-0.5c0.5-0.3,0.9-0.7,1.2-1.2C1169.4,692.1,1169.6,691.6,1169.6,691z"
		/>
	<path d="M967.5,728.3l1.5-1.7c0.5,0.5,1,0.8,1.7,1.1c0.7,0.3,1.4,0.4,2.3,0.4c0.8,0,1.5-0.1,2.1-0.4c0.6-0.3,0.8-0.7,0.8-1.3
		c0-0.4-0.1-0.7-0.3-1c-0.2-0.2-0.6-0.5-1.2-0.7c-0.5-0.2-1.3-0.4-2.2-0.6c-0.7-0.2-1.3-0.4-2-0.7s-1.2-0.7-1.6-1.2
		c-0.4-0.5-0.6-1.2-0.6-2c0-0.8,0.2-1.5,0.7-2.1s1.1-1,1.9-1.3s1.6-0.4,2.5-0.4c1.1,0,2,0.2,2.9,0.4c0.8,0.3,1.5,0.7,2.1,1.2
		l-1.4,1.7c-0.4-0.3-0.9-0.7-1.5-0.9c-0.6-0.2-1.3-0.4-2.1-0.4c-0.8,0-1.5,0.1-1.9,0.4s-0.7,0.7-0.7,1.3c0,0.6,0.3,1,1,1.2
		s1.5,0.5,2.5,0.8c0.8,0.2,1.6,0.4,2.2,0.7c0.7,0.3,1.2,0.7,1.6,1.2c0.4,0.5,0.6,1.2,0.6,2c0,0.9-0.3,1.6-0.8,2.2
		c-0.5,0.6-1.2,1-2,1.3c-0.8,0.3-1.7,0.5-2.7,0.5C970.6,730.3,968.7,729.7,967.5,728.3z"/>
	<path d="M991.8,726.5l1.4,1.5c-0.2,0.2-0.5,0.5-1,0.9s-1.1,0.7-1.9,1s-1.7,0.4-2.8,0.4c-1.3,0-2.5-0.3-3.6-0.9s-1.8-1.4-2.4-2.5
		s-0.8-2.3-0.8-3.7c0-1.3,0.3-2.4,0.8-3.4s1.3-1.8,2.3-2.5s2.1-0.9,3.4-0.9c1.5,0,2.7,0.4,3.7,1.1c0.9,0.7,1.6,1.7,2,2.8
		c0.4,1.2,0.6,2.4,0.6,3.7h-10.3c0,0.8,0.2,1.5,0.6,2.1s0.9,1.1,1.5,1.4s1.3,0.5,2.1,0.5c1.1,0,2-0.2,2.7-0.6
		C991,727.2,991.5,726.9,991.8,726.5z M983.3,722.3h7.7c-0.1-1-0.4-1.9-1.1-2.6s-1.5-1.1-2.7-1.1c-0.8,0-1.5,0.2-2.1,0.5
		c-0.6,0.3-1,0.8-1.3,1.4S983.4,721.7,983.3,722.3z"/>
	<path d="M998.9,729.9h-2.5v-11.7c0-0.2,0-0.3,0-0.5s0-0.5,0-0.8h2.4l0.1,2c0.2-0.3,0.5-0.7,0.9-1c0.4-0.3,0.8-0.6,1.4-0.9
		s1.3-0.4,2.1-0.4c1.7,0,3,0.5,3.8,1.5s1.2,2.3,1.2,4v7.8h-2.5v-7.6c0-1.2-0.3-2.1-0.8-2.7c-0.5-0.6-1.3-0.8-2.2-0.8
		c-1,0-1.7,0.2-2.3,0.7c-0.6,0.5-1,1.1-1.2,1.9c-0.2,0.8-0.3,1.6-0.3,2.4L998.9,729.9L998.9,729.9z"/>
	<path d="M1012.8,725.7V719h-2.3v-2.1h2.3v-4.3h2.5v4.3h3.8v2.1h-3.8v6.4c0,1,0.2,1.8,0.5,2.2c0.3,0.4,0.8,0.6,1.4,0.6
		c0.5,0,0.9-0.1,1.2-0.2c0.3-0.2,0.6-0.4,0.9-0.7l1.2,1.5c-0.5,0.5-1.1,0.9-1.7,1.1s-1.2,0.3-2,0.3c-1.4,0-2.4-0.4-3-1.1
		C1013.1,728.4,1012.8,727.3,1012.8,725.7z"/>
	<path d="M1027.5,729.5v-18.2h2.5v7.1c0.3-0.3,0.7-0.7,1.4-1.1s1.6-0.6,2.6-0.6c1.3,0,2.4,0.3,3.3,0.9s1.6,1.4,2,2.4
		s0.7,2.2,0.7,3.4c0,1.4-0.3,2.6-0.9,3.6c-0.6,1.1-1.5,1.9-2.6,2.5c-1.1,0.6-2.4,0.9-3.8,0.9c-1.1,0-2.1-0.1-3-0.2
		C1028.8,729.9,1028,729.7,1027.5,729.5z M1029.9,722.6v5.2c0.3,0.1,0.6,0.2,1,0.2s0.9,0.1,1.7,0.1c1.4,0,2.6-0.5,3.5-1.3
		c0.9-0.9,1.3-2,1.3-3.4c0-0.8-0.1-1.5-0.4-2.2s-0.7-1.2-1.2-1.7s-1.3-0.6-2.2-0.6c-0.8,0-1.5,0.2-2,0.5c-0.6,0.3-1,0.8-1.2,1.4
		C1030.1,721.3,1029.9,722,1029.9,722.6z"/>
	<path d="M1051,729.9l-0.1-1.6c-0.5,0.6-1.1,1.1-1.9,1.4c-0.8,0.3-1.6,0.5-2.4,0.5c-0.7,0-1.4-0.1-2.1-0.4s-1.3-0.7-1.7-1.3
		s-0.7-1.4-0.7-2.4c0-1.4,0.5-2.5,1.5-3.4c1-0.8,2.4-1.3,4.2-1.3c0.4,0,0.8,0,1.3,0c0.4,0,0.8,0.1,1.2,0.1c0.3,0,0.6,0,0.7,0.1v-0.5
		c0-1-0.3-1.7-0.9-2.1s-1.4-0.6-2.4-0.6c-1,0-1.8,0.1-2.3,0.4c-0.6,0.3-1.1,0.5-1.5,0.8l-1.2-1.7c0.5-0.4,1.1-0.7,1.9-1.1
		s1.9-0.5,3.3-0.5c1.7,0,3,0.4,3.9,1.2s1.5,2,1.5,3.5v7.6c0,0.1,0,0.3,0,0.5s0,0.4,0,0.7L1051,729.9L1051,729.9z M1050.9,725.3v-1.5
		c-0.1,0-0.3-0.1-0.6-0.1c-0.3,0-0.7-0.1-1.1-0.1c-0.4,0-0.8,0-1.2,0c-0.9,0-1.7,0.1-2.1,0.4c-0.5,0.3-0.8,0.6-1,1s-0.3,0.8-0.3,1.2
		c0,0.7,0.2,1.2,0.7,1.6c0.5,0.4,1.2,0.6,2,0.6c0.7,0,1.3-0.1,1.8-0.4s1-0.7,1.3-1.1C1050.8,726.3,1050.9,725.8,1050.9,725.3z"/>
	<path d="M1066.6,726.5l1.5,1.6c-0.6,0.7-1.3,1.2-2.2,1.6s-1.8,0.6-2.9,0.6c-1.4,0-2.6-0.3-3.6-0.9c-1-0.6-1.8-1.4-2.4-2.5
		c-0.6-1-0.8-2.2-0.8-3.6c0-1.3,0.3-2.4,0.9-3.5s1.4-1.9,2.4-2.5c1-0.6,2.2-0.9,3.5-0.9c1.1,0,2.1,0.2,2.9,0.6
		c0.8,0.4,1.6,0.9,2.2,1.6l-1.7,1.6c-0.4-0.5-0.9-0.9-1.4-1.2s-1.2-0.4-2-0.4c-0.9,0-1.7,0.2-2.3,0.7s-1.1,1-1.5,1.7
		c-0.3,0.7-0.5,1.5-0.5,2.3c0,0.8,0.2,1.6,0.5,2.3c0.3,0.7,0.8,1.3,1.5,1.8s1.4,0.7,2.3,0.7c0.8,0,1.4-0.1,2.1-0.4
		S1066.2,727,1066.6,726.5z"/>
	<path d="M1070.6,729.9v-18.7h2.5v11l5.5-5.3h3l-4.9,4.8l5.7,8.2h-3l-4.4-6.5l-1.8,1.7v4.8H1070.6z"/>
	<path d="M1090.5,725.7V719h-2.3v-2.1h2.3v-4.3h2.5v4.3h3.8v2.1h-3.8v6.4c0,1,0.2,1.8,0.5,2.2c0.3,0.4,0.8,0.6,1.4,0.6
		c0.5,0,0.9-0.1,1.2-0.2c0.3-0.2,0.6-0.4,0.9-0.7l1.2,1.5c-0.5,0.5-1.1,0.9-1.7,1.1c-0.6,0.2-1.2,0.3-2,0.3c-1.4,0-2.4-0.4-3-1.1
		C1090.8,728.4,1090.5,727.3,1090.5,725.7z"/>
	<path d="M1105.5,730.3c-1.3,0-2.5-0.3-3.6-0.9c-1.1-0.6-1.9-1.5-2.4-2.5c-0.6-1-0.9-2.2-0.9-3.5c0-1.3,0.3-2.4,0.9-3.5
		s1.4-1.9,2.4-2.5c1-0.6,2.2-0.9,3.6-0.9s2.5,0.3,3.5,0.9c1,0.6,1.8,1.5,2.4,2.5s0.9,2.2,0.9,3.5c0,1.2-0.3,2.4-0.9,3.5
		s-1.4,1.9-2.4,2.5C1108,730,1106.8,730.3,1105.5,730.3z M1105.5,728.2c0.9,0,1.7-0.2,2.3-0.7c0.6-0.5,1.1-1,1.5-1.8
		c0.3-0.7,0.5-1.5,0.5-2.3c0-0.8-0.2-1.5-0.5-2.3s-0.8-1.3-1.5-1.8c-0.7-0.5-1.4-0.7-2.3-0.7c-0.9,0-1.7,0.2-2.3,0.7
		c-0.7,0.5-1.2,1-1.5,1.8c-0.3,0.7-0.5,1.5-0.5,2.3c0,0.8,0.2,1.5,0.5,2.2s0.8,1.3,1.5,1.8C1103.9,727.9,1104.6,728.2,1105.5,728.2z
		"/>
	<path d="M1119.2,734.9l1.2-1.8c0.2,0.2,0.4,0.3,0.6,0.5s0.5,0.2,0.9,0.2c0.6,0,1-0.3,1.3-0.8s0.7-1.3,1.1-2.3l0.3-0.8l-5.8-12.9
		h2.9l4.2,9.8l3.7-9.8h2.7l-5.2,12.7c-0.2,0.6-0.5,1.2-0.8,2c-0.3,0.7-0.6,1.4-0.9,2.1c-0.3,0.7-0.8,1.2-1.4,1.6s-1.2,0.6-2.1,0.6
		c-0.7,0-1.2-0.1-1.7-0.3C1120,735.4,1119.6,735.2,1119.2,734.9z"/>
	<path d="M1140,730.3c-1.3,0-2.5-0.3-3.6-0.9c-1.1-0.6-1.9-1.5-2.4-2.5c-0.6-1-0.9-2.2-0.9-3.5c0-1.3,0.3-2.4,0.9-3.5
		s1.4-1.9,2.4-2.5c1-0.6,2.2-0.9,3.6-0.9s2.5,0.3,3.5,0.9c1,0.6,1.8,1.5,2.4,2.5s0.9,2.2,0.9,3.5c0,1.2-0.3,2.4-0.9,3.5
		s-1.4,1.9-2.4,2.5C1142.5,730,1141.3,730.3,1140,730.3z M1140,728.2c0.9,0,1.7-0.2,2.3-0.7c0.6-0.5,1.1-1,1.5-1.8
		c0.3-0.7,0.5-1.5,0.5-2.3c0-0.8-0.2-1.5-0.5-2.3s-0.8-1.3-1.5-1.8c-0.7-0.5-1.4-0.7-2.3-0.7c-0.9,0-1.7,0.2-2.3,0.7
		c-0.7,0.5-1.2,1-1.5,1.8c-0.3,0.7-0.5,1.5-0.5,2.3c0,0.8,0.2,1.5,0.5,2.2s0.8,1.3,1.5,1.8C1138.3,727.9,1139.1,728.2,1140,728.2z"
		/>
	<path d="M1149.6,724.7v-7.8h2.5v7.6c0,1.2,0.2,2.1,0.8,2.7c0.5,0.6,1.2,0.8,2.2,0.8c1,0,1.7-0.2,2.3-0.8c0.5-0.5,0.9-1.1,1.2-1.9
		s0.3-1.6,0.3-2.4v-6h2.5v11.7c0,0.1,0,0.2,0,0.5s0,0.5,0,0.8h-2.4l-0.1-1.9c-0.2,0.3-0.5,0.6-0.9,1s-0.8,0.6-1.4,0.9
		s-1.3,0.4-2.1,0.4c-1.7,0-2.9-0.5-3.8-1.5C1150,727.8,1149.6,726.4,1149.6,724.7z"/>
	<path d="M1176.2,730.3c-1.3,0-2.5-0.3-3.6-0.9c-1.1-0.6-1.9-1.5-2.4-2.5c-0.6-1-0.9-2.2-0.9-3.5c0-1.3,0.3-2.4,0.9-3.5
		s1.4-1.9,2.4-2.5c1-0.6,2.2-0.9,3.6-0.9s2.5,0.3,3.5,0.9c1,0.6,1.8,1.5,2.4,2.5s0.9,2.2,0.9,3.5c0,1.2-0.3,2.4-0.9,3.5
		s-1.4,1.9-2.4,2.5C1178.7,730,1177.6,730.3,1176.2,730.3z M1176.2,728.2c0.9,0,1.7-0.2,2.3-0.7c0.6-0.5,1.1-1,1.5-1.8
		c0.3-0.7,0.5-1.5,0.5-2.3c0-0.8-0.2-1.5-0.5-2.3s-0.8-1.3-1.5-1.8c-0.7-0.5-1.4-0.7-2.3-0.7c-0.9,0-1.7,0.2-2.3,0.7
		c-0.7,0.5-1.2,1-1.5,1.8c-0.3,0.7-0.5,1.5-0.5,2.3c0,0.8,0.2,1.5,0.5,2.2s0.8,1.3,1.5,1.8C1174.6,727.9,1175.3,728.2,1176.2,728.2z
		"/>
	<path d="M1188.5,729.9h-2.5v-11.7c0-0.2,0-0.3,0-0.5s0-0.5,0-0.8h2.4l0.1,2c0.2-0.3,0.5-0.7,0.9-1c0.4-0.3,0.8-0.6,1.4-0.9
		s1.3-0.4,2.1-0.4c1.7,0,3,0.5,3.8,1.5c0.8,1,1.2,2.3,1.2,4v7.8h-2.5v-7.6c0-1.2-0.3-2.1-0.8-2.7s-1.3-0.8-2.2-0.8
		c-0.9,0-1.7,0.2-2.3,0.7c-0.6,0.5-1,1.1-1.2,1.9c-0.2,0.8-0.3,1.6-0.3,2.4L1188.5,729.9L1188.5,729.9z"/>
	<path d="M969.3,759.3v-6.7H967v-2.1h2.3v-4.3h2.5v4.3h3.8v2.1h-3.8v6.4c0,1,0.2,1.8,0.5,2.2c0.3,0.4,0.8,0.6,1.4,0.6
		c0.5,0,0.9-0.1,1.2-0.2c0.3-0.2,0.6-0.4,0.9-0.7l1.2,1.5c-0.5,0.5-1.1,0.9-1.7,1.1s-1.2,0.3-2,0.3c-1.4,0-2.4-0.4-3-1.1
		C969.6,762,969.3,760.9,969.3,759.3z"/>
	<path d="M978.9,763.5v-18.7h2.5v7.6c0.2-0.3,0.5-0.7,0.9-1c0.4-0.3,0.8-0.6,1.4-0.9s1.2-0.4,2.1-0.4c1.7,0,3,0.5,3.8,1.5
		s1.2,2.3,1.2,4v7.8h-2.5v-7.6c0-1.2-0.3-2.1-0.8-2.7s-1.3-0.8-2.2-0.8c-1,0-1.7,0.2-2.3,0.7c-0.6,0.5-1,1.1-1.2,1.9
		c-0.2,0.8-0.3,1.6-0.3,2.4v6L978.9,763.5L978.9,763.5z"/>
	<path d="M1004.6,760.1l1.4,1.5c-0.2,0.2-0.5,0.5-1,0.9s-1.1,0.7-1.9,1s-1.7,0.4-2.8,0.4c-1.3,0-2.5-0.3-3.6-0.9s-1.8-1.4-2.4-2.5
		s-0.8-2.3-0.8-3.7c0-1.3,0.3-2.4,0.8-3.4s1.3-1.8,2.3-2.5s2.1-0.9,3.4-0.9c1.5,0,2.7,0.4,3.7,1.1c0.9,0.7,1.6,1.7,2,2.8
		c0.4,1.2,0.6,2.4,0.6,3.7h-10.3c0,0.8,0.2,1.5,0.6,2.1s0.9,1.1,1.5,1.4s1.3,0.5,2.1,0.5c1.1,0,2-0.2,2.7-0.6
		C1003.8,760.8,1004.3,760.5,1004.6,760.1z M996.1,755.9h7.7c-0.1-1-0.4-1.9-1.1-2.6s-1.5-1.1-2.7-1.1c-0.8,0-1.5,0.2-2.1,0.5
		c-0.6,0.3-1,0.8-1.3,1.4C996.3,754.7,996.1,755.3,996.1,755.9z"/>
	<path d="M1013.5,762l1.5-1.7c0.5,0.5,1,0.8,1.7,1.1c0.7,0.3,1.4,0.4,2.3,0.4c0.8,0,1.5-0.1,2.1-0.4c0.6-0.3,0.8-0.7,0.8-1.3
		c0-0.4-0.1-0.7-0.3-1c-0.2-0.2-0.6-0.5-1.2-0.7c-0.5-0.2-1.3-0.4-2.2-0.6c-0.7-0.2-1.3-0.4-2-0.7s-1.2-0.7-1.6-1.2
		c-0.4-0.5-0.6-1.2-0.6-2c0-0.8,0.2-1.5,0.7-2.1s1.1-1,1.9-1.3s1.6-0.4,2.5-0.4c1.1,0,2,0.2,2.9,0.4c0.8,0.3,1.5,0.7,2.1,1.2
		l-1.4,1.7c-0.4-0.3-0.9-0.7-1.5-0.9c-0.6-0.2-1.3-0.4-2.1-0.4c-0.8,0-1.5,0.1-1.9,0.4s-0.7,0.7-0.7,1.3c0,0.6,0.3,1,1,1.2
		s1.5,0.5,2.5,0.8c0.8,0.2,1.6,0.4,2.2,0.7c0.7,0.3,1.2,0.7,1.6,1.2c0.4,0.5,0.6,1.2,0.6,2c0,0.9-0.3,1.6-0.8,2.2
		c-0.5,0.6-1.2,1-2,1.3c-0.8,0.3-1.7,0.5-2.7,0.5C1016.6,763.9,1014.8,763.3,1013.5,762z"/>
	<path d="M1035.6,763.5l-0.1-1.6c-0.5,0.6-1.1,1.1-1.9,1.4c-0.8,0.3-1.6,0.5-2.4,0.5c-0.7,0-1.4-0.1-2.1-0.4s-1.3-0.7-1.7-1.3
		s-0.7-1.4-0.7-2.4c0-1.4,0.5-2.5,1.5-3.4c1-0.8,2.4-1.3,4.2-1.3c0.4,0,0.8,0,1.3,0c0.4,0,0.8,0.1,1.2,0.1c0.3,0,0.6,0,0.7,0.1v-0.5
		c0-1-0.3-1.7-0.9-2.1s-1.4-0.6-2.4-0.6c-1,0-1.8,0.1-2.3,0.4c-0.6,0.3-1.1,0.5-1.5,0.8l-1.2-1.7c0.5-0.4,1.1-0.7,1.9-1.1
		s1.9-0.5,3.3-0.5c1.7,0,3,0.4,3.9,1.2s1.5,2,1.5,3.5v7.6c0,0.1,0,0.3,0,0.5s0,0.4,0,0.7L1035.6,763.5L1035.6,763.5z M1035.6,758.9
		v-1.5c-0.1,0-0.3-0.1-0.6-0.1c-0.3,0-0.7-0.1-1.1-0.1c-0.4,0-0.8,0-1.2,0c-0.9,0-1.7,0.1-2.1,0.4c-0.5,0.3-0.8,0.6-1,1
		s-0.3,0.8-0.3,1.2c0,0.7,0.2,1.2,0.7,1.6c0.5,0.4,1.2,0.6,2,0.6c0.7,0,1.2-0.1,1.8-0.4c0.6-0.3,1-0.7,1.3-1.1
		C1035.4,759.9,1035.6,759.4,1035.6,758.9z"/>
	<path d="M1043.9,763.5h-2.5v-11.7c0-0.2,0-0.3,0-0.5s0-0.5,0-0.8h2.4l0.1,2c0.2-0.3,0.5-0.7,0.8-1s0.8-0.6,1.4-0.9
		c0.6-0.2,1.2-0.4,2-0.4c1,0,1.8,0.2,2.5,0.6c0.7,0.4,1.2,1,1.6,1.8c0.5-0.6,1.2-1.2,1.9-1.6c0.8-0.5,1.7-0.7,2.8-0.7
		c1.7,0,2.9,0.5,3.7,1.5c0.8,1,1.2,2.3,1.2,4v7.8h-2.5v-7.6c0-2.3-0.9-3.5-2.8-3.5c-0.7,0-1.3,0.2-1.8,0.5c-0.5,0.4-1,0.8-1.3,1.4
		s-0.5,1.2-0.5,2v7.2h-2.5v-7.6c0-1.2-0.2-2.1-0.7-2.7s-1.2-0.8-2-0.8c-0.9,0-1.6,0.2-2.2,0.8c-0.5,0.5-0.9,1.1-1.2,1.9
		c-0.2,0.8-0.3,1.6-0.3,2.4L1043.9,763.5L1043.9,763.5z"/>
	<path d="M1075.7,760.1l1.4,1.5c-0.2,0.2-0.5,0.5-1,0.9s-1.1,0.7-1.9,1s-1.7,0.4-2.8,0.4c-1.3,0-2.5-0.3-3.6-0.9s-1.8-1.4-2.4-2.5
		s-0.8-2.3-0.8-3.7c0-1.3,0.3-2.4,0.8-3.4s1.3-1.8,2.3-2.5c1-0.6,2.1-0.9,3.4-0.9c1.5,0,2.7,0.4,3.7,1.1c0.9,0.7,1.6,1.7,2,2.8
		c0.4,1.2,0.6,2.4,0.6,3.7h-10.3c0,0.8,0.2,1.5,0.6,2.1s0.9,1.1,1.6,1.4s1.3,0.5,2.1,0.5c1.1,0,2-0.2,2.7-0.6
		C1074.8,760.8,1075.3,760.5,1075.7,760.1z M1067.1,755.9h7.7c-0.1-1-0.4-1.9-1.1-2.6s-1.5-1.1-2.7-1.1c-0.8,0-1.5,0.2-2.1,0.5
		c-0.6,0.3-1,0.8-1.3,1.4C1067.3,754.7,1067.2,755.3,1067.1,755.9z"/>
	<path d="M1094.7,763.5l-0.1-1.7c-0.1,0.2-0.4,0.4-0.7,0.7s-0.8,0.6-1.4,0.9c-0.6,0.3-1.3,0.4-2.1,0.4c-1.1,0-2.1-0.3-3-0.8
		s-1.6-1.3-2.1-2.3s-0.8-2.2-0.8-3.6c0-1.2,0.2-2.3,0.6-3.2s1-1.6,1.6-2.2s1.4-1,2.2-1.2s1.5-0.4,2.2-0.4c0.7,0,1.3,0.1,1.8,0.2
		s1,0.3,1.6,0.6v-6.2h2.5v17.4c0,0.1,0,0.2,0,0.5s0,0.5,0,0.8L1094.7,763.5L1094.7,763.5z M1094.7,758.1v-4.7
		c-0.3-0.3-0.8-0.5-1.3-0.7s-1.2-0.3-1.9-0.3c-1.2,0-2.2,0.4-3,1.3s-1.2,2-1.2,3.5c0,0.8,0.1,1.6,0.4,2.3c0.3,0.7,0.7,1.2,1.2,1.6
		s1.3,0.6,2.1,0.6c0.9,0,1.6-0.2,2.1-0.6s0.9-0.9,1.2-1.5C1094.5,759.1,1094.7,758.6,1094.7,758.1z"/>
	<path d="M1108.9,763.5l-0.1-1.6c-0.5,0.6-1.1,1.1-1.9,1.4c-0.8,0.3-1.6,0.5-2.4,0.5c-0.7,0-1.4-0.1-2.1-0.4s-1.3-0.7-1.7-1.3
		s-0.7-1.4-0.7-2.4c0-1.4,0.5-2.5,1.5-3.4c1-0.8,2.4-1.3,4.2-1.3c0.4,0,0.8,0,1.3,0c0.4,0,0.8,0.1,1.2,0.1c0.3,0,0.6,0,0.7,0.1v-0.5
		c0-1-0.3-1.7-0.9-2.1s-1.4-0.6-2.4-0.6c-1,0-1.8,0.1-2.3,0.4c-0.6,0.3-1.1,0.5-1.5,0.8l-1.2-1.7c0.5-0.4,1.1-0.7,1.9-1.1
		s1.9-0.5,3.3-0.5c1.7,0,3,0.4,3.9,1.2s1.5,2,1.5,3.5v7.6c0,0.1,0,0.3,0,0.5s0,0.4,0,0.7L1108.9,763.5L1108.9,763.5z M1108.8,758.9
		v-1.5c-0.1,0-0.3-0.1-0.6-0.1c-0.3,0-0.7-0.1-1.1-0.1c-0.4,0-0.8,0-1.2,0c-0.9,0-1.7,0.1-2.1,0.4c-0.5,0.3-0.8,0.6-1,1
		s-0.3,0.8-0.3,1.2c0,0.7,0.2,1.2,0.7,1.6c0.5,0.4,1.2,0.6,2,0.6c0.7,0,1.2-0.1,1.8-0.4c0.6-0.3,1-0.7,1.3-1.1
		C1108.6,759.9,1108.8,759.4,1108.8,758.9z"/>
	<path d="M1113,768.5l1.2-1.8c0.2,0.2,0.4,0.3,0.6,0.5s0.5,0.2,0.9,0.2c0.6,0,1-0.3,1.3-0.8s0.7-1.3,1.1-2.3l0.3-0.8l-5.8-12.9h2.9
		l4.2,9.8l3.7-9.8h2.7l-5.2,12.7c-0.2,0.6-0.5,1.2-0.8,2c-0.3,0.7-0.6,1.4-0.9,2.1c-0.4,0.7-0.8,1.2-1.4,1.6s-1.2,0.6-2.1,0.6
		c-0.7,0-1.2-0.1-1.7-0.3S1113.3,768.8,1113,768.5z"/>
	<path d="M1126,763.5v-3.1h3.2v3.1H1126z"/>
</g>
<g>
	<rect x="1278.2" y="610.5" class="st4" width="244.3" height="157"/>
	<path d="M1285.1,629.2v-8.3l-6.4-10.3h3l4.9,8l4.9-8h2.9l-6.5,10.3v8.3H1285.1z"/>
	<path d="M1299.5,629.5c-1.3,0-2.5-0.3-3.6-0.9c-1.1-0.6-1.9-1.5-2.4-2.5c-0.6-1-0.9-2.2-0.9-3.5c0-1.3,0.3-2.4,0.9-3.5
		s1.4-1.9,2.4-2.5c1-0.6,2.2-0.9,3.6-0.9s2.5,0.3,3.5,0.9c1,0.6,1.8,1.5,2.4,2.5s0.9,2.2,0.9,3.5c0,1.2-0.3,2.4-0.9,3.5
		s-1.4,1.9-2.4,2.5S1300.8,629.5,1299.5,629.5z M1299.5,627.3c0.9,0,1.7-0.2,2.3-0.7c0.6-0.5,1.1-1,1.5-1.8c0.3-0.7,0.5-1.5,0.5-2.3
		c0-0.8-0.2-1.5-0.5-2.3c-0.3-0.7-0.8-1.3-1.5-1.8c-0.7-0.5-1.4-0.7-2.3-0.7c-0.9,0-1.7,0.2-2.3,0.7c-0.7,0.5-1.2,1-1.5,1.8
		s-0.5,1.5-0.5,2.3c0,0.8,0.2,1.5,0.5,2.2c0.3,0.7,0.8,1.3,1.5,1.8C1297.8,627.1,1298.6,627.3,1299.5,627.3z"/>
	<path d="M1309.1,623.9v-7.8h2.5v7.6c0,1.2,0.2,2.1,0.8,2.7c0.5,0.6,1.2,0.8,2.2,0.8c1,0,1.7-0.2,2.3-0.8c0.5-0.5,0.9-1.1,1.2-1.9
		s0.3-1.6,0.3-2.4v-6h2.5v11.7c0,0.1,0,0.2,0,0.5s0,0.5,0,0.8h-2.4l-0.1-1.9c-0.2,0.3-0.5,0.6-0.9,1s-0.8,0.6-1.4,0.9
		c-0.6,0.2-1.3,0.4-2.1,0.4c-1.7,0-2.9-0.5-3.8-1.5S1309.1,625.6,1309.1,623.9z"/>
	<path d="M1332.4,629.2l-4.4-13h2.8l2.9,9.9l3.1-9.9h2.2l3.1,10l2.9-10h2.6l-4.3,13h-2.5l-3-9.1l-3,9.1H1332.4z"/>
	<path d="M1349.6,613.8V611h2.8v2.8H1349.6z M1349.8,629.2v-13h2.5v13H1349.8z"/>
	<path d="M1355.9,629.2v-18.7h2.5v18.7H1355.9z"/>
	<path d="M1361.8,629.2v-18.7h2.5v18.7H1361.8z"/>
	<path d="M1375.4,629.2h-2.5v-11.8c0-0.1,0-0.3,0-0.5s0-0.4,0-0.8h2.4l0.1,2.1c0.2-0.3,0.5-0.6,0.8-1c0.4-0.3,0.8-0.7,1.4-0.9
		s1.2-0.4,2-0.4c0.3,0,0.5,0,0.8,0.1s0.4,0.1,0.7,0.2l-0.6,2.3c-0.3-0.1-0.8-0.2-1.3-0.2c-0.7,0-1.3,0.2-1.9,0.5s-1,0.8-1.4,1.4
		s-0.5,1.3-0.5,2L1375.4,629.2L1375.4,629.2z"/>
	<path d="M1392.8,625.7l1.4,1.5c-0.2,0.2-0.5,0.5-1,0.9s-1.1,0.7-1.9,1s-1.7,0.4-2.8,0.4c-1.3,0-2.5-0.3-3.6-0.9s-1.8-1.4-2.4-2.5
		s-0.8-2.3-0.8-3.7c0-1.3,0.3-2.4,0.8-3.4s1.3-1.8,2.3-2.5c1-0.6,2.1-0.9,3.4-0.9c1.5,0,2.7,0.4,3.7,1.1c0.9,0.7,1.6,1.7,2,2.8
		c0.4,1.2,0.6,2.4,0.6,3.7h-10.3c0,0.8,0.2,1.5,0.6,2.1s0.9,1.1,1.6,1.4s1.3,0.5,2.1,0.5c1.1,0,2-0.2,2.7-0.6
		C1392,626.5,1392.5,626.1,1392.8,625.7z M1384.3,621.5h7.7c-0.1-1-0.4-1.9-1.1-2.6s-1.5-1.1-2.7-1.1c-0.8,0-1.5,0.2-2.1,0.5
		c-0.6,0.3-1,0.8-1.3,1.4C1384.5,620.3,1384.3,620.9,1384.3,621.5z"/>
	<path d="M1407.1,625.7l1.5,1.6c-0.6,0.7-1.3,1.2-2.2,1.6s-1.8,0.6-2.9,0.6c-1.4,0-2.6-0.3-3.6-0.9c-1-0.6-1.8-1.4-2.4-2.5
		c-0.6-1-0.8-2.2-0.8-3.6c0-1.3,0.3-2.4,0.9-3.5s1.4-1.9,2.4-2.5c1-0.6,2.2-0.9,3.5-0.9c1.1,0,2.1,0.2,2.9,0.6
		c0.8,0.4,1.6,0.9,2.2,1.6l-1.7,1.6c-0.4-0.5-0.9-0.9-1.4-1.2s-1.2-0.4-2-0.4c-0.9,0-1.7,0.2-2.3,0.7s-1.1,1-1.5,1.7
		c-0.3,0.7-0.5,1.5-0.5,2.3c0,0.8,0.2,1.6,0.5,2.3c0.3,0.7,0.8,1.3,1.5,1.8s1.4,0.7,2.3,0.7c0.8,0,1.4-0.1,2.1-0.4
		S1406.7,626.2,1407.1,625.7z"/>
	<path d="M1420.8,625.7l1.4,1.5c-0.2,0.2-0.5,0.5-1,0.9s-1.1,0.7-1.9,1s-1.7,0.4-2.8,0.4c-1.3,0-2.5-0.3-3.6-0.9s-1.8-1.4-2.4-2.5
		s-0.8-2.3-0.8-3.7c0-1.3,0.3-2.4,0.8-3.4s1.3-1.8,2.3-2.5c1-0.6,2.1-0.9,3.4-0.9c1.5,0,2.7,0.4,3.7,1.1c0.9,0.7,1.6,1.7,2,2.8
		c0.4,1.2,0.6,2.4,0.6,3.7h-10.3c0,0.8,0.2,1.5,0.6,2.1s0.9,1.1,1.6,1.4s1.3,0.5,2.1,0.5c1.1,0,2-0.2,2.7-0.6
		C1420,626.5,1420.5,626.1,1420.8,625.7z M1412.3,621.5h7.7c-0.1-1-0.4-1.9-1.1-2.6s-1.5-1.1-2.7-1.1c-0.8,0-1.5,0.2-2.1,0.5
		c-0.6,0.3-1,0.8-1.3,1.4C1412.5,620.3,1412.3,620.9,1412.3,621.5z"/>
	<path d="M1425.3,613.8V611h2.8v2.8H1425.3z M1425.5,629.2v-13h2.5v13H1425.5z"/>
	<path d="M1435.6,629.2l-5.6-13h2.9l4.1,10.2l4-10.2h2.7l-5.6,13H1435.6z"/>
	<path d="M1455.4,625.7l1.4,1.5c-0.2,0.2-0.5,0.5-1,0.9s-1.1,0.7-1.9,1s-1.7,0.4-2.8,0.4c-1.3,0-2.5-0.3-3.6-0.9s-1.8-1.4-2.4-2.5
		s-0.8-2.3-0.8-3.7c0-1.3,0.3-2.4,0.8-3.4s1.3-1.8,2.3-2.5c1-0.6,2.1-0.9,3.4-0.9c1.5,0,2.7,0.4,3.7,1.1c0.9,0.7,1.6,1.7,2,2.8
		c0.4,1.2,0.6,2.4,0.6,3.7h-10.3c0,0.8,0.2,1.5,0.6,2.1s0.9,1.1,1.6,1.4s1.3,0.5,2.1,0.5c1.1,0,2-0.2,2.7-0.6
		C1454.6,626.5,1455.1,626.1,1455.4,625.7z M1446.9,621.5h7.7c-0.1-1-0.4-1.9-1.1-2.6s-1.5-1.1-2.7-1.1c-0.8,0-1.5,0.2-2.1,0.5
		c-0.6,0.3-1,0.8-1.3,1.4C1447.1,620.3,1446.9,620.9,1446.9,621.5z"/>
	<path d="M1463.9,634.1l1.2-1.8c0.2,0.2,0.4,0.3,0.6,0.5s0.5,0.2,0.9,0.2c0.6,0,1-0.3,1.3-0.8s0.7-1.3,1.1-2.3l0.3-0.8l-5.8-12.9
		h2.9l4.2,9.8l3.7-9.8h2.7l-5.2,12.7c-0.2,0.6-0.5,1.2-0.8,2c-0.3,0.7-0.6,1.4-0.9,2.1c-0.3,0.7-0.8,1.2-1.4,1.6s-1.2,0.6-2.1,0.6
		c-0.7,0-1.2-0.1-1.7-0.3C1464.7,634.6,1464.2,634.4,1463.9,634.1z"/>
	<path d="M1484.6,629.5c-1.3,0-2.5-0.3-3.6-0.9c-1.1-0.6-1.9-1.5-2.4-2.5c-0.6-1-0.9-2.2-0.9-3.5c0-1.3,0.3-2.4,0.9-3.5
		s1.4-1.9,2.4-2.5c1-0.6,2.2-0.9,3.6-0.9s2.5,0.3,3.5,0.9c1,0.6,1.8,1.5,2.4,2.5s0.9,2.2,0.9,3.5c0,1.2-0.3,2.4-0.9,3.5
		s-1.4,1.9-2.4,2.5S1486,629.5,1484.6,629.5z M1484.6,627.3c0.9,0,1.7-0.2,2.3-0.7c0.6-0.5,1.1-1,1.5-1.8c0.3-0.7,0.5-1.5,0.5-2.3
		c0-0.8-0.2-1.5-0.5-2.3c-0.3-0.7-0.8-1.3-1.5-1.8c-0.7-0.5-1.4-0.7-2.3-0.7c-0.9,0-1.7,0.2-2.3,0.7c-0.7,0.5-1.2,1-1.5,1.8
		s-0.5,1.5-0.5,2.3c0,0.8,0.2,1.5,0.5,2.2c0.3,0.7,0.8,1.3,1.5,1.8C1483,627.1,1483.7,627.3,1484.6,627.3z"/>
	<path d="M1494.3,623.9v-7.8h2.5v7.6c0,1.2,0.2,2.1,0.8,2.7c0.5,0.6,1.2,0.8,2.2,0.8c1,0,1.7-0.2,2.3-0.8c0.5-0.5,0.9-1.1,1.2-1.9
		s0.3-1.6,0.3-2.4v-6h2.5v11.7c0,0.1,0,0.2,0,0.5s0,0.5,0,0.8h-2.4l-0.1-1.9c-0.2,0.3-0.5,0.6-0.9,1s-0.8,0.6-1.4,0.9
		c-0.6,0.2-1.3,0.4-2.1,0.4c-1.7,0-2.9-0.5-3.8-1.5S1494.3,625.6,1494.3,623.9z"/>
	<path d="M1512.1,629.2h-2.5v-11.8c0-0.1,0-0.3,0-0.5s0-0.4,0-0.8h2.4l0.1,2.1c0.2-0.3,0.5-0.6,0.8-1c0.4-0.3,0.8-0.7,1.4-0.9
		s1.2-0.4,2-0.4c0.3,0,0.5,0,0.8,0.1s0.4,0.1,0.7,0.2l-0.6,2.3c-0.3-0.1-0.8-0.2-1.3-0.2c-0.7,0-1.3,0.2-1.9,0.5
		c-0.6,0.4-1,0.8-1.4,1.4s-0.5,1.3-0.5,2L1512.1,629.2L1512.1,629.2z"/>
	<path d="M1282.4,662.8h-2.5V651c0-0.1,0-0.3,0-0.5s0-0.4,0-0.8h2.4l0.1,2.1c0.2-0.3,0.5-0.6,0.8-1c0.4-0.3,0.8-0.7,1.4-0.9
		s1.2-0.4,2-0.4c0.3,0,0.5,0,0.8,0.1s0.4,0.1,0.7,0.2l-0.6,2.3c-0.3-0.1-0.8-0.2-1.3-0.2c-0.7,0-1.3,0.2-1.9,0.5s-1,0.8-1.4,1.4
		s-0.5,1.3-0.5,2L1282.4,662.8L1282.4,662.8z"/>
	<path d="M1297.9,662.8l-0.1-1.6c-0.5,0.6-1.1,1.1-1.9,1.4c-0.8,0.3-1.6,0.5-2.4,0.5c-0.7,0-1.4-0.1-2.1-0.4s-1.3-0.7-1.7-1.3
		s-0.7-1.4-0.7-2.4c0-1.4,0.5-2.5,1.5-3.4c1-0.8,2.4-1.3,4.2-1.3c0.4,0,0.8,0,1.3,0c0.4,0,0.8,0.1,1.2,0.1c0.3,0,0.6,0,0.7,0.1v-0.5
		c0-1-0.3-1.7-0.9-2.1s-1.4-0.6-2.4-0.6c-1,0-1.8,0.1-2.3,0.4c-0.6,0.3-1.1,0.5-1.5,0.8l-1.2-1.7c0.5-0.4,1.1-0.7,1.9-1.1
		s1.9-0.5,3.3-0.5c1.7,0,3,0.4,3.9,1.2s1.5,2,1.5,3.5v7.6c0,0.1,0,0.3,0,0.5s0,0.4,0,0.7L1297.9,662.8L1297.9,662.8z M1297.8,658.1
		v-1.5c-0.1,0-0.3-0.1-0.6-0.1c-0.3,0-0.7-0.1-1.1-0.1c-0.4,0-0.8,0-1.2,0c-0.9,0-1.7,0.1-2.1,0.4c-0.5,0.3-0.8,0.6-1,1
		s-0.3,0.8-0.3,1.2c0,0.7,0.2,1.2,0.7,1.6c0.5,0.4,1.2,0.6,2,0.6c0.7,0,1.3-0.1,1.8-0.4s1-0.7,1.3-1.1
		C1297.6,659.1,1297.8,658.6,1297.8,658.1z"/>
	<path d="M1313.4,659.3l1.5,1.6c-0.6,0.7-1.3,1.2-2.2,1.6s-1.8,0.6-2.9,0.6c-1.4,0-2.6-0.3-3.6-0.9c-1-0.6-1.8-1.4-2.4-2.5
		c-0.6-1-0.8-2.2-0.8-3.6c0-1.3,0.3-2.4,0.9-3.5s1.4-1.9,2.4-2.5c1-0.6,2.2-0.9,3.5-0.9c1.1,0,2.1,0.2,2.9,0.6
		c0.8,0.4,1.6,0.9,2.2,1.6l-1.7,1.6c-0.4-0.5-0.9-0.9-1.4-1.2s-1.2-0.4-2-0.4c-0.9,0-1.7,0.2-2.3,0.7s-1.1,1-1.5,1.7
		c-0.3,0.7-0.5,1.5-0.5,2.3c0,0.8,0.2,1.6,0.5,2.3c0.3,0.7,0.8,1.3,1.5,1.8s1.4,0.7,2.3,0.7c0.8,0,1.4-0.1,2.1-0.4
		S1313,659.8,1313.4,659.3z"/>
	<path d="M1326,668.3v-6.9c-0.1,0.1-0.3,0.3-0.6,0.6s-0.7,0.5-1.3,0.8s-1.2,0.3-1.9,0.3c-1.3,0-2.5-0.3-3.4-0.9
		c-0.9-0.6-1.6-1.4-2.1-2.5c-0.5-1-0.7-2.2-0.7-3.4c0-1.3,0.3-2.5,0.9-3.6s1.5-1.9,2.6-2.5s2.4-0.9,3.8-0.9c1,0,2,0.1,2.9,0.3
		c0.9,0.2,1.7,0.4,2.2,0.6v18L1326,668.3L1326,668.3z M1326,657.5V652c-0.2-0.1-0.4-0.1-0.8-0.2s-1-0.2-1.8-0.2
		c-1.5,0-2.6,0.4-3.5,1.3s-1.3,2-1.3,3.4c0,0.8,0.1,1.5,0.4,2.2s0.7,1.3,1.2,1.7c0.6,0.4,1.3,0.7,2.2,0.7c1.3,0,2.2-0.3,2.8-1
		S1326,658.4,1326,657.5z"/>
	<path d="M1331.9,657.5v-7.8h2.5v7.6c0,1.2,0.2,2.1,0.8,2.7c0.5,0.6,1.2,0.8,2.2,0.8c1,0,1.7-0.2,2.3-0.8c0.5-0.5,0.9-1.1,1.2-1.9
		s0.3-1.6,0.3-2.4v-6h2.5v11.7c0,0.1,0,0.2,0,0.5s0,0.5,0,0.8h-2.4l-0.1-1.9c-0.2,0.3-0.5,0.6-0.9,1s-0.8,0.6-1.4,0.9
		c-0.6,0.2-1.3,0.4-2.1,0.4c-1.7,0-2.9-0.5-3.8-1.5S1331.9,659.2,1331.9,657.5z"/>
	<path d="M1357.6,659.3l1.4,1.5c-0.2,0.2-0.5,0.5-1,0.9s-1.1,0.7-1.9,1c-0.8,0.3-1.7,0.4-2.8,0.4c-1.3,0-2.5-0.3-3.6-0.9
		s-1.8-1.4-2.4-2.5s-0.8-2.3-0.8-3.7c0-1.3,0.3-2.4,0.8-3.4c0.6-1,1.3-1.8,2.3-2.5c1-0.6,2.1-0.9,3.4-0.9c1.5,0,2.7,0.4,3.7,1.1
		c0.9,0.7,1.6,1.7,2,2.8c0.4,1.2,0.6,2.4,0.6,3.7h-10.3c0,0.8,0.2,1.5,0.6,2.1c0.4,0.6,0.9,1.1,1.6,1.4s1.3,0.5,2.1,0.5
		c1.1,0,2-0.2,2.7-0.6C1356.8,660,1357.3,659.7,1357.6,659.3z M1349.1,655.1h7.7c-0.1-1-0.4-1.9-1.1-2.6s-1.5-1.1-2.7-1.1
		c-0.8,0-1.5,0.2-2.1,0.5c-0.6,0.3-1,0.8-1.3,1.4C1349.3,653.9,1349.2,654.5,1349.1,655.1z"/>
	<path d="M1363.3,658.5v-6.7h-2.3v-2.1h2.3v-4.3h2.5v4.3h3.8v2.1h-3.8v6.4c0,1,0.2,1.8,0.5,2.2c0.3,0.4,0.8,0.6,1.4,0.6
		c0.5,0,0.9-0.1,1.2-0.2c0.3-0.2,0.6-0.4,0.9-0.7l1.2,1.5c-0.5,0.5-1.1,0.9-1.7,1.1c-0.6,0.2-1.2,0.3-2,0.3c-1.4,0-2.4-0.4-3-1.1
		C1363.6,661.2,1363.3,660.1,1363.3,658.5z"/>
	<path d="M1381,662.8l-4.4-13h2.8l2.9,9.9l3.1-9.9h2.2l3.1,10l2.9-10h2.6l-4.3,13h-2.5l-3-9.1l-3,9.1H1381z"/>
	<path d="M1398.2,647.4v-2.8h2.8v2.8H1398.2z M1398.3,662.8v-13h2.5v13H1398.3z"/>
	<path d="M1405.6,658.5v-6.7h-2.3v-2.1h2.3v-4.3h2.5v4.3h3.8v2.1h-3.8v6.4c0,1,0.2,1.8,0.5,2.2c0.3,0.4,0.8,0.6,1.4,0.6
		c0.5,0,0.9-0.1,1.2-0.2c0.3-0.2,0.6-0.4,0.9-0.7l1.2,1.5c-0.5,0.5-1.1,0.9-1.7,1.1c-0.6,0.2-1.2,0.3-2,0.3c-1.4,0-2.4-0.4-3-1.1
		C1405.9,661.2,1405.6,660.1,1405.6,658.5z"/>
	<path d="M1415.2,662.8v-18.7h2.5v7.6c0.2-0.3,0.5-0.7,0.9-1c0.4-0.3,0.8-0.6,1.4-0.9c0.6-0.2,1.2-0.4,2.1-0.4c1.7,0,3,0.5,3.8,1.5
		c0.8,1,1.2,2.3,1.2,4v7.8h-2.5v-7.6c0-1.2-0.3-2.1-0.8-2.7s-1.3-0.8-2.2-0.8c-0.9,0-1.7,0.2-2.3,0.7c-0.6,0.5-1,1.1-1.2,1.9
		c-0.2,0.8-0.3,1.6-0.3,2.4v6L1415.2,662.8L1415.2,662.8z"/>
	<path d="M1430.3,647.4v-2.8h2.8v2.8H1430.3z M1430.5,662.8v-13h2.5v13H1430.5z"/>
	<path d="M1439.1,662.8h-2.5v-11.7c0-0.2,0-0.3,0-0.5s0-0.5,0-0.8h2.4l0.1,2c0.2-0.3,0.5-0.7,0.9-1c0.4-0.3,0.8-0.6,1.4-0.9
		s1.2-0.4,2.1-0.4c1.7,0,3,0.5,3.8,1.5c0.8,1,1.2,2.3,1.2,4v7.8h-2.5v-7.6c0-1.2-0.3-2.1-0.8-2.7s-1.3-0.8-2.2-0.8
		c-0.9,0-1.7,0.2-2.3,0.7c-0.6,0.5-1,1.1-1.2,1.9c-0.2,0.8-0.3,1.6-0.3,2.4L1439.1,662.8L1439.1,662.8z"/>
	<path d="M1465.1,662.8l-0.1-1.6c-0.5,0.6-1.1,1.1-1.9,1.4c-0.8,0.3-1.6,0.5-2.4,0.5c-0.7,0-1.4-0.1-2.1-0.4s-1.3-0.7-1.7-1.3
		s-0.7-1.4-0.7-2.4c0-1.4,0.5-2.5,1.5-3.4c1-0.8,2.4-1.3,4.2-1.3c0.4,0,0.8,0,1.3,0c0.4,0,0.8,0.1,1.2,0.1c0.3,0,0.6,0,0.7,0.1v-0.5
		c0-1-0.3-1.7-0.9-2.1s-1.4-0.6-2.4-0.6c-1,0-1.8,0.1-2.3,0.4c-0.6,0.3-1.1,0.5-1.5,0.8l-1.2-1.7c0.5-0.4,1.1-0.7,1.9-1.1
		s1.9-0.5,3.3-0.5c1.7,0,3,0.4,3.9,1.2s1.5,2,1.5,3.5v7.6c0,0.1,0,0.3,0,0.5s0,0.4,0,0.7L1465.1,662.8L1465.1,662.8z M1465,658.1
		v-1.5c-0.1,0-0.3-0.1-0.6-0.1c-0.3,0-0.7-0.1-1.1-0.1c-0.4,0-0.8,0-1.2,0c-0.9,0-1.7,0.1-2.1,0.4c-0.5,0.3-0.8,0.6-1,1
		s-0.3,0.8-0.3,1.2c0,0.7,0.2,1.2,0.7,1.6c0.5,0.4,1.2,0.6,2,0.6c0.7,0,1.3-0.1,1.8-0.4s1-0.7,1.3-1.1
		C1464.9,659.1,1465,658.6,1465,658.1z"/>
	<path d="M1476.1,662.8v-1.8c0-1,0.2-1.9,0.7-2.6s1-1.5,1.7-2.1c0.8-0.8,1.6-1.5,2.3-2.1c0.7-0.6,1.3-1.1,1.9-1.6
		c0.5-0.5,1-1,1.3-1.4c0.3-0.5,0.5-1,0.5-1.6c0-0.4-0.1-0.8-0.3-1.2s-0.5-0.7-0.9-1c-0.4-0.3-1-0.4-1.8-0.4c-0.7,0-1.2,0.1-1.7,0.3
		c-0.5,0.2-0.9,0.5-1.2,0.8s-0.6,0.7-0.8,1l-1.9-1.3c0.3-0.5,0.6-0.9,1.1-1.4s1.1-0.9,1.9-1.2c0.8-0.3,1.7-0.5,2.8-0.5
		c1.3,0,2.3,0.2,3.1,0.7c0.8,0.5,1.4,1,1.8,1.7c0.4,0.7,0.6,1.5,0.6,2.3c0,0.9-0.2,1.7-0.6,2.4s-0.9,1.4-1.5,2
		c-0.6,0.6-1.2,1.2-1.9,1.7c-1.2,0.9-2.2,1.8-3,2.6c-0.8,0.8-1.2,1.6-1.2,2.5h8.4v2.3L1476.1,662.8L1476.1,662.8z"/>
	<path d="M1490.8,659.1v-2.2l8-11.8h2.6v11.8h1.9v2.2h-1.9v3.7h-2.4v-3.7H1490.8z M1493.3,656.9h5.6v-8.4L1493.3,656.9z"/>
	<path d="M1279.9,696.3v-18.7h2.5v7.6c0.2-0.3,0.5-0.7,0.9-1c0.4-0.3,0.8-0.6,1.4-0.9c0.6-0.2,1.2-0.4,2.1-0.4c1.7,0,3,0.5,3.8,1.5
		c0.8,1,1.2,2.3,1.2,4v7.8h-2.5v-7.6c0-1.2-0.3-2.1-0.8-2.7s-1.3-0.8-2.2-0.8c-0.9,0-1.7,0.2-2.3,0.7c-0.6,0.5-1,1.1-1.2,1.9
		c-0.2,0.8-0.3,1.6-0.3,2.4v6L1279.9,696.3L1279.9,696.3z"/>
	<path d="M1301.4,696.7c-1.3,0-2.5-0.3-3.6-0.9c-1.1-0.6-1.9-1.5-2.4-2.5c-0.6-1-0.9-2.2-0.9-3.5c0-1.3,0.3-2.4,0.9-3.5
		s1.4-1.9,2.4-2.5c1-0.6,2.2-0.9,3.6-0.9s2.5,0.3,3.5,0.9c1,0.6,1.8,1.5,2.4,2.5s0.9,2.2,0.9,3.5c0,1.2-0.3,2.4-0.9,3.5
		s-1.4,1.9-2.4,2.5C1303.9,696.4,1302.7,696.7,1301.4,696.7z M1301.4,694.5c0.9,0,1.7-0.2,2.3-0.7c0.6-0.5,1.1-1,1.5-1.8
		c0.3-0.7,0.5-1.5,0.5-2.3c0-0.8-0.2-1.5-0.5-2.3s-0.8-1.3-1.5-1.8c-0.7-0.5-1.4-0.7-2.3-0.7c-0.9,0-1.7,0.2-2.3,0.7
		c-0.7,0.5-1.2,1-1.5,1.8c-0.3,0.7-0.5,1.5-0.5,2.3c0,0.8,0.2,1.5,0.5,2.2s0.8,1.3,1.5,1.8C1299.7,694.3,1300.5,694.5,1301.4,694.5z
		"/>
	<path d="M1311,691.1v-7.8h2.5v7.6c0,1.2,0.2,2.1,0.8,2.7c0.5,0.6,1.2,0.8,2.2,0.8c1,0,1.7-0.2,2.3-0.8c0.5-0.5,0.9-1.1,1.2-1.9
		s0.3-1.6,0.3-2.4v-6h2.5V695c0,0.1,0,0.2,0,0.5s0,0.5,0,0.8h-2.4l-0.1-1.9c-0.2,0.3-0.5,0.6-0.9,1s-0.8,0.6-1.4,0.9
		s-1.3,0.4-2.1,0.4c-1.7,0-2.9-0.5-3.8-1.5C1311.4,694.2,1311,692.8,1311,691.1z"/>
	<path d="M1328.8,696.3h-2.5v-11.8c0-0.1,0-0.3,0-0.5s0-0.4,0-0.8h2.4l0.1,2.1c0.2-0.3,0.5-0.6,0.8-1c0.4-0.3,0.8-0.7,1.4-0.9
		s1.2-0.4,2-0.4c0.3,0,0.5,0,0.8,0.1s0.4,0.1,0.7,0.2l-0.6,2.3c-0.3-0.1-0.8-0.2-1.3-0.2c-0.7,0-1.3,0.2-1.9,0.5s-1,0.8-1.4,1.4
		s-0.5,1.3-0.5,2L1328.8,696.3L1328.8,696.3z"/>
	<path d="M1344.1,702h-2.5v-17.3c0-0.2,0-0.3,0-0.5s0-0.5,0-0.8h2.4l0.1,1.8c0.2-0.2,0.5-0.5,0.8-0.8c0.4-0.3,0.8-0.6,1.4-0.9
		s1.3-0.4,2.2-0.4c1.3,0,2.4,0.3,3.3,1s1.5,1.5,1.9,2.5c0.4,1,0.6,2.2,0.6,3.4c0,1.2-0.2,2.2-0.6,3.1s-0.9,1.6-1.6,2.1
		c-0.7,0.5-1.4,1-2.2,1.2s-1.6,0.4-2.3,0.4c-0.9,0-1.6-0.1-2.1-0.3s-1-0.4-1.5-0.6L1344.1,702L1344.1,702z M1344.1,690.2v3.3
		c0.3,0.2,0.7,0.5,1.3,0.7c0.6,0.2,1.3,0.3,2.1,0.3c0.9,0,1.6-0.2,2.2-0.6c0.6-0.4,1.2-1,1.5-1.7c0.4-0.7,0.6-1.5,0.6-2.4
		c0-0.8-0.1-1.6-0.4-2.3s-0.7-1.3-1.2-1.7c-0.6-0.4-1.3-0.6-2.3-0.6c-0.9,0-1.6,0.2-2.3,0.8s-1.1,1.2-1.4,2.2
		c-0.1,0.3-0.1,0.6-0.2,1C1344.1,689.5,1344.1,689.8,1344.1,690.2z"/>
	<path d="M1367.6,692.9l1.4,1.5c-0.2,0.2-0.5,0.5-1,0.9s-1.1,0.7-1.9,1s-1.7,0.4-2.8,0.4c-1.3,0-2.5-0.3-3.6-0.9s-1.8-1.4-2.4-2.5
		s-0.8-2.3-0.8-3.7c0-1.3,0.3-2.4,0.8-3.4s1.3-1.8,2.3-2.5c1-0.6,2.1-0.9,3.4-0.9c1.5,0,2.7,0.4,3.7,1.1c0.9,0.7,1.6,1.7,2,2.8
		c0.4,1.2,0.6,2.4,0.6,3.7h-10.3c0,0.8,0.2,1.5,0.6,2.1s0.9,1.1,1.6,1.4s1.3,0.5,2.1,0.5c1.1,0,2-0.2,2.7-0.6
		C1366.8,693.7,1367.3,693.3,1367.6,692.9z M1359.1,688.7h7.7c-0.1-1-0.4-1.9-1.1-2.6s-1.5-1.1-2.7-1.1c-0.8,0-1.5,0.2-2.1,0.5
		c-0.6,0.3-1,0.8-1.3,1.4C1359.3,687.5,1359.2,688.1,1359.1,688.7z"/>
	<path d="M1374.7,696.3h-2.5v-11.8c0-0.1,0-0.3,0-0.5s0-0.4,0-0.8h2.4l0.1,2.1c0.2-0.3,0.5-0.6,0.8-1c0.4-0.3,0.8-0.7,1.4-0.9
		s1.2-0.4,2-0.4c0.3,0,0.5,0,0.8,0.1s0.4,0.1,0.7,0.2l-0.6,2.3c-0.3-0.1-0.8-0.2-1.3-0.2c-0.7,0-1.3,0.2-1.9,0.5s-1,0.8-1.4,1.4
		s-0.5,1.3-0.5,2L1374.7,696.3L1374.7,696.3z"/>
	<path d="M1382.3,681v-2.8h2.8v2.8H1382.3z M1382.5,696.3v-13h2.5v13H1382.5z"/>
	<path d="M1394.9,696.7c-1.3,0-2.5-0.3-3.6-0.9c-1.1-0.6-1.9-1.5-2.4-2.5c-0.6-1-0.9-2.2-0.9-3.5c0-1.3,0.3-2.4,0.9-3.5
		s1.4-1.9,2.4-2.5c1-0.6,2.2-0.9,3.6-0.9s2.5,0.3,3.5,0.9c1,0.6,1.8,1.5,2.4,2.5s0.9,2.2,0.9,3.5c0,1.2-0.3,2.4-0.9,3.5
		s-1.4,1.9-2.4,2.5S1396.2,696.7,1394.9,696.7z M1394.9,694.5c0.9,0,1.7-0.2,2.3-0.7c0.6-0.5,1.1-1,1.5-1.8c0.3-0.7,0.5-1.5,0.5-2.3
		c0-0.8-0.2-1.5-0.5-2.3c-0.3-0.7-0.8-1.3-1.5-1.8c-0.7-0.5-1.4-0.7-2.3-0.7c-0.9,0-1.7,0.2-2.3,0.7c-0.7,0.5-1.2,1-1.5,1.8
		s-0.5,1.5-0.5,2.3c0,0.8,0.2,1.5,0.5,2.2c0.3,0.7,0.8,1.3,1.5,1.8C1393.2,694.3,1394,694.5,1394.9,694.5z"/>
	<path d="M1414.1,696.3l-0.1-1.7c-0.1,0.2-0.4,0.4-0.7,0.7s-0.8,0.6-1.4,0.9c-0.6,0.3-1.3,0.4-2.1,0.4c-1.1,0-2.1-0.3-3-0.8
		s-1.6-1.3-2.1-2.3s-0.8-2.2-0.8-3.6c0-1.2,0.2-2.3,0.6-3.2s1-1.6,1.6-2.2s1.4-1,2.2-1.2s1.5-0.4,2.2-0.4c0.7,0,1.3,0.1,1.8,0.2
		s1,0.3,1.6,0.6v-6.2h2.5V695c0,0.1,0,0.2,0,0.5s0,0.5,0,0.8L1414.1,696.3L1414.1,696.3z M1414,690.9v-4.7c-0.3-0.3-0.8-0.5-1.3-0.7
		s-1.2-0.3-1.9-0.3c-1.2,0-2.2,0.4-3,1.3s-1.2,2-1.2,3.5c0,0.8,0.1,1.6,0.4,2.3c0.3,0.7,0.7,1.2,1.2,1.6s1.3,0.6,2.1,0.6
		c0.9,0,1.6-0.2,2.1-0.6s0.9-0.9,1.2-1.5C1413.9,691.9,1414,691.4,1414,690.9z"/>
	<path d="M1420.3,696.3v-3.1h3.2v3.1H1420.3z"/>
</g>
</svg>
