<?xml version="1.0" encoding="UTF-8"?>
<svg id="Layer_2" data-name="Layer 2" xmlns="http://www.w3.org/2000/svg" viewBox="0 0 279.56 154.26">
  <defs>
    <style>
      .cls-1 {
        fill: #000;
      }

      .cls-1, .cls-2, .cls-3 {
        stroke-width: 0px;
      }

      .cls-2 {
        fill: #ddee23;
      }

      .cls-3 {
        fill: #fff;
      }
    </style>
  </defs>
  <g id="_レイヤー_1" data-name="レイヤー 1">
    <g>
      <g>
        <g>
          <path class="cls-3" d="M98.52,34.05c-33.48,1.32-60.14,31.15-57.63,64.41.63,8.35,3.06,16.18,6.86,23.16,2.46,1.05,4.67,2.99,6.25,5.56,3.71,6.02,10.92,11.58,17.23,13.98,4.72,1.79,9.64,2.72,14.42,4.31,4.69,1.55,9.22,3.48,14.06,4.36,1.82.33,3.39,1.31,4.68,2.65,29.97-2.4,54.02-27.54,55.34-56.97,1.49-33.42-26.74-62.83-61.21-61.47Z"/>
          <path class="cls-2" d="M98.52,33.75c-23.49,1.21-44.61,16.11-53.6,37.9-4.86,11.78-5.84,24.99-2.55,37.32.82,3.08,1.91,6.09,3.22,8.99.52,1.15,1.04,2.96,1.94,3.88,1.22,1.24,3.2,1.87,4.47,3.21,2.21,2.33,3.68,5.25,5.95,7.57s5.06,4.54,7.96,6.27c6.56,3.92,14.25,5.03,21.4,7.48,3.8,1.3,7.55,2.5,11.41,3.58,4.26,1.19,4.37,3.08,8.46,2.56,11.35-1.45,22.15-6.27,30.93-13.59,18.3-15.26,26.54-40.43,19.26-63.33-8.04-25.32-32.38-42.55-58.86-41.83-.39.01-.39.61,0,.6,23.26-.63,44.95,12.57,55.13,33.52,10.5,21.6,6.12,47.57-10.14,65.09-7.62,8.22-17.45,14.33-28.27,17.31-2.71.75-6.65,2.1-9.45,1.79-1.94-.22-2.98-1.45-4.69-2.15-3.18-1.29-6.87-1.77-10.15-2.9-4.13-1.43-8.25-2.73-12.46-3.9-6.88-1.91-13.05-4.45-18.43-9.31-2.65-2.39-4.47-5.23-6.65-8-1.26-1.6-2.83-2.54-4.31-3.84-5.44-4.76-7.2-15.75-7.84-22.61-.57-6.22-.12-12.51,1.32-18.58,6.17-25.92,29.41-45.05,55.92-46.42.38-.02.39-.62,0-.6Z"/>
        </g>
        <path class="cls-2" d="M47.11,85.77c4.61,2.45,7.52,3.29,11.7,2.7.1-.01.17-.02.22-.02.12-.07.29-.16.55-.29.13-.06,2.06-1.04,1.97-.9.6-.39,1.18-.81,1.75-1.24.38-.29,1.28-1.16,1.25-1.11,3.31-3.45,4.5-5.65,6.75-10.38,2.72-5.71,4.98-11.31,8.47-16.54,7.87-11.79,19.17-18.92,31.49-23.01-4.12-.76-8.38-1.09-12.74-.91-28.66,1.13-52.3,23.15-56.95,50.33,1.87,0,3.77.44,5.53,1.38Z"/>
        <path class="cls-2" d="M144.86,54.17c-1.63,1.29-3.69,2.13-6.21,2.26-9.65.5-19.65,2.07-27.59,6.31-9.72,5.2-13.49,12.02-18.35,22.7-5.07,11.15-12.42,21.13-22.86,26.27-8.54,4.21-17.63,3.6-26.19.54.55,1.56,1.16,3.16,1.84,4.8,1.61,3.89,3.37,7.4,5.13,10.53.47.58,1.2,1.47,2.17,2.49,2.62,2.75,7.45,6.96,18.42,11.11,1.21.46,7.06,1.87,14.42,4.31,4.69,1.55,9.22,3.48,14.06,4.36,1.82.33,3.39,1.31,4.68,2.65,29.97-2.4,54.02-27.54,55.34-56.97.7-15.56-5.05-30.24-14.87-41.36Z"/>
      </g>
      <path class="cls-1" d="M251.24,82.65c-23.38,21.06-62.58,49.1-114.94,56.73-19.66,2.87-68.9,10.04-87.34-15.61-2.56-3.57-3.99-7.02-4.82-9.48-8.95-9.38-24.54-28.24-33.28-56.69C3.5,33.68,4.06,13.03,5.35.73c-.73-.24-1.47-.49-2.2-.73C.63,11.15-1.75,28.54,1.79,49.15c6.1,35.5,25.99,58.56,34.85,67.69,0,0,14.64,15.76,31.71,25.24,51.17,28.42,134.46,5.51,211.22-52.34-9.44-2.36-18.88-4.73-28.32-7.09Z"/>
    </g>
  </g>
</svg>