<?xml version="1.0" encoding="UTF-8"?>
<svg id="Layer_2" data-name="Layer 2" xmlns="http://www.w3.org/2000/svg" viewBox="0 0 121.91 417.74">
  <defs>
    <style>
      .cls-1 {
        fill: #000;
      }

      .cls-1, .cls-2, .cls-3 {
        stroke-width: 0px;
      }

      .cls-2 {
        fill: #ddee23;
      }

      .cls-3 {
        fill: #fff;
      }
    </style>
  </defs>
  <g id="_レイヤー_1" data-name="レイヤー 1">
    <g>
      <path class="cls-1" d="M59.11,247.79c2.64-56.6-1.23-13.18,2.84-116.23,1.44-36.38,3.45-80.41,6.34-131.56-4.13,12.47-8.25,24.95-12.95,37.21-.15.38-.31.76-.49,1.12-5.3,84.91-7.34,156.59-8.01,213.64,0,0-1.04,88.78,5.09,159.63,3.13.39,6.25.82,9.37,1.27-5.28-50.92-5.44-95.22-2.18-165.08Z"/>
      <g>
        <path class="cls-3" d="M61.61,411.17c31.26-.31,57.44-22.64,59.92-49.98,2.77-30.58-24.9-58.7-60.09-58.89-34.17-.18-62.45,26.06-61.13,56.66,1.26,29.12,28.91,52.54,61.3,52.21Z"/>
        <path class="cls-2" d="M61.61,411.47c23.82-.51,47.61-13.74,56.84-36.43s-.22-46.26-18.63-60.19c-20.31-15.38-48.98-16.93-71.05-4.34-20.09,11.47-33.02,34.35-27.48,57.57,6.45,27.03,33.73,43.35,60.32,43.38.38,0,.38-.59,0-.6-23.44-.02-47.14-12.45-56.89-34.48-9.55-21.58-1.43-45.82,16.59-60.13,19.71-15.65,48.11-17.98,70.21-6.04,19.95,10.78,33.63,33.03,28.96,56.03-5.51,27.16-32.43,44.06-58.88,44.62-.38,0-.38.6,0,.6Z"/>
      </g>
      <path class="cls-2" d="M7.12,347.58c4.61,2.44,7.55,3.33,11.83,2.96.1,0,.17-.01.23-.01.13-.06.31-.14.57-.24.13-.05,2.14-.87,2.04-.75.62-.34,1.23-.69,1.83-1.07.4-.25,1.35-1.01,1.31-.97,3.5-3.03,4.8-4.99,7.27-9.24,2.98-5.12,5.5-10.16,9.25-14.81,8.46-10.49,20.24-16.55,32.94-19.78-4.17-.87-8.5-1.34-12.95-1.37-29.25-.15-54.16,19.05-59.91,43.78,1.91.07,3.82.56,5.59,1.5Z"/>
      <path class="cls-2" d="M107.92,322.66c-1.71,1.11-3.84,1.8-6.41,1.81-9.85.05-20.11,1.08-28.35,4.64-10.1,4.36-14.2,10.46-19.55,20.05-5.58,10.01-13.44,18.86-24.27,23.14-8.86,3.5-18.11,2.56-26.71-.59,7.42,22.91,31.49,39.74,58.99,39.46,31.26-.31,57.44-22.64,59.92-49.98,1.29-14.23-4.02-27.93-13.61-38.53Z"/>
      <path class="cls-1" d="M86.49,64.36c.68,45.48.32,81.88-.39,107.2-1.98,70.75-7.75,148.32-7.75,148.32-.31,4.2-.57,7.62-.74,9.71,0,0-4.4,55.26-17.51,76.69-1.74,2.85-3.84,3.47-3.84,3.47-1.03.31-1.98.18-2.71-.03-.61.99-1.22,1.98-1.83,2.97.88,1.15,2.49,2.93,4.89,4.04,2.19,1.01,4.07,1.02,4.93,1.02,0,0,1.37,0,2.67-.32,3.43-.82,14.18-22.01,21.73-73.65.64-4.35.9-6.53,1.1-8.27,12.01-101.45,14.64-169.94,14.64-169.94.81-21.07,1.12-42.01,1.06-62.35-4.65-13.24-10.03-26.22-16.26-38.85Z"/>
    </g>
  </g>
</svg>