<?xml version="1.0" encoding="UTF-8"?>
<svg id="Layer_2" data-name="Layer 2" xmlns="http://www.w3.org/2000/svg" viewBox="0 0 1642.55 239.32">
  <defs>
    <style>
      .cls-1 {
        fill: none;
        stroke: #2b3756;
        stroke-miterlimit: 10;
        stroke-width: .25px;
      }
    </style>
  </defs>
  <g id="_レイヤー_1" data-name="レイヤー 1">
    <g>
      <path class="cls-1" d="M153.91,84.86c-5.23-25.04-19.81-37.41-43.47-37.41-33.56,0-53.1,26.41-53.1,71.8s20.36,72.08,54.47,72.08c15.13,0,28.06-6.33,36.04-17.33,4.68-6.6,6.6-12.1,8.25-23.66l57.22,8.53c-5.23,23.38-11.28,36.86-22.83,50.34-17.06,19.54-43.74,29.99-77.03,29.99s-61.9-10.45-81.43-30.26C11.68,188.3.12,156.11.12,119.24S11.68,50.19,33.41,28.73C52.4,10.3,80.18.12,112.37.12c35.49,0,63.28,12.1,81.16,36.04,8.8,11.28,13.48,21.46,17.06,37.69l-56.67,11Z"/>
      <path class="cls-1" d="M465.59,118.42c0,72.63-44.29,120.77-111.15,120.77s-110.87-47.04-110.87-119.95S287.04.12,354.72.12s110.87,46.21,110.87,118.3ZM408.37,118.97c0-44.57-20.36-71.53-53.65-71.53s-54.2,27.23-54.2,71.53,20.63,72.63,54.2,72.63,53.65-27.51,53.65-72.63Z"/>
      <path class="cls-1" d="M635.59,117.59c7.98,11.83,13.2,20.63,19.81,32.74-1.1-12.65-1.65-25.31-1.65-40.71v-62.72c0-18.16-.55-29.17-2.2-41.82h58.6c-1.65,12.38-2.2,23.94-2.2,41.82v146.08c0,16.78.83,29.44,2.2,40.99h-60.25c-4.95-10.45-11.28-20.63-20.63-34.94l-50.9-76.76c-7.43-11-12.1-19.26-19.81-33.84,1.38,12.38,1.93,27.51,1.93,40.99v61.62c0,18.98.55,31.09,2.2,42.91h-58.6c1.65-10.73,2.2-22.83,2.2-43.19V46.07c0-15.95-.55-28.34-2.2-40.99h59.7c2.75,7.43,8.8,18.43,19.53,34.39l52.27,78.13Z"/>
      <path class="cls-1" d="M872.99,192.42c0,16.51.55,28.62,2.2,41.54h-60.8c1.65-12.93,2.2-24.21,2.2-41.54V53.77h-32.46c-17.33,0-22.01.27-41.54,1.92V3.15c9.08,1.1,24.21,1.93,40.99,1.93h120.5c19.26,0,30.26-.55,42.92-1.93v52.55c-12.38-1.37-23.11-1.92-42.92-1.92h-31.09v138.65Z"/>
      <path class="cls-1" d="M1113.15,233.96c-2.2-13.2-3.85-20.35-6.6-29.71l-7.43-23.39h-78.41l-7.43,23.39c-3.58,11-5.5,19.53-6.88,29.71h-64.38c4.13-8.25,6.6-14.85,13.2-33.56l59.42-165.62c4.95-13.48,7.43-21.74,8.8-29.72h71.81c1.93,7.98,3.85,15.13,9.35,29.72l59.7,165.62c5.23,14.58,9.63,25.86,13.21,33.56h-64.38ZM1059.5,52.12l-25.59,82.54h51.72l-26.14-82.54Z"/>
      <path class="cls-1" d="M1354.4,84.86c-5.23-25.04-19.81-37.41-43.47-37.41-33.56,0-53.1,26.41-53.1,71.8s20.36,72.08,54.47,72.08c15.13,0,28.06-6.33,36.04-17.33,4.68-6.6,6.6-12.1,8.25-23.66l57.22,8.53c-5.23,23.38-11.28,36.86-22.83,50.34-17.06,19.54-43.74,29.99-77.03,29.99s-61.9-10.45-81.43-30.26c-20.36-20.63-31.91-52.82-31.91-89.69s11.55-69.05,33.29-90.51c18.98-18.43,46.77-28.61,78.96-28.61,35.49,0,63.28,12.1,81.16,36.04,8.8,11.28,13.48,21.46,17.06,37.69l-56.67,11Z"/>
      <path class="cls-1" d="M1568.42,192.42c0,16.51.55,28.62,2.2,41.54h-60.8c1.65-12.93,2.2-24.21,2.2-41.54V53.77h-32.46c-17.33,0-22.01.27-41.54,1.92V3.15c9.08,1.1,24.21,1.93,40.99,1.93h120.5c19.26,0,30.26-.55,42.92-1.93v52.55c-12.38-1.37-23.11-1.92-42.92-1.92h-31.09v138.65Z"/>
    </g>
  </g>
</svg>