<?xml version="1.0" encoding="UTF-8"?>
<svg id="Layer_2" data-name="Layer 2" xmlns="http://www.w3.org/2000/svg" viewBox="0 0 1404.7 1358.86">
  <defs>
    <style>
      .cls-1 {
        opacity: .39;
      }

      .cls-2 {
        fill: none;
        stroke: #2b3756;
        stroke-miterlimit: 10;
        stroke-width: .5px;
      }
    </style>
  </defs>
  <g id="_レイヤー_1" data-name="レイヤー 1">
    <g class="cls-1">
      <line class="cls-2" x1="1049.43" x2="1049.43" y2="1358.86"/>
      <line class="cls-2" x1="949.43" x2="949.43" y2="1358.86"/>
      <line class="cls-2" x1="848.98" x2="848.98" y2="1358.86"/>
      <line class="cls-2" x1="748.98" x2="748.98" y2="1358.86"/>
      <line class="cls-2" x1="1347.51" x2="1347.51" y2="1358.86"/>
      <line class="cls-2" x1="1247.06" x2="1247.06" y2="1358.86"/>
      <line class="cls-2" x1="1147.06" x2="1147.06" y2="1358.86"/>
      <line class="cls-2" x1="253.28" x2="253.28" y2="1358.86"/>
      <line class="cls-2" x1="153.28" x2="153.28" y2="1358.86"/>
      <line class="cls-2" x1="52.83" x2="52.83" y2="1358.86"/>
      <line class="cls-2" x1="651.36" x2="651.36" y2="1358.86"/>
      <line class="cls-2" x1="551.36" x2="551.36" y2="1358.86"/>
      <line class="cls-2" x1="450.91" x2="450.91" y2="1358.86"/>
      <line class="cls-2" x1="350.91" x2="350.91" y2="1358.86"/>
      <line class="cls-2" x1="1404.7" y1="966.88" y2="966.88"/>
      <line class="cls-2" x1="1404.7" y1="866.88" y2="866.88"/>
      <line class="cls-2" x1="1404.7" y1="766.43" y2="766.43"/>
      <line class="cls-2" x1="1404.7" y1="666.43" y2="666.43"/>
      <line class="cls-2" x1="1404.7" y1="1264.96" y2="1264.96"/>
      <line class="cls-2" x1="1404.7" y1="1164.5" y2="1164.5"/>
      <line class="cls-2" x1="1404.7" y1="1064.5" y2="1064.5"/>
      <line class="cls-2" x1="1404.7" y1="170.73" y2="170.73"/>
      <line class="cls-2" x1="1404.7" y1="70.73" y2="70.73"/>
      <line class="cls-2" x1="1404.7" y1="568.81" y2="568.81"/>
      <line class="cls-2" x1="1404.7" y1="468.81" y2="468.81"/>
      <line class="cls-2" x1="1404.7" y1="368.35" y2="368.35"/>
      <line class="cls-2" x1="1404.7" y1="268.35" y2="268.35"/>
    </g>
  </g>
</svg>