<?xml version="1.0" encoding="UTF-8"?>
<svg id="_レイヤー_2" data-name="レイヤー 2" xmlns="http://www.w3.org/2000/svg" viewBox="0 0 464.12 287.33">
  <defs>
    <style>
      .cls-1 {
        stroke-width: 0px;
      }
    </style>
  </defs>
  <g id="_レイヤー_1-2" data-name="レイヤー 1">
    <path class="cls-1" d="m188.52,22.84c-54.97-18.21-107.16-3.46-147.1,37.65-58.59,61.27-50.93,149.65,20.96,196.35,42.06,27.34,94.07,32.45,140.65,13.77,11.09-4.5,21.78-10.14,31.76-16.95,0,0,.36.48.36.48-9.43,7.69-19.89,14.08-30.9,19.28-27.88,12.83-59.79,17.22-90,11.31-49.45-9.52-96.1-45.37-109.9-94.95C-11.77,130.42,18.4,63.23,69.69,30.74c24.78-15.63,54.97-22.19,83.98-18.36,12.13,1.64,23.99,4.98,35.07,9.91,0,0-.22.56-.22.56h0Z"/>
    <path class="cls-1" d="m221.95,20.65C192.03,5.93,157.27.41,124.68,8.25,73.25,20.64,36.39,62.63,29.4,114.87c-3.82,28.8,1.6,58.51,14.15,84.6,29.12,61.5,92.46,93.63,157.02,64.87,7.94-3.66,15.61-8.02,22.71-13.15,0,0,.37.47.37.47-8.93,7.66-19.21,14.11-30.02,18.79-23.27,10.19-50.28,12.49-74.81,5.49-21.83-6.11-41.28-19.44-56.12-36.43-31.67-36.03-44.8-87.01-33.81-133.68C39.54,57.6,73.61,13.79,123.49,3.13c21.86-5.04,44.98-3.84,66.43,2.5,11.38,3.45,22.29,8.31,32.32,14.5,0,0-.29.52-.29.52h0Z"/>
    <path class="cls-1" d="m120.76,117.57l2.05-8.84c4.38.8,11.79,1.79,16.35,1.79,6.7,0,10.63-2.14,10.63-8.84,0-3.39-1.16-4.47-9.02-8.04-8.04-3.66-11.43-7.32-11.43-15.36,0-11.25,7.86-19.92,20.63-19.92,7.15,0,14.83,1.97,18.67,3.39l-2.23,8.75c-4.2-.71-11.52-1.61-16.08-1.61-5.36,0-8.49,3.22-8.49,7.95,0,3.31.98,4.38,8.31,7.68,10,4.47,12.15,7.77,12.15,15.72,0,13.76-9.2,20.99-22.96,20.99-6.88,0-14.65-2.05-18.58-3.66Z"/>
    <path class="cls-1" d="m191.51,70.14h-13.31l2.5-10.72h39.12l-2.5,10.72h-13.49l-11.52,50.02h-12.33l11.52-50.02Z"/>
    <path class="cls-1" d="m230.01,59.42h17.51c12.59,0,18.76,4.91,18.76,17.33,0,11.61-6.16,19.47-13.58,22.42l4.91,20.99h-12.33l-4.02-19.29h-8.49l-4.47,19.29h-12.33l14.02-60.74Zm13.13,30.91c6.7,0,10.45-6.34,10.45-13.04,0-5.09-1.7-7.32-6.79-7.32h-6.88l-4.73,20.37h7.95Z"/>
    <path class="cls-1" d="m288.88,59.42h12.33l-14.02,60.74h-12.33l14.02-60.74Z"/>
    <path class="cls-1" d="m321.75,59.42h19.56l3.22,47.61h1.07l10.81-47.61h11.88l-14.02,60.74h-18.58l-3.93-48.5h-1.07l-11.34,48.5h-11.61l14.02-60.74Z"/>
    <path class="cls-1" d="m374.55,102.12c0-22.69,10.09-43.77,32.42-43.77,7.15,0,14.83,2.05,18.58,3.57l-2.86,8.93c-3.84-.8-10.99-1.79-16.7-1.79-13.58,0-18.76,19.38-18.76,33.14,0,5.98,3.57,8.31,8.93,8.31,2.23,0,4.56-.27,5.63-.45l3.13-13.49h-5.72l2.41-10.18h17.95l-7.59,32.51c-2.59.98-9.11,2.32-17.33,2.32-13.13,0-20.1-6.34-20.1-19.12Z"/>
    <path class="cls-1" d="m136.12,166.62h21.08c9.92,0,15.9,4.11,15.9,13.13,0,8.22-3.84,12.6-10,16.35,4.91,2.95,5.81,6.07,5.81,10.54,0,11.17-7.77,20.72-23.94,20.72h-22.87l14.02-60.74Zm11.25,50.2c5.36,0,8.84-4.11,8.84-9.92,0-3.48-1.79-5-5.81-5h-10.09l-3.48,14.92h10.54Zm4.47-25.19c4.82,0,8.66-3.75,8.66-9.38,0-3.31-1.61-5.09-5.27-5.09h-9.2l-3.39,14.47h9.2Z"/>
    <path class="cls-1" d="m181.86,209.85c0-14.83,4.47-30.1,13.93-38.32,4.56-3.93,10.36-5.98,17.06-5.98,12.06,0,19.74,5.45,19.74,18.58,0,15.36-4.47,31.17-14.65,39.12-4.38,3.39-10.63,5.18-16.97,5.18-11.79,0-19.12-5.72-19.12-18.58Zm28.76,4.82c5.9-5.9,9.29-19.12,9.29-29.3,0-6.52-2.14-9.11-8.49-9.11-2.68,0-5.27.71-7.24,2.68-6.34,6.25-9.65,20.72-9.65,29.66,0,6.52,2.14,9.11,8.58,9.11,2.77,0,5.45-.98,7.5-3.04Z"/>
    <path class="cls-1" d="m254.75,196.72l-8.04-30.1h13.04l4.38,21.35,14.65-21.35h12.95l-22.33,30.19,8.4,30.55h-12.95l-4.91-21.71-15.1,21.71h-12.95l22.87-30.64Z"/>
    <path class="cls-1" d="m131.46,120.19c47.07-1.69,118.57-.8,166.33-1,47.95.19,119-.66,166.33,1-47.07,1.66-118.57.81-166.33,1-47.95-.2-119,.69-166.33-1h0Z"/>
    <path class="cls-1" d="m269.09,189.84c1.6-.92,3.22-1.13,5.01-1,0,0,5.01,0,5.01,0h7.52c.84.3,1.67.6,2.51,1-.84.4-1.67.7-2.51,1h-12.53c-1.79.13-3.41-.08-5.01-1h0Z"/>
    <path class="cls-1" d="m274.13,178.55c1.62-.92,3.25-1.13,5.06-1,0,0,5.06,0,5.06,0h7.59c.84.3,1.69.6,2.53,1-.84.4-1.69.7-2.53,1h-12.65c-1.81.13-3.44-.08-5.06-1h0Z"/>
    <path class="cls-1" d="m279.81,167.26c1.52-.91,3.06-1.13,4.78-1,0,0,4.78,0,4.78,0h7.17c.8.3,1.59.6,2.39,1-.8.4-1.59.7-2.39,1h-11.94c-1.72.13-3.26-.09-4.78-1h0Z"/>
    <path class="cls-1" d="m400.39,226.78c-37.15,1.68-93.59.8-131.29,1-37.85-.19-93.94.66-131.29-1,37.15-1.66,93.59-.81,131.29-1,37.85.2,93.94-.69,131.29,1h0Z"/>
    <path class="cls-1" d="m391.85,214.2c-5.22.42-10.43.71-15.65,1.01-9.86,0-36.73,0-46.95,0-10.3,0-36.97,0-46.95,0-5.22-.34-10.43-.59-15.65-1,5.22-.41,10.43-.66,15.65-1,9.86,0,36.73,0,46.95,0,10.3,0,36.97,0,46.95,0,5.22.29,10.43.59,15.65,1.01h0Z"/>
    <path class="cls-1" d="m362.27,201.91c-4.32.42-8.64.71-12.96,1.01-8.16,0-30.42,0-38.89,0-8.54,0-30.62,0-38.89,0-4.32-.34-8.64-.59-12.96-1,4.32-.41,8.64-.66,12.96-1,8.16,0,30.42,0,38.89,0,8.54,0,30.62,0,38.89,0,4.32.29,8.64.59,12.96,1.01h0Z"/>
    <path class="cls-1" d="m448.8,132.19c-41.93,1.68-105.63.8-148.18,1-42.72-.19-106.02.66-148.18-1,41.93-1.66,105.63-.81,148.18-1,42.72.2,106.02-.69,148.18,1h0Z"/>
    <path class="cls-1" d="m412.35,146.76c-4.32.42-8.64.71-12.96,1.01-8.16,0-30.42,0-38.89,0-8.54,0-30.62,0-38.89,0-4.32-.34-8.64-.59-12.96-1,4.32-.41,8.64-.66,12.96-1,8.16,0,30.42,0,38.89,0,8.54,0,30.62,0,38.89,0,4.32.29,8.64.59,12.96,1.01h0Z"/>
  </g>
</svg>