<?xml version="1.0" encoding="UTF-8"?>
<svg id="Layer_2" data-name="Layer 2" xmlns="http://www.w3.org/2000/svg" viewBox="0 0 474.04 286.13">
  <defs>
    <style>
      .cls-1 {
        fill: #fff;
        stroke-width: 0px;
      }
    </style>
  </defs>
  <g id="_レイヤー_1" data-name="レイヤー 1">
    <path class="cls-1" d="M236.18,252.32c-29.58,20.31-65.98,30.52-101.74,27.48-29.46-2.56-57.87-14.31-81.13-32.45-16.12-12.8-29.86-28.98-38.27-47.84-13.23-29.94-12.64-64.88-.55-95.12,9.02-22.89,23.92-43.41,42.62-59.39.22-.19.45-.37.67-.56-21.75,26.19-33.47,60.96-32.43,95.4.4,22.47,6.15,44.79,15.94,64.99,28.31,57.88,86.99,89.82,149.63,66.09,12.34-4.91,24.08-11.87,34.15-20.53l-.43-.55c-5.96,4.25-12.2,8.08-18.77,11.27-19.42,9.6-41.46,13.96-62.99,11.9-42.38-3.86-76.69-34.26-95.49-71.23-29.21-55.82-19.66-128.33,28.64-170.42.03-.03.06-.05.1-.08,34.18-20.44,75.29-24.28,113.76-9.68l.26-.65c-11.26-4.49-23.11-7.54-35.18-8.97-22.23-2.51-45.14.71-65.76,9.43,39.76-25.81,92.41-24.79,134.1-2,0,0,.34-.61.34-.61-10.26-5.78-21.22-10.36-32.58-13.59-27.06-7.56-56.6-7.09-82.99,2.96-14.14,5.33-26.73,13.25-37.57,23.03-26.89,16.74-48.17,42.25-60.25,71.51-13.08,31.29-14.05,67.81-.79,99.22,15.96,37.24,50,64.99,88.16,77.23,35.23,11.47,74.55,8.62,108.04-6.96,10.99-5.27,21.48-11.59,30.91-19.3,0,0-.42-.56-.42-.56Z"/>
    <path class="cls-1" d="M221.86,205.59l-2.4-8.72c2.09.13,4.18.25,6.27.38,7.84,0,28.8,0,36.9,0,8.03,0,29.15,0,36.9,0,4.1-.23,8.2-.47,12.3-.79-4.1-.33-8.2-.56-12.3-.79-7.84,0-28.8,0-36.9,0-8.03,0-29.15,0-36.9,0-2.16.14-4.33.26-6.49.4l-2.34-8.51c.12,0,.24.02.36.03,6.5,0,23.85,0,30.56,0,6.65,0,24.14,0,30.56,0,3.4-.23,6.79-.47,10.19-.79-3.4-.33-6.79-.56-10.19-.79-6.5,0-23.85,0-30.56,0-6.65,0-24.14,0-30.56,0-.26.02-.51.04-.77.06l-.9-3.28,3.47-4.69c.08,0,.15,0,.23-.01h9.85c.66-.24,1.31-.47,1.97-.79-.66-.32-1.31-.55-1.97-.79h-5.91s-1.83,0-2.99,0l5.4-7.3h7.59c.66-.24,1.33-.47,1.99-.79-.66-.32-1.33-.55-1.99-.79h-6.43l5.4-7.3h4.72c.63-.24,1.25-.47,1.88-.79-.63-.32-1.25-.55-1.88-.79h-5.63s-3.75,0-3.75,0c-.95-.07-1.82,0-2.67.29h-1.89l-11.51,16.78-3.44-16.78h-10.25l6.32,23.66-17.04,22.83c-4.96-.01-10.03-.02-15.14-.03,1.18-.55,2.28-1.19,3.25-1.95,8-6.25,11.51-18.67,11.51-30.75,0-10.32-6.04-14.6-15.51-14.6-5.27,0-9.83,1.61-13.41,4.7-7.44,6.46-10.95,18.46-10.95,30.12,0,6.19,2.17,10.27,5.97,12.5-9.78.05-19.33.15-28.09.37,8.03-2.22,11.93-8.4,11.93-15.41,0-3.51-.7-5.97-4.56-8.28,4.84-2.95,7.86-6.39,7.86-12.85,0-7.09-4.7-10.32-12.5-10.32h-16.57l-11.02,47.74h17.97c.98,0,1.91-.06,2.81-.15,11.07.34,23.6.47,36.37.5,1.48.33,3.1.48,4.84.48,1.65,0,3.29-.17,4.88-.47,17.38,0,34.62-.11,48.66-.04,29.63-.16,73.99.54,103.18-.79-27.29-1.23-67.29-.72-96.68-.76ZM118.65,167.36h7.23c2.88,0,4.14,1.4,4.14,4,0,4.42-3.02,7.37-6.81,7.37h-7.23l2.67-11.37ZM114.15,186.8h7.93c3.16,0,4.56,1.19,4.56,3.93,0,4.56-2.74,7.79-6.95,7.79h-8.28l2.74-11.72ZM164.35,168.76c1.54-1.54,3.58-2.11,5.69-2.11,4.98,0,6.67,2.04,6.67,7.16,0,8-2.67,18.39-7.3,23.03-1.61,1.61-3.72,2.39-5.9,2.39-5.05,0-6.74-2.04-6.74-7.16,0-7.02,2.6-18.39,7.58-23.31ZM197.15,205.58l11.01-15.83,3.58,15.83c-4.6.01-9.49.01-14.59,0Z"/>
    <g>
      <path class="cls-1" d="M223.88,117.87c36.55.87,85.39.31,119.43.46,21.51-.09,49.15.1,75.8.02.11,0,.21.01.32.01.44,0,.86,0,1.29-.01,19.28-.06,37.95-.26,53.32-.81-12.32-.43-26.68-.65-41.75-.75.29-.09.55-.17.77-.26l5.97-25.55h-14.11l-1.9,8h4.49l-2.46,10.6c-.84.14-2.67.35-4.42.35-4.21,0-7.02-1.83-7.02-6.53,0-10.81,4.07-26.05,14.74-26.05,4.49,0,10.11.77,13.13,1.4l2.25-7.02c-2.95-1.19-8.99-2.81-14.6-2.81-17.55,0-25.48,16.57-25.48,34.4,0,6.72,2.47,11.17,7.19,13.38-7.68,0-15.39,0-22.95.01l10.84-46.95h-9.34l-8.49,37.42h-.84l-2.53-37.42h-15.37l-10.85,46.99c-2.73,0-5.4,0-7.98-.02-2.63.01-5.37.02-8.17.02l10.85-47h-9.69l-10.85,47c-4.5,0-9.15-.01-13.9-.02l-3.68-15.74c5.83-2.32,10.67-8.49,10.67-17.62,0-9.76-4.84-13.62-14.74-13.62h-13.76l-10.84,46.93c-6.23,0-12.47.01-18.62.04l8.88-38.54h10.6l1.97-8.42h-30.75l-1.97,8.42h10.46l-8.89,38.6c-8.45.07-16.64.17-24.31.34,6.34-2.19,10.25-7.35,10.25-15.29,0-6.25-1.69-8.85-9.55-12.36-5.76-2.6-6.53-3.44-6.53-6.04,0-3.72,2.46-6.25,6.67-6.25,3.58,0,9.34.7,12.64,1.26l1.75-6.88c-3.02-1.12-9.06-2.67-14.67-2.67-10.04,0-16.22,6.81-16.22,15.66,0,6.32,2.67,9.2,8.99,12.08,6.18,2.81,7.09,3.65,7.09,6.32,0,5.27-3.09,6.95-8.35,6.95-3.58,0-9.41-.77-12.85-1.4l-1.61,6.95c3.09,1.26,9.2,2.88,14.6,2.88,1.81,0,3.51-.17,5.1-.49ZM369.16,79.4h.84l3.03,37.36c-4.3,0-8.52.01-12.61.02l8.74-37.38ZM297.84,78.06h5.41c4,0,5.34,1.76,5.34,5.76,0,5.27-2.95,10.25-8.21,10.25h-6.25l3.72-16.01ZM292.22,102.35h6.67l3,14.38c-4.29,0-8.62-.02-12.99-.02l3.32-14.36Z"/>
      <path class="cls-1" d="M345.54,126.18c-33.44.15-83.5-.52-116.46.79,33.14,1.31,82.88.64,116.46.79,33.44-.16,83.5.54,116.46-.79-33.14-1.33-82.88-.63-116.46-.79Z"/>
      <path class="cls-1" d="M392.6,137.64c-6.65,0-24.14,0-30.56,0-3.4.26-6.79.47-10.19.79,3.4.32,6.79.52,10.19.79,6.5,0,23.85,0,30.56,0,6.65,0,24.14,0,30.56,0,3.4-.23,6.79-.47,10.19-.79-3.4-.33-6.79-.56-10.19-.79-6.5,0-23.85,0-30.56,0Z"/>
    </g>
    <g>
      <path class="cls-1" d="M117.5,69.04h14.08c10.13,0,15.09,3.95,15.09,13.94,0,9.34-4.96,15.66-10.92,18.04l3.95,16.89h-9.92l-3.23-15.52h-6.83l-3.59,15.52h-9.92l11.28-48.86ZM128.07,93.9c5.39,0,8.41-5.1,8.41-10.49,0-4.1-1.37-5.89-5.46-5.89h-5.53l-3.81,16.38h6.4Z"/>
      <path class="cls-1" d="M163.04,69.04h28.67l-2.01,8.62h-18.68l-2.66,11.5h14.8l-2.01,8.62h-14.73l-2.66,11.5h18.75l-1.94,8.62h-28.74l11.21-48.86Z"/>
    </g>
    <path class="cls-1" d="M198.91,92.3c-.97,0-3.53,0-4.46,0-.5.26-.99.47-1.49.79.5.32.99.52,1.49.79.95,0,3.48,0,4.46,0,.97,0,3.53,0,4.46,0,.5-.23.99-.47,1.49-.79-.5-.33-.99-.56-1.49-.79-.95,0-3.48,0-4.46,0Z"/>
    <path class="cls-1" d="M201.44,94.97c-.97,0-3.53,0-4.46,0-.5.26-.99.47-1.49.79.5.32.99.52,1.49.79.95,0,3.48,0,4.46,0,.97,0,3.53,0,4.46,0,.5-.23.99-.47,1.49-.79-.5-.33-.99-.56-1.49-.79-.95,0-3.48,0-4.46,0Z"/>
    <path class="cls-1" d="M197.96,97.9c-.68,0-2.49,0-3.15,0-.35.26-.7.47-1.05.79.35.32.7.52,1.05.79.67,0,2.46,0,3.15,0,.68,0,2.49,0,3.15,0,.35-.23.7-.47,1.05-.79-.35-.33-.7-.56-1.05-.79-.67,0-2.46,0-3.15,0Z"/>
  </g>
</svg>