<?xml version="1.0" encoding="UTF-8"?>
<svg id="Layer_2" data-name="Layer 2" xmlns="http://www.w3.org/2000/svg" viewBox="0 0 374.2 138.71">
  <defs>
    <style>
      .cls-1 {
        fill: #fff;
        stroke-width: 0px;
      }
    </style>
  </defs>
  <g id="_レイヤー_1" data-name="レイヤー 1">
    <path class="cls-1" d="M122.03,136.65l-2.4-8.72c2.09.13,4.18.25,6.27.38,7.84,0,28.8,0,36.9,0,8.03,0,29.15,0,36.9,0,4.1-.23,8.2-.47,12.3-.79-4.1-.33-8.2-.56-12.3-.79-7.84,0-28.8,0-36.9,0-8.03,0-29.15,0-36.9,0-2.16.14-4.33.26-6.49.4l-2.34-8.51c.12,0,.24.02.36.03,6.5,0,23.85,0,30.56,0,6.65,0,24.14,0,30.56,0,3.4-.23,6.79-.47,10.19-.79-3.4-.33-6.79-.56-10.19-.79-6.5,0-23.85,0-30.56,0-6.65,0-24.14,0-30.56,0-.26.02-.51.04-.77.06l-.9-3.28,3.47-4.69c.08,0,.15,0,.23-.01h9.85c.66-.24,1.31-.47,1.97-.79-.66-.32-1.31-.55-1.97-.79h-5.91s-1.83,0-2.99,0l5.4-7.3h7.59c.66-.24,1.33-.47,1.99-.79-.66-.32-1.33-.55-1.99-.79h-6.43l5.4-7.3h4.72c.63-.24,1.25-.47,1.88-.79-.63-.32-1.25-.55-1.88-.79h-5.63s-3.75,0-3.75,0c-.95-.07-1.82,0-2.67.29h-1.89l-11.51,16.78-3.44-16.78h-10.25l6.32,23.66-17.04,22.83c-4.96-.01-10.03-.02-15.14-.03,1.18-.55,2.28-1.19,3.25-1.95,8-6.25,11.51-18.67,11.51-30.75,0-10.32-6.04-14.6-15.51-14.6-5.27,0-9.83,1.61-13.41,4.7-7.44,6.46-10.95,18.46-10.95,30.12,0,6.19,2.17,10.27,5.97,12.5-9.78.05-19.33.15-28.09.37,8.03-2.22,11.93-8.4,11.93-15.41,0-3.51-.7-5.97-4.56-8.28,4.84-2.95,7.86-6.39,7.86-12.85,0-7.09-4.7-10.32-12.5-10.32H11.02L0,137.87h17.97c.98,0,1.91-.06,2.81-.15,11.07.34,23.6.47,36.37.5,1.48.33,3.1.48,4.84.48,1.65,0,3.29-.17,4.88-.47,17.38,0,34.62-.11,48.66-.04,29.63-.16,73.99.54,103.18-.79-27.29-1.23-67.29-.72-96.68-.76ZM18.81,98.42h7.23c2.88,0,4.14,1.4,4.14,4,0,4.42-3.02,7.37-6.81,7.37h-7.23l2.67-11.37ZM14.32,117.86h7.93c3.16,0,4.56,1.19,4.56,3.93,0,4.56-2.74,7.79-6.95,7.79h-8.28l2.74-11.72ZM64.52,99.82c1.54-1.54,3.58-2.11,5.69-2.11,4.98,0,6.67,2.04,6.67,7.16,0,8-2.67,18.39-7.3,23.03-1.61,1.61-3.72,2.39-5.9,2.39-5.05,0-6.74-2.04-6.74-7.16,0-7.02,2.6-18.39,7.58-23.31ZM97.32,136.64l11.01-15.83,3.58,15.83c-4.6.01-9.49.01-14.59,0Z"/>
    <g>
      <path class="cls-1" d="M124.05,48.93c36.55.87,85.39.31,119.43.46,21.51-.09,49.15.1,75.8.02.11,0,.21.01.32.01.44,0,.86,0,1.29-.01,19.28-.06,37.95-.26,53.32-.81-12.32-.43-26.68-.65-41.75-.75.29-.09.55-.17.77-.26l5.97-25.55h-14.11l-1.9,8h4.49l-2.46,10.6c-.84.14-2.67.35-4.42.35-4.21,0-7.02-1.83-7.02-6.53,0-10.81,4.07-26.05,14.74-26.05,4.49,0,10.11.77,13.13,1.4l2.25-7.02c-2.95-1.19-8.99-2.81-14.6-2.81-17.55,0-25.48,16.57-25.48,34.4,0,6.72,2.47,11.17,7.19,13.38-7.68,0-15.39,0-22.95.01L298.89.84h-9.34l-8.49,37.42h-.84l-2.53-37.42h-15.37l-10.85,46.99c-2.73,0-5.4,0-7.98-.02-2.63.01-5.37.02-8.17.02L246.17.84h-9.69l-10.85,47c-4.5,0-9.15-.01-13.9-.02l-3.68-15.74c5.83-2.32,10.67-8.49,10.67-17.62,0-9.76-4.84-13.62-14.74-13.62h-13.76l-10.84,46.93c-6.23,0-12.47.01-18.62.04l8.88-38.54h10.6l1.97-8.42h-30.75l-1.97,8.42h10.46l-8.89,38.6c-8.45.07-16.64.17-24.31.34,6.34-2.19,10.25-7.35,10.25-15.29,0-6.25-1.69-8.85-9.55-12.36-5.76-2.6-6.53-3.44-6.53-6.04,0-3.72,2.46-6.25,6.67-6.25,3.58,0,9.34.7,12.64,1.26l1.75-6.88c-3.02-1.12-9.06-2.67-14.67-2.67-10.04,0-16.22,6.81-16.22,15.66,0,6.32,2.67,9.2,8.99,12.08,6.18,2.81,7.09,3.65,7.09,6.32,0,5.27-3.09,6.95-8.35,6.95-3.58,0-9.41-.77-12.85-1.4l-1.61,6.95c3.09,1.26,9.2,2.88,14.6,2.88,1.81,0,3.51-.17,5.1-.49ZM269.33,10.46h.84l3.03,37.36c-4.3,0-8.52.01-12.61.02l8.74-37.38ZM198,9.13h5.41c4,0,5.34,1.76,5.34,5.76,0,5.27-2.95,10.25-8.21,10.25h-6.25l3.72-16.01ZM192.39,33.42h6.67l3,14.38c-4.29,0-8.62-.02-12.99-.02l3.32-14.36Z"/>
      <path class="cls-1" d="M245.71,57.24c-33.44.15-83.5-.52-116.46.79,33.14,1.31,82.88.64,116.46.79,33.44-.16,83.5.54,116.46-.79-33.14-1.33-82.88-.63-116.46-.79Z"/>
      <path class="cls-1" d="M292.77,68.7c-6.65,0-24.14,0-30.56,0-3.4.26-6.79.47-10.19.79,3.4.32,6.79.52,10.19.79,6.5,0,23.85,0,30.56,0,6.65,0,24.14,0,30.56,0,3.4-.23,6.79-.47,10.19-.79-3.4-.33-6.79-.56-10.19-.79-6.5,0-23.85,0-30.56,0Z"/>
    </g>
    <g>
      <path class="cls-1" d="M17.67.1h14.08c10.13,0,15.09,3.95,15.09,13.94,0,9.34-4.96,15.66-10.92,18.04l3.95,16.89h-9.92l-3.23-15.52h-6.83l-3.59,15.52H6.39L17.67.1ZM28.24,24.97c5.39,0,8.41-5.1,8.41-10.49,0-4.1-1.37-5.89-5.46-5.89h-5.53l-3.81,16.38h6.4Z"/>
      <path class="cls-1" d="M63.21.1h28.67l-2.01,8.62h-18.68l-2.66,11.5h14.8l-2.01,8.62h-14.73l-2.66,11.5h18.75l-1.94,8.62h-28.74L63.21.1Z"/>
    </g>
    <path class="cls-1" d="M99.08,23.37c-.97,0-3.53,0-4.46,0-.5.26-.99.47-1.49.79.5.32.99.52,1.49.79.95,0,3.48,0,4.46,0,.97,0,3.53,0,4.46,0,.5-.23.99-.47,1.49-.79-.5-.33-.99-.56-1.49-.79-.95,0-3.48,0-4.46,0Z"/>
    <path class="cls-1" d="M101.61,26.03c-.97,0-3.53,0-4.46,0-.5.26-.99.47-1.49.79.5.32.99.52,1.49.79.95,0,3.48,0,4.46,0,.97,0,3.53,0,4.46,0,.5-.23.99-.47,1.49-.79-.5-.33-.99-.56-1.49-.79-.95,0-3.48,0-4.46,0Z"/>
    <path class="cls-1" d="M98.13,28.97c-.68,0-2.49,0-3.15,0-.35.26-.7.47-1.05.79.35.32.7.52,1.05.79.67,0,2.46,0,3.15,0,.68,0,2.49,0,3.15,0,.35-.23.7-.47,1.05-.79-.35-.33-.7-.56-1.05-.79-.67,0-2.46,0-3.15,0Z"/>
  </g>
</svg>