<?xml version="1.0" encoding="UTF-8"?>
<svg id="_レイヤー_2" data-name="レイヤー 2" xmlns="http://www.w3.org/2000/svg" viewBox="0 0 465.54 286.13">
  <defs>
    <style>
      .cls-1 {
        fill: #fff;
        stroke-width: 0px;
      }
    </style>
  </defs>
  <g id="_レイヤー_1-2" data-name="レイヤー 1">
    <g>
      <path class="cls-1" d="m189.92,21.58C143.98,4.16,94.3,12.99,57.12,45c-18.7,15.97-33.6,36.5-42.62,59.39-12.1,30.24-12.69,65.18.55,95.12,8.41,18.86,22.15,35.04,38.27,47.84,23.26,18.15,51.67,29.89,81.13,32.45,35.76,3.04,72.15-7.17,101.74-27.48,0,0,.42.56.42.56-9.43,7.71-19.92,14.03-30.91,19.3-33.49,15.57-72.81,18.42-108.04,6.96-38.16-12.25-72.19-39.99-88.16-77.23-13.26-31.41-12.28-67.92.79-99.22,12.85-31.11,36.07-57.98,65.4-74.57,23.82-13.71,52.07-19.23,79.31-16.15,12.07,1.44,23.93,4.48,35.18,8.97,0,0-.26.65-.26.65h0Z"/>
      <path class="cls-1" d="m223.34,19.39C176.85-6.02,116.73-4.39,76.06,31.35c-48.3,42.1-57.84,114.6-28.64,170.42,18.8,36.98,53.1,67.38,95.49,71.23,21.53,2.06,43.57-2.3,62.99-11.9,6.56-3.19,12.8-7.02,18.77-11.27,0,0,.43.55.43.55-10.07,8.66-21.81,15.62-34.15,20.53-62.64,23.73-121.33-8.22-149.63-66.09-9.79-20.2-15.55-42.52-15.94-64.99-1.67-55.43,29.67-111.71,82.74-131.7,26.39-10.05,55.93-10.51,82.99-2.96,11.36,3.24,22.31,7.81,32.58,13.59l-.34.61h0Z"/>
      <path class="cls-1" d="m122.17,116.27l2.05-8.84c4.38.8,11.79,1.79,16.35,1.79,6.7,0,10.63-2.14,10.63-8.84,0-3.39-1.16-4.47-9.02-8.04-8.04-3.66-11.43-7.32-11.43-15.36,0-11.25,7.86-19.92,20.63-19.92,7.15,0,14.83,1.97,18.67,3.39l-2.23,8.75c-4.2-.71-11.52-1.61-16.08-1.61-5.36,0-8.49,3.22-8.49,7.95,0,3.31.98,4.38,8.31,7.68,10,4.47,12.15,7.77,12.15,15.72,0,13.76-9.2,20.99-22.96,20.99-6.88,0-14.65-2.05-18.58-3.66Z"/>
      <path class="cls-1" d="m192.92,68.83h-13.31l2.5-10.72h39.12l-2.5,10.72h-13.49l-11.52,50.02h-12.33l11.52-50.02Z"/>
      <path class="cls-1" d="m231.42,58.12h17.51c12.59,0,18.76,4.91,18.76,17.33,0,11.61-6.16,19.47-13.58,22.42l4.91,20.99h-12.33l-4.02-19.29h-8.49l-4.47,19.29h-12.33l14.02-60.74Zm13.13,30.91c6.7,0,10.45-6.34,10.45-13.04,0-5.09-1.7-7.32-6.79-7.32h-6.88l-4.73,20.37h7.95Z"/>
      <path class="cls-1" d="m290.29,58.12h12.33l-14.02,60.74h-12.33l14.02-60.74Z"/>
      <path class="cls-1" d="m323.16,58.12h19.56l3.22,47.61h1.07l10.81-47.61h11.88l-14.02,60.74h-18.58l-3.93-48.5h-1.07l-11.34,48.5h-11.61l14.02-60.74Z"/>
      <path class="cls-1" d="m375.96,100.81c0-22.69,10.09-43.77,32.42-43.77,7.15,0,14.83,2.05,18.58,3.57l-2.86,8.93c-3.84-.8-10.99-1.79-16.7-1.79-13.58,0-18.76,19.38-18.76,33.14,0,5.98,3.57,8.31,8.93,8.31,2.23,0,4.56-.27,5.63-.45l3.13-13.49h-5.72l2.41-10.18h17.95l-7.59,32.51c-2.59.98-9.11,2.32-17.33,2.32-13.13,0-20.1-6.34-20.1-19.12Z"/>
      <path class="cls-1" d="m137.54,165.31h21.08c9.92,0,15.9,4.11,15.9,13.13,0,8.22-3.84,12.6-10,16.35,4.91,2.95,5.81,6.07,5.81,10.54,0,11.17-7.77,20.72-23.94,20.72h-22.87l14.02-60.74Zm11.25,50.2c5.36,0,8.84-4.11,8.84-9.92,0-3.48-1.79-5-5.81-5h-10.09l-3.48,14.92h10.54Zm4.47-25.19c4.82,0,8.66-3.75,8.66-9.38,0-3.31-1.61-5.09-5.27-5.09h-9.2l-3.39,14.47h9.2Z"/>
      <path class="cls-1" d="m183.28,208.55c0-14.83,4.47-30.1,13.93-38.32,4.56-3.93,10.36-5.98,17.06-5.98,12.06,0,19.74,5.45,19.74,18.58,0,15.36-4.47,31.17-14.65,39.12-4.38,3.39-10.63,5.18-16.97,5.18-11.79,0-19.12-5.72-19.12-18.58Zm28.76,4.82c5.9-5.9,9.29-19.12,9.29-29.3,0-6.52-2.14-9.11-8.49-9.11-2.68,0-5.27.71-7.24,2.68-6.34,6.25-9.65,20.72-9.65,29.66,0,6.52,2.14,9.11,8.58,9.11,2.77,0,5.45-.98,7.5-3.04Z"/>
      <path class="cls-1" d="m256.17,195.42l-8.04-30.1h13.04l4.38,21.35,14.65-21.35h12.95l-22.33,30.19,8.4,30.55h-12.95l-4.91-21.71-15.1,21.71h-12.95l22.87-30.64Z"/>
      <path class="cls-1" d="m132.88,118.89c47.07-1.69,118.57-.8,166.33-1,47.95.19,119-.66,166.33,1-47.07,1.66-118.57.81-166.33,1-47.95-.2-119,.69-166.33-1h0Z"/>
      <path class="cls-1" d="m270.5,188.53c1.6-.92,3.22-1.13,5.01-1,0,0,5.01,0,5.01,0h7.52c.84.3,1.67.6,2.51,1-.84.4-1.67.7-2.51,1h-12.53c-1.79.13-3.41-.08-5.01-1h0Z"/>
      <path class="cls-1" d="m275.54,177.24c1.62-.92,3.25-1.13,5.06-1,0,0,5.06,0,5.06,0h7.59c.84.3,1.69.6,2.53,1-.84.4-1.69.7-2.53,1h-12.65c-1.81.13-3.44-.08-5.06-1h0Z"/>
      <path class="cls-1" d="m281.22,165.95c1.52-.91,3.06-1.13,4.78-1,0,0,4.78,0,4.78,0h7.17c.8.3,1.59.6,2.39,1-.8.4-1.59.7-2.39,1h-11.94c-1.72.13-3.26-.09-4.78-1h0Z"/>
      <path class="cls-1" d="m401.8,225.47c-37.15,1.68-93.59.8-131.29,1-37.85-.19-93.94.66-131.29-1,37.15-1.66,93.59-.81,131.29-1,37.85.2,93.94-.69,131.29,1h0Z"/>
      <path class="cls-1" d="m393.27,212.89c-5.22.42-10.43.71-15.65,1.01-9.86,0-36.73,0-46.95,0-10.3,0-36.97,0-46.95,0-5.22-.34-10.43-.59-15.65-1,5.22-.41,10.43-.66,15.65-1,9.86,0,36.73,0,46.95,0,10.3,0,36.97,0,46.95,0,5.22.29,10.43.59,15.65,1.01h0Z"/>
      <path class="cls-1" d="m363.68,200.6c-4.32.42-8.64.71-12.96,1.01-8.16,0-30.42,0-38.89,0-8.54,0-30.62,0-38.89,0-4.32-.34-8.64-.59-12.96-1,4.32-.41,8.64-.66,12.96-1,8.16,0,30.42,0,38.89,0,8.54,0,30.62,0,38.89,0,4.32.29,8.64.59,12.96,1.01h0Z"/>
      <path class="cls-1" d="m450.22,130.88c-41.93,1.68-105.63.8-148.18,1-42.72-.19-106.02.66-148.18-1,41.93-1.66,105.63-.81,148.18-1,42.72.2,106.02-.69,148.18,1h0Z"/>
      <path class="cls-1" d="m413.76,145.46c-4.32.42-8.64.71-12.96,1.01-8.16,0-30.42,0-38.89,0-8.54,0-30.62,0-38.89,0-4.32-.34-8.64-.59-12.96-1,4.32-.41,8.64-.66,12.96-1,8.16,0,30.42,0,38.89,0,8.54,0,30.62,0,38.89,0,4.32.29,8.64.59,12.96,1.01h0Z"/>
    </g>
  </g>
</svg>