<?xml version="1.0" encoding="UTF-8"?>
<svg id="_レイヤー_2" data-name="レイヤー 2" xmlns="http://www.w3.org/2000/svg" viewBox="0 0 465.92 286.88">
  <defs>
    <style>
      .cls-1 {
        stroke: #fff;
        stroke-miterlimit: 10;
        stroke-width: .75px;
      }
    </style>
  </defs>
  <g id="_レイヤー_1-2" data-name="レイヤー 1">
    <path class="cls-1" d="m236.56,252.69c-29.58,20.31-65.98,30.52-101.74,27.48-29.46-2.56-57.87-14.31-81.13-32.45-16.12-12.8-29.86-28.98-38.27-47.84-13.23-29.94-12.64-64.88-.55-95.12,9.02-22.89,23.92-43.41,42.62-59.39.22-.19.45-.37.67-.56-21.75,26.19-33.47,60.96-32.43,95.4.4,22.47,6.15,44.79,15.94,64.99,28.31,57.88,86.99,89.82,149.63,66.09,12.34-4.91,24.08-11.87,34.15-20.53l-.43-.55c-5.96,4.25-12.2,8.08-18.77,11.27-19.42,9.6-41.46,13.96-62.99,11.9-42.38-3.86-76.69-34.26-95.49-71.23-29.21-55.82-19.66-128.33,28.64-170.42.03-.03.06-.05.1-.08,34.18-20.44,75.29-24.28,113.76-9.68l.26-.65c-11.26-4.49-23.11-7.54-35.18-8.97-22.23-2.51-45.14.71-65.76,9.43,39.76-25.81,92.41-24.79,134.1-2,0,0,.34-.61.34-.61-10.26-5.78-21.22-10.36-32.58-13.59-27.06-7.56-56.6-7.09-82.99,2.96-14.14,5.33-26.73,13.25-37.57,23.03-26.89,16.74-48.17,42.25-60.25,71.51-13.08,31.29-14.05,67.81-.79,99.22,15.96,37.24,50,64.99,88.16,77.23,35.23,11.47,74.55,8.62,108.04-6.96,10.99-5.27,21.48-11.59,30.91-19.3,0,0-.42-.56-.42-.56Z"/>
    <g>
      <path class="cls-1" d="m147.62,119.68c46.5,1.11,108.65.4,151.97.58,27.37-.11,62.54.12,96.44.03.14,0,.27.01.41.01.55,0,1.1,0,1.64-.02,24.53-.08,48.29-.33,67.84-1.02-15.67-.55-33.95-.82-53.12-.95.36-.11.7-.22.97-.33l7.59-32.51h-17.95l-2.41,10.18h5.72l-3.13,13.49c-1.07.18-3.39.45-5.63.45-5.36,0-8.93-2.32-8.93-8.31,0-13.76,5.18-33.14,18.76-33.14,5.72,0,12.86.98,16.7,1.79l2.86-8.93c-3.75-1.52-11.43-3.57-18.58-3.57-22.33,0-32.42,21.08-32.42,43.77,0,8.56,3.14,14.21,9.15,17.02-9.78,0-19.58,0-29.2.02l13.79-59.74h-11.88l-10.81,47.61h-1.07l-3.22-47.61h-19.56l-13.81,59.79c-3.48,0-6.87-.01-10.15-.03-3.35.01-6.83.02-10.39.03l13.81-59.8h-12.33l-13.81,59.8c-5.73,0-11.64-.01-17.69-.03l-4.69-20.02c7.41-2.95,13.58-10.81,13.58-22.42,0-12.42-6.16-17.33-18.76-17.33h-17.51l-13.79,59.71c-7.93,0-15.86.02-23.69.05l11.3-49.04h13.49l2.5-10.72h-39.12l-2.5,10.72h13.31l-11.32,49.12c-10.76.08-21.17.22-30.93.43,8.07-2.79,13.04-9.36,13.04-19.45,0-7.95-2.14-11.25-12.15-15.72-7.32-3.31-8.31-4.38-8.31-7.68,0-4.73,3.13-7.95,8.49-7.95,4.56,0,11.88.89,16.08,1.61l2.23-8.75c-3.84-1.43-11.52-3.39-18.67-3.39-12.77,0-20.63,8.66-20.63,19.92,0,8.04,3.39,11.7,11.43,15.36,7.86,3.57,9.02,4.64,9.02,8.04,0,6.7-3.93,8.84-10.63,8.84-4.56,0-11.97-.98-16.35-1.79l-2.05,8.84c3.93,1.61,11.7,3.66,18.58,3.66,2.3,0,4.46-.22,6.49-.62Zm184.86-48.95h1.07l3.85,47.54c-5.48.01-10.84.02-16.05.02l11.12-47.56Zm-90.76-1.7h6.88c5.09,0,6.79,2.23,6.79,7.32,0,6.7-3.75,13.04-10.45,13.04h-7.95l4.73-20.37Zm-7.15,30.91h8.49l3.81,18.3c-5.45-.01-10.97-.02-16.53-.03l4.23-18.27Z"/>
      <path class="cls-1" d="m279.16,224.87l-3.05-11.09c2.66.16,5.32.31,7.98.48,9.98,0,36.64,0,46.95,0,10.22,0,37.09,0,46.95,0,5.22-.29,10.43-.59,15.65-1.01-5.22-.42-10.43-.71-15.65-1.01-9.98,0-36.64,0-46.95,0-10.22,0-37.09,0-46.95,0-2.75.18-5.51.34-8.26.5l-2.98-10.83c.15.01.31.02.46.03,8.27,0,30.35,0,38.89,0,8.46,0,30.72,0,38.89,0,4.32-.29,8.64-.59,12.96-1.01-4.32-.42-8.64-.71-12.96-1.01-8.27,0-30.35,0-38.89,0-8.46,0-30.72,0-38.89,0-.33.03-.65.05-.98.07l-1.15-4.17,4.41-5.96c.1,0,.19,0,.29-.01h12.53c.84-.3,1.67-.6,2.51-1-.84-.4-1.67-.7-2.51-1h-7.52s-2.33,0-3.81,0l6.87-9.29h9.66c.84-.3,1.69-.6,2.53-1-.84-.4-1.69-.7-2.53-1h-8.18l6.87-9.29h6c.8-.3,1.59-.6,2.39-1-.8-.4-1.59-.7-2.39-1h-7.17s-4.78,0-4.78,0c-1.2-.09-2.32,0-3.4.36h-2.4l-14.65,21.35-4.38-21.35h-13.04l8.04,30.1-21.68,29.05c-6.3-.02-12.76-.03-19.27-.04,1.5-.7,2.9-1.52,4.14-2.48,10.18-7.95,14.65-23.76,14.65-39.12,0-13.13-7.68-18.58-19.74-18.58-6.7,0-12.51,2.05-17.06,5.98-9.47,8.22-13.93,23.49-13.93,38.32,0,7.88,2.76,13.07,7.6,15.91-12.44.06-24.59.2-35.74.48,10.21-2.82,15.18-10.69,15.18-19.6,0-4.47-.89-7.59-5.81-10.54,6.16-3.75,10-8.13,10-16.35,0-9.02-5.98-13.13-15.9-13.13h-21.08l-14.02,60.74h22.87c1.25,0,2.43-.08,3.57-.19,14.09.43,30.03.59,46.28.64,1.88.41,3.94.62,6.16.62,2.1,0,4.19-.21,6.2-.6,22.11,0,44.05-.14,61.92-.05,37.7-.2,94.14.68,131.29-1-34.72-1.57-85.61-.91-123.02-.97Zm-131.33-48.65h9.2c3.66,0,5.27,1.79,5.27,5.09,0,5.63-3.84,9.38-8.66,9.38h-9.2l3.39-14.47Zm-5.72,24.74h10.09c4.02,0,5.81,1.52,5.81,5,0,5.81-3.48,9.92-8.84,9.92h-10.54l3.48-14.92Zm63.87-22.96c1.97-1.97,4.56-2.68,7.24-2.68,6.34,0,8.49,2.59,8.49,9.11,0,10.18-3.39,23.4-9.29,29.3-2.05,2.05-4.73,3.04-7.5,3.04-6.43,0-8.58-2.59-8.58-9.11,0-8.93,3.31-23.4,9.65-29.66Zm41.73,46.85l14.01-20.14,4.56,20.14c-5.85.02-12.08.01-18.57,0Z"/>
      <path class="cls-1" d="m302.41,130.25c-42.55.19-106.25-.66-148.18,1,42.16,1.66,105.46.81,148.18,1,42.55-.2,106.25.68,148.18-1-42.16-1.69-105.46-.8-148.18-1Z"/>
      <path class="cls-1" d="m362.29,144.83c-8.46,0-30.72,0-38.89,0-4.32.34-8.64.59-12.96,1,4.32.41,8.64.66,12.96,1,8.27,0,30.35,0,38.89,0,8.46,0,30.72,0,38.89,0,4.32-.29,8.64-.59,12.96-1.01-4.32-.42-8.64-.71-12.96-1.01-8.27,0-30.35,0-38.89,0Z"/>
    </g>
  </g>
</svg>