<?xml version="1.0" encoding="UTF-8"?>
<svg id="_レイヤー_2" data-name="レイヤー 2" xmlns="http://www.w3.org/2000/svg" viewBox="0 0 95.62 64.86">
  <defs>
    <style>
      .cls-1, .cls-2 {
        stroke-width: 0px;
      }

      .cls-2 {
        fill: #fff;
      }
    </style>
  </defs>
  <g id="_レイヤー_1-2" data-name="レイヤー 1">
    <g>
      <path class="cls-1" d="m95.62.9c-.53-.3-1.05-.6-1.58-.9H30.23C20.47,7.6,10.7,15.19.93,22.79c-.31.31-.62.63-.93.94,0,13.71,0,27.42,0,41.13h66.47c9.54-7.7,19.07-15.39,28.61-23.09.18-.37.36-.74.54-1.11V.9Zm-31.05,21.89H5.51l12.72-9.95h59.06l-12.72,9.95Zm17.31-13.53c-19.69,0-39.37,0-59.06,0l8.23-6.44h59.06l-8.23,6.44Zm-15.41,15.63l26.33-20.58v35.66l-26.33,20.58V24.89Z"/>
      <rect class="cls-2" x="2.96" y="25.85" width="61.01" height="36.35"/>
    </g>
  </g>
</svg>