<?xml version="1.0" encoding="UTF-8"?>
<svg id="_レイヤー_2" data-name="レイヤー 2" xmlns="http://www.w3.org/2000/svg" viewBox="0 0 67.66 75">
  <defs>
    <style>
      .cls-1 {
        stroke-width: 0px;
      }
    </style>
  </defs>
  <g id="_レイヤー_1-2" data-name="レイヤー 1">
    <g>
      <path class="cls-1" d="m59.68,75H7.98c-4.4,0-7.98-3.58-7.98-7.98V29.32c0-4.4,3.58-7.98,7.98-7.98h51.71c4.4,0,7.98,3.58,7.98,7.98v37.7c0,4.4-3.58,7.98-7.98,7.98ZM7.98,25.05c-2.36,0-4.27,1.92-4.27,4.27v37.7c0,2.36,1.92,4.27,4.27,4.27h51.71c2.36,0,4.27-1.92,4.27-4.27V29.32c0-2.36-1.92-4.27-4.27-4.27H7.98Z"/>
      <path class="cls-1" d="m38.87,42.72c0-2.78-2.26-5.04-5.04-5.04s-5.04,2.26-5.04,5.04c0,2.17,1.38,4.01,3.31,4.71-.5,1.31-.82,3.17-.82,5.25,0,3.97,1.14,7.19,2.55,7.19s2.55-3.22,2.55-7.19c0-2.08-.32-3.94-.82-5.25,1.93-.71,3.31-2.54,3.31-4.71Z"/>
      <path class="cls-1" d="m54.42,18.58h-3.7V5.84c.02-1.14-.34-1.91-.69-2.07-.06-.03-.14-.05-.23-.05l-30.93-.02c.05,0-1.11.12-1.65,1-.26.42-.29.87-.28,1.16v12.72s-3.7,0-3.7,0V5.94c-.04-.73.08-1.96.83-3.18,1.14-1.85,3.15-2.64,4.66-2.76h31.14c.66.03,1.23.17,1.74.41,1.79.84,2.86,2.93,2.81,5.46v12.7Z"/>
    </g>
  </g>
</svg>