<?xml version="1.0" encoding="UTF-8"?>
<svg id="_レイヤー_2" data-name="レイヤー 2" xmlns="http://www.w3.org/2000/svg" viewBox="0 0 91.62 61.45">
  <defs>
    <style>
      .cls-1 {
        stroke-width: 0px;
      }
    </style>
  </defs>
  <g id="_レイヤー_1-2" data-name="レイヤー 1">
    <g>
      <path class="cls-1" d="m85.39,61.45H6.23c-3.44,0-6.23-2.8-6.23-6.23V6.23C0,2.8,2.8,0,6.23,0h79.15c3.44,0,6.23,2.8,6.23,6.23v48.98c0,3.44-2.8,6.23-6.23,6.23ZM6.23,2.89c-1.84,0-3.34,1.5-3.34,3.34v48.98c0,1.84,1.5,3.34,3.34,3.34h79.15c1.84,0,3.34-1.5,3.34-3.34V6.23c0-1.84-1.5-3.34-3.34-3.34H6.23Z"/>
      <rect class="cls-1" x="1.19" y="18.99" width="88.61" height="11.98"/>
      <path class="cls-1" d="m83.03,51.21h-20.91v-7.93h20.91v7.93Zm-19.47-1.45h18.02v-5.04h-18.02v5.04Z"/>
      <rect class="cls-1" x="9.01" y="12.37" width="16.59" height="1.08"/>
      <rect class="cls-1" x="9.01" y="8.06" width="16.59" height="1.08"/>
    </g>
  </g>
</svg>