<?xml version="1.0" encoding="UTF-8"?>
<svg id="_レイヤー_2" data-name="レイヤー 2" xmlns="http://www.w3.org/2000/svg" viewBox="0 0 61.54 80.28">
  <defs>
    <style>
      .cls-1 {
        fill: none;
        stroke: #000;
        stroke-miterlimit: 10;
        stroke-width: 3px;
      }
    </style>
  </defs>
  <g id="_レイヤー_1-2" data-name="レイヤー 1">
    <path class="cls-1" d="m57.21,54.84c-2.02-6.29-5.1-9.99-8.53-12.11-4.08-2.52-8.21-2.51-8.6-4.69-.37-2.06,3.13-2.98,5.71-7.01,3.76-5.85,2.17-12.93,1.84-14.42-.42-1.87-2-8.95-8.63-12.8-3.64-2.12-7.22-2.34-9.06-2.31-1.81,0-5.24.28-8.74,2.31-6.63,3.85-8.22,10.94-8.63,12.8-.33,1.49-1.92,8.57,1.84,14.42,2.59,4.03,6.08,4.95,5.71,7.01-.39,2.19-4.51,2.17-8.6,4.69-3.43,2.11-6.51,5.81-8.53,12.11-.47,7.98-.94,15.95-1.41,23.93,9.45-.04,18.9-.08,28.35-.13h0c.05,0,.11,0,.16,0s.11,0,.16,0h0c9.87.04,19.74.08,29.6.12-.89-7.98-1.77-15.95-2.66-23.93Z"/>
  </g>
</svg>